<svg width="80" height="15" viewBox="0 0 80 15" fill="none" xmlns="http://www.w3.org/2000/svg">
<path fill-rule="evenodd" clip-rule="evenodd" d="M72.0004 12.0553L75.2291 13.9784C76.1765 14.5426 76.7394 14.1329 76.4856 13.0589L75.6324 9.45006L78.4727 7.02189C79.3165 6.30059 79.1017 5.6406 78.0048 5.54877L74.2484 5.23427L72.7867 1.83073C72.3525 0.81968 71.6492 0.817905 71.2142 1.83073L69.7524 5.23427L65.9961 5.54877C64.8939 5.64104 64.6829 6.29932 65.5282 7.02189L68.3684 9.45006L67.5153 13.0589C67.2619 14.131 67.8289 14.5399 68.7717 13.9784L72.0004 12.0553Z" fill="#DBDBDB"/>
<path fill-rule="evenodd" clip-rule="evenodd" d="M56.0004 12.0553L59.2291 13.9784C60.1765 14.5426 60.7394 14.1329 60.4856 13.0589L59.6324 9.45006L62.4727 7.02189C63.3165 6.30059 63.1017 5.6406 62.0048 5.54877L58.2484 5.23427L56.7867 1.83073C56.3525 0.81968 55.6492 0.817905 55.2142 1.83073L53.7524 5.23427L49.9961 5.54877C48.8939 5.64104 48.6829 6.29932 49.5282 7.02189L52.3684 9.45006L51.5153 13.0589C51.2619 14.131 51.8289 14.5399 52.7717 13.9784L56.0004 12.0553Z" fill="#6A6A6A"/>
<path fill-rule="evenodd" clip-rule="evenodd" d="M40.0004 12.0553L43.2291 13.9784C44.1765 14.5426 44.7394 14.1329 44.4856 13.0589L43.6324 9.45006L46.4727 7.02189C47.3165 6.30059 47.1017 5.6406 46.0048 5.54877L42.2484 5.23427L40.7867 1.83073C40.3525 0.81968 39.6492 0.817905 39.2142 1.83073L37.7524 5.23427L33.9961 5.54877C32.8939 5.64104 32.6829 6.29932 33.5282 7.02189L36.3684 9.45006L35.5153 13.0589C35.2619 14.131 35.8289 14.5399 36.7717 13.9784L40.0004 12.0553Z" fill="#6A6A6A"/>
<path fill-rule="evenodd" clip-rule="evenodd" d="M24.0004 12.0553L27.2291 13.9784C28.1765 14.5426 28.7394 14.1329 28.4856 13.0589L27.6324 9.45006L30.4727 7.02189C31.3165 6.30059 31.1017 5.6406 30.0048 5.54877L26.2484 5.23427L24.7867 1.83073C24.3525 0.81968 23.6492 0.817905 23.2142 1.83073L21.7524 5.23427L17.9961 5.54877C16.8939 5.64104 16.6829 6.29932 17.5282 7.02189L20.3684 9.45006L19.5153 13.0589C19.2619 14.131 19.8289 14.5399 20.7717 13.9784L24.0004 12.0553Z" fill="#6A6A6A"/>
<path fill-rule="evenodd" clip-rule="evenodd" d="M8.00044 12.0553L11.2291 13.9784C12.1765 14.5426 12.7394 14.1329 12.4856 13.0589L11.6324 9.45006L14.4727 7.02189C15.3165 6.30059 15.1017 5.6406 14.0048 5.54877L10.2484 5.23427L8.78668 1.83073C8.35245 0.81968 7.64919 0.817905 7.2142 1.83073L5.75244 5.23427L1.99607 5.54877C0.893911 5.64104 0.682938 6.29932 1.52815 7.02189L4.36844 9.45006L3.51531 13.0589C3.26188 14.131 3.82894 14.5399 4.77173 13.9784L8.00044 12.0553Z" fill="#6A6A6A"/>
</svg>
