<svg xmlns="http://www.w3.org/2000/svg" width="35.398" height="35.398" viewBox="0 0 35.398 35.398"><defs><style>.a{fill:#DD7CAD;}</style></defs><path class="a" d="M21.074,3.375a17.7,17.7,0,1,0,17.7,17.7A17.7,17.7,0,0,0,21.074,3.375Zm4.484,24.107L21.074,23,16.59,27.482a1.36,1.36,0,1,1-1.923-1.923l4.484-4.484L14.667,16.59a1.36,1.36,0,0,1,1.923-1.923l4.484,4.484,4.484-4.484a1.36,1.36,0,1,1,1.923,1.923L23,21.074l4.484,4.484a1.366,1.366,0,0,1,0,1.923A1.351,1.351,0,0,1,25.559,27.482Z" transform="translate(-3.375 -3.375)"/></svg>