<svg width="297" height="28" viewBox="0 0 297 28" fill="none" xmlns="http://www.w3.org/2000/svg">
<path fill-rule="evenodd" clip-rule="evenodd" d="M270.195 12.2915L270.176 12.3088C270.176 12.3088 270.195 12.3001 270.195 12.2915Z" fill="#000D19"/>
<path fill-rule="evenodd" clip-rule="evenodd" d="M283.329 14.679C283.205 15.6632 284.39 15.5469 284.812 15.1337C285.132 14.8202 285.215 14.2576 285.285 13.8049C284.322 13.6887 283.429 13.8631 283.329 14.679Z" fill="#000D19"/>
<path fill-rule="evenodd" clip-rule="evenodd" d="M270.171 12.7836C270.106 13.093 270.063 13.4335 269.998 13.7844C269.934 14.1352 269.809 14.4903 269.847 14.8225C269.93 15.6011 271.005 15.6073 271.441 15.1464C271.805 14.7623 272.104 13.8134 271.994 13.0556C271.865 12.1919 270.609 12.2563 270.171 12.7836Z" fill="#000D19"/>
<path fill-rule="evenodd" clip-rule="evenodd" d="M269.155 5.37538H265.25C263.531 5.45635 262.119 6.14981 261.72 7.57828C261.512 8.32988 261.39 9.14168 261.226 9.91405C260.385 13.8423 259.638 17.8786 258.832 21.7279H289.145C291.489 21.7279 293.09 21.2317 293.528 19.3735C293.736 18.5097 293.925 17.5298 294.118 16.5809C294.87 12.881 295.619 9.17906 296.402 5.36914L269.155 5.37538ZM268.277 10.4643C268.318 10.4147 268.368 10.3741 268.425 10.3451C268.482 10.3162 268.545 10.2995 268.609 10.2961C268.672 10.2778 268.738 10.2733 268.803 10.283C268.868 10.2927 268.93 10.3163 268.985 10.3522C269.224 10.5598 269.014 11.0747 268.852 11.1827C268.748 11.2533 268.399 11.3342 268.244 11.1827C268.088 11.0311 268.177 10.5992 268.281 10.4581L268.277 10.4643ZM265.563 15.8957C265.711 14.9677 265.902 14.0811 266.057 13.1613C265.222 13.1098 264.385 13.1043 263.549 13.1447C263.358 14.0292 263.221 14.9677 263.074 15.8999H262.142C262.505 14.0873 262.802 12.2063 263.13 10.3542H264.041C263.888 11.0809 263.778 11.8512 263.626 12.5758C264.444 12.636 265.308 12.6049 266.153 12.5945C266.277 11.8533 266.417 11.1121 266.529 10.3542H267.482C267.106 12.1585 266.792 14.0209 266.493 15.8999L265.563 15.8957ZM267.318 15.8957C267.577 14.6313 267.818 13.3503 268.001 12.0028C268.001 11.9758 268.001 11.9488 268.022 11.9467H268.837C268.555 13.2153 268.337 14.542 268.136 15.8916L267.318 15.8957ZM271.647 15.7836C271.134 16.0598 269.917 16.1989 269.73 15.4784C269.558 16.1615 269.485 16.9318 269.359 17.6626H268.532C268.9 15.794 269.247 13.8942 269.535 11.9467H270.237C270.237 12.0713 270.187 12.1543 270.181 12.2872C270.546 11.9945 271.389 11.683 272.079 11.9426C273.507 12.4803 272.689 15.2085 271.628 15.7836H271.647ZM276.63 13.7676C275.753 13.7447 274.834 13.7385 273.953 13.7676C273.816 14.351 273.818 15.0133 274.238 15.2874C274.792 15.6383 275.731 15.3559 276.268 15.1545C276.235 15.3622 276.177 15.5698 276.156 15.8002C274.846 16.1179 273.206 16.1657 273.061 14.8493C272.957 13.9275 273.31 12.9163 273.744 12.4575C274.099 12.0817 274.597 11.9135 275.187 11.8678C275.859 11.8159 276.522 11.9571 276.706 12.4907C276.841 12.9059 276.68 13.3503 276.623 13.7634L276.63 13.7676ZM278.093 13.3523C277.842 14.0894 277.79 15.1275 277.678 15.8957H276.86C277.111 14.6002 277.361 13.315 277.543 11.9509H278.266C278.218 12.1585 278.193 12.4097 278.133 12.6153C278.397 12.1523 278.963 11.6581 279.69 11.9509C279.669 12.1585 279.607 12.3267 279.595 12.5405C278.822 12.2664 278.291 12.7668 278.089 13.3565L278.093 13.3523ZM281.986 15.7836C280.919 16.1511 279.607 16.0992 279.308 15.1358C279.059 14.3157 279.412 13.0077 279.954 12.4367C280.496 11.8657 281.55 11.7432 282.653 11.9239C282.624 12.1315 282.578 12.3391 282.557 12.5696C281.887 12.335 281.046 12.2665 280.62 12.6838C280.313 12.9848 280.112 13.6534 280.07 14.2015C280.045 14.4574 280.072 14.7156 280.147 14.9614C280.404 15.63 281.523 15.4743 282.103 15.1691C282.055 15.3767 282.03 15.5843 281.982 15.7774L281.986 15.7836ZM286.002 14.0728C285.882 14.6736 285.813 15.2834 285.794 15.8957H285.092C285.086 15.6921 285.105 15.4885 285.149 15.2895C284.812 15.8272 283.841 16.2196 283.041 15.8771C282.626 15.7006 282.418 15.0632 282.603 14.4237C282.894 13.4562 284 13.2319 285.358 13.3606C285.445 13.1705 285.479 12.96 285.454 12.7523C285.308 12.1087 283.809 12.4803 283.326 12.6007C283.375 12.3931 283.438 12.1855 283.477 11.955C284.443 11.926 286.176 11.5585 286.232 12.6007C286.263 13.0513 286.097 13.56 286.004 14.0728H286.002ZM287.482 14.4735C287.381 14.9417 287.318 15.4173 287.293 15.8957H286.463C286.74 14.6182 286.974 13.3032 287.167 11.9509H287.887C287.827 12.1419 287.821 12.391 287.754 12.5737C287.991 12.2104 288.585 11.6041 289.311 11.9675C289.26 12.1419 289.241 12.3495 289.199 12.5364C287.924 12.1751 287.669 13.3669 287.495 14.4756L287.482 14.4735ZM292.258 15.8957H291.521C291.531 15.6983 291.556 15.5019 291.595 15.3082C291.581 15.2583 291.498 15.4327 291.444 15.4992C291.363 15.607 291.267 15.7028 291.159 15.7836C290.611 16.1428 289.532 16.0411 289.145 15.6134C288.942 15.3396 288.841 15.003 288.861 14.6625C288.838 12.8437 290.067 11.3695 292.071 12.0028C292.196 11.419 292.291 10.8293 292.355 10.2359H293.173C292.847 12.1045 292.407 13.8486 292.264 15.8957H292.258Z" fill="#000D19"/>
<path fill-rule="evenodd" clip-rule="evenodd" d="M290.984 12.3828C290.107 12.4825 289.671 13.5788 289.694 14.567C289.707 15.1318 289.979 15.4723 290.525 15.4598C291.812 15.4329 291.712 13.6452 291.978 12.5365C291.664 12.4069 291.323 12.3542 290.984 12.3828Z" fill="#000D19"/>
<path fill-rule="evenodd" clip-rule="evenodd" d="M275.127 12.3643C274.864 12.3712 274.612 12.4699 274.414 12.6432C274.217 12.8165 274.086 13.0535 274.045 13.3131H275.961C276.136 12.5802 275.714 12.3414 275.127 12.3643Z" fill="#000D19"/>
<path d="M212.661 9.71265C213.165 9.54439 213.698 9.47719 214.229 9.51489C214.76 9.55258 215.278 9.69445 215.753 9.93237C216.229 10.1703 216.654 10.4996 217.002 10.9015C217.351 11.3034 217.617 11.7701 217.785 12.2748C217.836 12.4276 217.878 12.5836 217.909 12.7419L220.685 12.173C220.317 10.3839 219.254 8.81428 217.729 7.80931C216.204 6.80435 214.342 6.44639 212.553 6.81421C212.286 6.86879 212.023 6.9381 211.764 7.02184L212.661 9.71265Z" fill="#000D19"/>
<path d="M209.389 18.7028L211.258 16.5829C210.859 16.2299 210.534 15.8017 210.301 15.3229C210.068 14.8441 209.932 14.324 209.901 13.7925C209.869 13.261 209.942 12.7284 210.117 12.2253C210.291 11.7223 210.563 11.2586 210.917 10.8608C211.027 10.7383 211.144 10.6219 211.266 10.5119L209.397 8.39209C208.031 9.60061 207.201 11.3023 207.089 13.123C206.977 14.9436 207.593 16.7341 208.802 18.1007C208.988 18.3109 209.187 18.5092 209.397 18.6945L209.389 18.7028Z" fill="#000D19"/>
<path d="M217.91 14.3633C217.797 14.9254 217.565 15.457 217.231 15.9227C216.896 16.3883 216.466 16.7772 215.97 17.0635C215.473 17.3498 214.921 17.5268 214.35 17.5829C213.78 17.6389 213.204 17.5726 212.661 17.3884L211.762 20.0751C212.621 20.3626 213.528 20.4778 214.431 20.4142C215.334 20.3506 216.217 20.1094 217.027 19.7044C217.837 19.2994 218.559 18.7385 219.152 18.0539C219.745 17.3693 220.197 16.5745 220.482 15.7149C220.568 15.4566 220.637 15.1931 220.69 14.9259L217.91 14.3633Z" fill="#000D19"/>
<path d="M229.915 16.259C229.519 16.6492 229.002 16.8937 228.449 16.9525C227.896 17.0113 227.34 16.8811 226.871 16.5829L225.953 18.0363C226.75 18.5394 227.694 18.7589 228.631 18.6594C229.569 18.5599 230.445 18.1473 231.119 17.4882L229.915 16.259Z" fill="#000D19"/>
<path d="M228.254 10.2961C227.492 10.2847 226.742 10.4804 226.084 10.8625C225.425 11.2445 224.883 11.7984 224.515 12.465C224.147 13.1316 223.967 13.8856 223.995 14.6465C224.023 15.4074 224.257 16.1464 224.672 16.7844L232.275 13.5351C232.061 12.6246 231.549 11.8117 230.821 11.225C230.092 10.6383 229.189 10.3115 228.254 10.2961ZM225.733 14.7518C225.721 14.6532 225.716 14.5541 225.716 14.4549C225.724 13.9514 225.885 13.4623 226.178 13.0529C226.471 12.6435 226.883 12.3335 227.357 12.1644C227.831 11.9952 228.346 11.975 228.832 12.1064C229.318 12.2379 229.752 12.5146 230.077 12.8997L225.733 14.7518Z" fill="#000D19"/>
<path d="M234.664 8.40882V16.5062L236.07 17.0896L235.405 18.6883L234.014 18.1091C233.735 17.9875 233.497 17.7877 233.329 17.534C233.144 17.2337 233.051 16.8858 233.061 16.5332V8.40674L234.664 8.40882Z" fill="#000D19"/>
<path d="M239.736 12.1543C240.355 11.949 241.031 11.9977 241.614 12.2895C242.198 12.5814 242.642 13.0927 242.85 13.7115C242.882 13.8073 242.909 13.9051 242.929 14.0043L244.623 13.6575C244.399 12.5677 243.753 11.611 242.825 10.9973C241.897 10.3835 240.764 10.1627 239.673 10.3833C239.509 10.4163 239.348 10.46 239.189 10.5141L239.736 12.1543Z" fill="#000D19"/>
<path d="M237.739 17.6418L238.883 16.3462C238.64 16.1308 238.442 15.8697 238.3 15.5778C238.159 15.286 238.076 14.969 238.056 14.6451C238.037 14.3212 238.082 13.9967 238.188 13.6901C238.294 13.3834 238.46 13.1007 238.675 12.8581C238.74 12.7849 238.809 12.7156 238.883 12.6504L237.737 11.3569C237.293 11.7519 236.938 12.2363 236.695 12.7783C236.452 13.3202 236.326 13.9075 236.326 14.5014C236.326 15.0954 236.452 15.6826 236.695 16.2245C236.938 16.7665 237.293 17.2509 237.737 17.6459L237.739 17.6418Z" fill="#000D19"/>
<path d="M242.939 14.9927C242.807 15.6352 242.424 16.1986 241.876 16.5592C241.328 16.9197 240.659 17.0478 240.016 16.9153C239.921 16.8958 239.828 16.8708 239.736 16.8405L239.186 18.4787C239.709 18.6534 240.263 18.7233 240.814 18.6842C241.364 18.6451 241.902 18.4979 242.396 18.2509C242.89 18.0039 243.331 17.662 243.693 17.2447C244.054 16.8275 244.33 16.343 244.505 15.819C244.557 15.6618 244.6 15.5016 244.634 15.3394L242.939 14.9927Z" fill="#000D19"/>
<path d="M183.926 7.51188C183.933 6.32754 183.65 5.15953 183.101 4.10993C182.553 3.06032 181.755 2.16107 180.779 1.49075C179.517 0.582976 178.017 0.0647155 176.464 0H172.042C170.138 0.0780744 168.331 0.862694 166.974 2.20082C164.75 4.45563 164.846 7.54095 164.846 7.54095C164.775 10.4664 166.764 12.5717 166.764 12.5717C168.137 14.0542 170.028 14.9509 172.044 15.0757H176.404C179.197 14.8681 180.831 13.4666 180.831 13.4666C181.786 12.7947 182.566 11.9031 183.105 10.8668C183.644 9.83048 183.925 8.67987 183.926 7.51188ZM172.492 14.4632C170.65 14.461 168.884 13.7276 167.582 12.4243C166.281 11.1209 165.549 9.35404 165.549 7.51188C165.55 5.66864 166.283 3.90109 167.586 2.59791C168.89 1.29474 170.657 0.562669 172.501 0.562669C174.344 0.56322 176.111 1.29554 177.414 2.59865C178.717 3.90176 179.449 5.669 179.45 7.51188C179.45 9.35476 178.718 11.1222 177.415 12.4257C176.113 13.7292 174.346 14.4621 172.503 14.4632H172.492Z" fill="#000D19"/>
<path d="M168.112 7.38311C168.097 8.28888 168.359 9.17766 168.862 9.93078C169.365 10.6839 170.087 11.2655 170.929 11.5979V3.42993C170.124 3.7405 169.428 4.28069 168.927 4.98347C168.426 5.68625 168.143 6.52066 168.112 7.38311Z" fill="#000D19"/>
<path d="M174.062 3.42993V11.5979C174.905 11.2655 175.626 10.6839 176.13 9.93078C176.633 9.17766 176.895 8.28888 176.88 7.38311C176.849 6.52066 176.566 5.68625 176.065 4.98347C175.564 4.28069 174.868 3.7405 174.062 3.42993Z" fill="#000D19"/>
<path d="M155.834 21.9438C156.131 21.7798 156.054 21.3396 156.054 21.3396V17.5173C156.042 17.102 155.901 17.0563 155.901 17.0563C155.863 16.9297 155.342 16.8882 155.342 16.8882V16.6992H157.807C160.85 16.8882 160.825 19.4689 160.825 19.4689C160.649 22.3757 157.771 22.2408 157.771 22.2408H155.338V22.0331C155.766 22.0394 155.834 21.9438 155.834 21.9438ZM156.854 17.0086V21.3542C156.845 21.4368 156.854 21.5203 156.879 21.5992C156.905 21.6781 156.947 21.7507 157.003 21.8121C157.059 21.8735 157.128 21.9224 157.204 21.9555C157.28 21.9886 157.362 22.0051 157.445 22.0041C157.445 22.0041 159.991 22.2989 159.949 19.3278C159.945 18.8753 159.812 18.4334 159.566 18.0539C159.319 17.6744 158.97 17.373 158.558 17.1851C158.022 16.9498 157.426 16.8881 156.854 17.0086Z" fill="#000D19"/>
<path d="M162.332 17.0023C162.332 16.9026 162.292 16.807 162.222 16.7365C162.151 16.6661 162.056 16.6265 161.956 16.6265C161.856 16.6265 161.761 16.6661 161.69 16.7365C161.62 16.807 161.58 16.9026 161.58 17.0023C161.58 17.1019 161.62 17.1975 161.69 17.268C161.761 17.3385 161.856 17.3781 161.956 17.3781C162.056 17.3781 162.151 17.3385 162.222 17.268C162.292 17.1975 162.332 17.1019 162.332 17.0023Z" fill="#000D19"/>
<path d="M161.214 18.9583L162.098 18.6531C162.098 18.6531 162.281 18.5264 162.27 18.8067V21.7778C162.27 21.7778 162.256 22.054 162.501 22.054H162.802V22.247H161.104V22.0602H161.438C161.499 22.0449 161.552 22.0075 161.587 21.9554C161.622 21.9032 161.636 21.8399 161.627 21.7778V19.5437C161.615 19.433 161.569 19.3289 161.494 19.2464C161.42 19.1638 161.32 19.1073 161.211 19.0849L161.214 18.9583Z" fill="#000D19"/>
<path d="M163.093 19.0081V19.1514C163.093 19.1514 163.575 19.2843 163.544 19.5936V21.7945C163.549 21.855 163.53 21.9151 163.491 21.9617C163.452 22.0084 163.396 22.0378 163.336 22.0436H163.039V22.2512H164.721V22.0561H164.428C164.428 22.0561 164.177 22.0415 164.177 21.8194V19.4358C164.177 19.4358 164.8 19.0019 165.203 19.06C165.369 19.0625 165.528 19.1284 165.647 19.2441C165.766 19.3599 165.837 19.5169 165.844 19.6829V21.7903C165.844 21.7903 165.844 22.0519 165.607 22.0582H165.315V22.2533H167.017V22.0457H166.741C166.71 22.0491 166.679 22.0465 166.65 22.038C166.62 22.0294 166.592 22.015 166.568 21.9958C166.544 21.9765 166.524 21.9526 166.509 21.9255C166.494 21.8985 166.485 21.8688 166.481 21.8381C166.477 21.8196 166.477 21.8005 166.481 21.782V19.7203C166.481 19.7203 166.527 18.6822 165.699 18.6199C165.699 18.6199 165.061 18.4745 164.196 19.2074V18.6074C164.196 18.6074 163.193 18.9853 163.093 19.0081Z" fill="#000D19"/>
<path d="M167.964 21.4642C168.058 21.5946 168.181 21.702 168.323 21.7782C168.465 21.8545 168.623 21.8976 168.784 21.9044C169.359 21.9044 169.88 21.3604 169.88 21.3604L169.992 21.4788C169.249 22.4899 168.489 22.3715 168.489 22.3715C166.71 22.3321 167.023 20.2081 167.023 20.2081C167.299 18.5471 168.651 18.6052 168.651 18.6052C169.986 18.7236 169.955 19.8925 169.955 19.8925C169.978 20.0669 169.789 20.0669 169.789 20.0669H167.627C167.576 21.0344 167.964 21.4642 167.964 21.4642ZM167.663 19.8032H169.039C169.098 19.8066 169.156 19.7868 169.2 19.7479C169.244 19.7091 169.272 19.6543 169.276 19.5956C169.278 19.5742 169.278 19.5526 169.276 19.5312C169.262 19.3488 169.179 19.1784 169.044 19.0549C168.909 18.9315 168.732 18.8642 168.549 18.8668C168.311 18.8858 168.089 18.9926 167.925 19.1664C167.761 19.3402 167.668 19.5686 167.663 19.8074V19.8032Z" fill="#000D19"/>
<path d="M170.312 19.0787V19.1908C170.312 19.1908 170.728 19.332 170.728 19.5064V21.8339C170.728 21.8339 170.711 22.0415 170.52 22.0415H170.117V22.2491H172.171V22.0415H171.585C171.585 22.0415 171.326 22.0643 171.357 21.7342V19.8947C171.358 19.7443 171.413 19.5994 171.511 19.4854C171.609 19.3714 171.744 19.2958 171.892 19.2718C171.892 19.2718 172.036 19.2157 172.239 19.3964C172.239 19.3964 172.706 19.6476 172.833 19.0808C172.842 18.9963 172.824 18.9112 172.783 18.8369C172.742 18.7627 172.679 18.7029 172.602 18.6655C172.485 18.6152 172.355 18.6004 172.229 18.6229C172.102 18.6454 171.986 18.7042 171.892 18.7922C171.673 18.9699 171.489 19.1867 171.348 19.4317V18.7216C171.348 18.7216 171.348 18.514 171.159 18.6551C171.166 18.6593 170.373 19.0558 170.312 19.0787Z" fill="#000D19"/>
<path d="M175.101 19.6725H175.29L175.242 18.8731C175.242 18.8731 174.47 18.3727 173.712 18.7485C173.534 18.8308 173.381 18.9604 173.271 19.1234C173.161 19.2863 173.098 19.4762 173.089 19.6725C173.085 19.8599 173.135 20.0445 173.233 20.2041C173.332 20.3636 173.474 20.4913 173.643 20.5715L174.322 20.8954C174.322 20.8954 174.898 21.1383 174.833 21.5971C174.826 21.6741 174.804 21.7488 174.768 21.8169C174.731 21.8851 174.682 21.9452 174.622 21.9938C174.562 22.0424 174.492 22.0785 174.418 22.0998C174.344 22.1212 174.266 22.1275 174.19 22.1183C174.19 22.1183 173.382 22.1494 173.201 21.1632L173.035 21.1944L173.129 22.1183C173.431 22.2772 173.765 22.3652 174.107 22.3757C174.107 22.3757 175.473 22.4339 175.473 21.2338C175.473 21.2338 175.529 20.6421 174.779 20.3348L173.969 19.9486C173.864 19.8885 173.777 19.8002 173.718 19.6935C173.659 19.5868 173.631 19.466 173.637 19.3444C173.637 19.3444 173.691 18.842 174.331 18.8731C174.537 18.8826 174.732 18.9708 174.875 19.1195C175.018 19.2681 175.099 19.466 175.101 19.6725Z" fill="#000D19"/>
<path d="M182.444 18.1566H182.652L182.587 17.0126C182.587 17.0126 180.679 16.0721 179.195 16.9649C179.195 16.9649 177.656 17.6749 177.679 19.4273C177.679 19.4273 177.544 21.0758 179.029 21.9603C179.029 21.9603 180.442 22.8926 182.477 21.9603L182.652 20.7914L182.477 20.7436C182.477 20.7436 182.251 22.0475 180.891 22.1223C180.528 22.1146 180.171 22.0195 179.853 21.8449C179.534 21.6703 179.262 21.4215 179.06 21.1194C178.657 20.568 178.462 19.8925 178.507 19.2114C178.507 19.2114 178.507 17.7954 179.558 17.1912C179.934 16.9506 180.375 16.8317 180.82 16.8507C180.82 16.8507 182.247 16.7676 182.444 18.1566Z" fill="#000D19"/>
<path d="M183.045 16.6182V16.7282C183.166 16.7373 183.278 16.7936 183.358 16.8849C183.437 16.9762 183.478 17.0952 183.47 17.2162V21.8026C183.472 21.86 183.451 21.9157 183.412 21.9582C183.374 22.0007 183.32 22.0268 183.263 22.031H182.947V22.2531H184.644V22.0455H184.343C184.343 22.0455 184.1 22.0601 184.1 21.7694V16.3088C184.1 16.3088 184.122 16.1012 183.973 16.2196C183.969 16.2133 183.416 16.4832 183.045 16.6182Z" fill="#000D19"/>
<path d="M184.639 18.7942L185.592 18.7402C185.592 18.7402 185.783 18.6779 185.75 18.9063V21.1154C185.75 21.1154 185.665 21.9459 186.429 21.9459C186.429 21.9459 186.778 21.9688 187.417 21.4455V19.3008C187.417 19.3008 187.353 19.1201 186.738 18.9997V18.8669L187.863 18.763C187.863 18.763 188.046 18.6613 188.046 18.8897V21.7964C188.046 21.7964 187.99 21.9854 188.235 21.9688H188.574V22.1349C188.574 22.1349 187.573 22.3155 187.413 22.3861L187.39 22.3425V21.7425C187.39 21.7425 186.545 22.4837 185.937 22.3861C185.937 22.3861 185.123 22.3861 185.106 21.458V19.2821C185.106 19.2821 185.09 18.9561 184.633 18.9561L184.639 18.7942Z" fill="#000D19"/>
<path d="M189.043 22.2925L188.869 22.197C188.946 21.7616 188.987 21.3207 188.993 20.8786V17.1704C188.985 17.0631 188.938 16.9624 188.862 16.8863C188.786 16.8102 188.685 16.7637 188.578 16.7552V16.5828C188.89 16.4933 189.191 16.3708 189.477 16.2174C189.477 16.2174 189.62 16.0928 189.627 16.3441V19.1657C189.627 19.1657 190.598 18.2044 191.545 18.8106C191.782 18.9695 191.975 19.1865 192.105 19.4409C192.235 19.6953 192.297 19.9787 192.286 20.264C192.286 20.264 192.286 22.251 190.395 22.3735C190.395 22.3735 189.699 22.3859 189.28 22.087L189.043 22.2925ZM189.618 19.4356V21.3042C189.618 21.3042 189.67 22.1347 190.432 22.1493C190.432 22.1493 191.56 22.2801 191.647 20.6191C191.647 20.6191 191.624 19.2134 190.401 19.0473C190.401 19.0473 190.067 18.9767 189.625 19.4231L189.618 19.4356Z" fill="#000D19"/>
<path d="M155.303 23.9727H156.652V24.1305H156.478C156.425 24.1336 156.375 24.1569 156.339 24.1955C156.303 24.2341 156.283 24.2851 156.283 24.3381V26.622C156.275 26.6686 156.286 26.7164 156.314 26.7551C156.341 26.7938 156.382 26.8205 156.428 26.8296H156.463H156.652V27.0019H155.303V26.8379H155.492C155.546 26.8326 155.595 26.8064 155.63 26.7649C155.665 26.7234 155.683 26.6698 155.679 26.6157V24.3049C155.679 24.3049 155.639 24.0972 155.481 24.1221H155.303V23.9727Z" fill="#000D19"/>
<path d="M178.593 23.9724H179.943V24.1302H179.768C179.713 24.1302 179.66 24.1521 179.621 24.191C179.582 24.2299 179.561 24.2828 179.561 24.3378V26.6217C179.554 26.6683 179.565 26.7158 179.592 26.7544C179.619 26.793 179.66 26.8198 179.706 26.8293H179.743H179.932V27.0017H178.583V26.8376H178.772C178.826 26.8329 178.876 26.8069 178.912 26.7653C178.947 26.7237 178.965 26.6699 178.961 26.6155V24.3046C178.961 24.3046 178.921 24.097 178.753 24.1219H178.572L178.593 23.9724Z" fill="#000D19"/>
<path d="M156.778 23.9722H157.681L159.599 26.1024V24.4726C159.6 24.3991 159.576 24.3276 159.53 24.2701C159.484 24.2126 159.42 24.1727 159.348 24.157H159.141V23.9763H160.316V24.1507H160.152C160.152 24.1507 159.892 24.1175 159.861 24.5141V26.7315C159.847 26.8571 159.855 26.9843 159.884 27.1073H159.676L157.48 24.6594V26.4678C157.48 26.4678 157.44 26.8436 157.716 26.854H157.961V27.0263H156.77V26.8623H156.942C156.942 26.8623 157.193 26.8623 157.226 26.4678V24.4933C157.216 24.4158 157.183 24.343 157.133 24.2831C157.083 24.2232 157.016 24.1788 156.942 24.1549H156.77L156.778 23.9722Z" fill="#000D19"/>
<path d="M169.275 23.9722H170.174L172.093 26.1024V24.4726C172.094 24.3994 172.069 24.3281 172.024 24.2707C171.979 24.2132 171.915 24.1731 171.844 24.157H171.636V23.9763H172.811V24.1507H172.662C172.662 24.1507 172.402 24.1175 172.371 24.5141V26.7315C172.356 26.8571 172.363 26.9845 172.394 27.1073H172.186L169.992 24.6677V26.4761C169.992 26.4761 169.952 26.8519 170.228 26.8623H170.473V27.0346H169.288V26.8706H169.462C169.462 26.8706 169.713 26.8706 169.747 26.4761V24.4933C169.736 24.4158 169.704 24.343 169.653 24.2831C169.603 24.2232 169.537 24.1788 169.462 24.1549H169.288L169.275 23.9722Z" fill="#000D19"/>
<path d="M183.393 23.9722H184.292L186.21 26.1024V24.4726C186.211 24.3994 186.187 24.3281 186.141 24.2707C186.096 24.2132 186.032 24.1731 185.961 24.157H185.753V23.9763H186.928V24.1507H186.777C186.777 24.1507 186.517 24.1175 186.484 24.5141V26.7315C186.469 26.8572 186.478 26.9846 186.509 27.1073H186.301L184.109 24.6594V26.4678C184.109 26.4678 184.069 26.8436 184.346 26.854H184.595V27.0263H183.407V26.8623H183.582C183.582 26.8623 183.827 26.8623 183.864 26.4678V24.4933C183.854 24.414 183.821 24.3392 183.769 24.2781C183.718 24.2169 183.65 24.172 183.573 24.1486H183.407L183.393 23.9722Z" fill="#000D19"/>
<path d="M160.458 23.8458C160.453 24.1034 160.423 24.3599 160.369 24.612H160.552C160.552 24.612 160.537 24.1967 160.876 24.2299H161.617V26.4827C161.617 26.4827 161.673 26.8149 161.436 26.8585H161.175V27.0246H162.645V26.8481H162.447C162.447 26.8481 162.18 26.8481 162.211 26.4723V24.2175H162.906C162.906 24.2175 163.182 24.1635 163.205 24.6327L163.371 24.5684C163.371 24.5684 163.371 24.205 163.419 23.8354C163.419 23.8354 163.315 23.8666 163.295 23.8354C163.282 23.8686 163.261 23.8977 163.233 23.9196C163.205 23.9416 163.172 23.9555 163.137 23.96H160.743C160.706 23.9577 160.671 23.9447 160.641 23.9226C160.612 23.9005 160.589 23.8702 160.577 23.8354L160.458 23.8458Z" fill="#000D19"/>
<path d="M175.491 23.8458C175.485 24.1033 175.456 24.3597 175.404 24.612H175.589C175.589 24.612 175.572 24.1967 175.913 24.2299H176.654V26.4827C176.654 26.4827 176.708 26.8149 176.471 26.8585H176.214V27.0246H177.69V26.8481H177.483C177.483 26.8481 177.215 26.8481 177.246 26.4723V24.2175H177.941C177.941 24.2175 178.218 24.1635 178.24 24.6327L178.407 24.5684C178.407 24.5684 178.407 24.205 178.454 23.8354C178.454 23.8354 178.351 23.8666 178.33 23.8354C178.317 23.8686 178.296 23.8977 178.268 23.9196C178.24 23.9416 178.207 23.9555 178.172 23.96H175.79C175.754 23.958 175.718 23.9451 175.689 23.9229C175.659 23.9008 175.637 23.8703 175.624 23.8354L175.491 23.8458Z" fill="#000D19"/>
<path d="M163.518 23.9722H165.735C165.735 23.9722 165.735 24.4082 165.777 24.6594L165.594 24.7155C165.594 24.7155 165.619 24.186 165.199 24.2151H164.512V25.2968H165.029C165.029 25.2968 165.31 25.328 165.334 24.9335L165.484 24.9168C165.46 25.2583 165.46 25.601 165.484 25.9425L165.318 25.9986C165.318 25.9986 165.343 25.5335 165.021 25.5397H164.512V26.5114C164.501 26.5741 164.514 26.6389 164.55 26.6918C164.586 26.7446 164.641 26.7812 164.703 26.7938C164.729 26.7969 164.755 26.7969 164.78 26.7938H165.295C165.438 26.7958 165.578 26.7444 165.685 26.6497C165.793 26.5549 165.862 26.4235 165.878 26.281L166.045 26.3204C166.045 26.3204 165.91 26.8727 165.887 27.0305H163.526V26.8561H163.723C163.723 26.8561 163.914 26.8561 163.931 26.6194V24.3667C163.931 24.3667 163.908 24.1445 163.723 24.159H163.516L163.518 23.9722Z" fill="#000D19"/>
<path d="M166.174 23.9723H167.658C167.658 23.9723 168.63 23.9245 168.63 24.6989C168.63 24.6989 168.715 25.2907 168.022 25.5294L168.794 26.6506C168.794 26.6506 168.85 26.8396 169.17 26.8583V27.016H168.323L167.438 25.6208H167.177V26.5904C167.174 26.6456 167.19 26.7 167.222 26.7453C167.253 26.7907 167.299 26.8245 167.351 26.8416H167.602V27.014H166.174V26.8479H166.365C166.419 26.8384 166.468 26.8119 166.505 26.7722C166.543 26.7326 166.566 26.6819 166.572 26.6278V24.3626C166.572 24.3626 166.533 24.155 166.375 24.155H166.174V23.9723ZM167.16 24.1799V25.4505H167.444C167.593 25.4505 167.735 25.3917 167.839 25.287C167.944 25.1822 168.003 25.0401 168.003 24.892C168.005 24.8671 168.005 24.8422 168.003 24.8173C168.014 24.676 167.974 24.5354 167.89 24.421C167.806 24.3067 167.684 24.2263 167.546 24.1944L167.16 24.1799Z" fill="#000D19"/>
<path d="M192.205 24.0659H192.456C192.456 24.0659 192.616 24.0659 192.616 24.1843C192.618 24.2154 192.609 24.2462 192.59 24.2713C192.572 24.2963 192.545 24.314 192.515 24.3213L192.641 24.5061C192.641 24.5061 192.641 24.5372 192.701 24.5414V24.5663H192.562L192.417 24.3379H192.367V24.4957C192.367 24.5049 192.369 24.5139 192.375 24.5214C192.38 24.5289 192.387 24.5345 192.396 24.5372H192.438V24.5663H192.203V24.5372H192.243C192.251 24.5363 192.26 24.5322 192.266 24.5257C192.272 24.5192 192.275 24.5108 192.276 24.5019V24.1261C192.276 24.1261 192.276 24.0929 192.245 24.0929H192.211L192.205 24.0659ZM192.369 24.0991V24.3068H192.415C192.427 24.3071 192.439 24.3049 192.45 24.3004C192.461 24.2959 192.472 24.2892 192.48 24.2806C192.489 24.2721 192.495 24.2619 192.5 24.2507C192.504 24.2395 192.507 24.2275 192.506 24.2154V24.203C192.508 24.1794 192.501 24.156 192.487 24.1369C192.473 24.1179 192.452 24.1045 192.429 24.0991H192.369Z" fill="#000D19"/>
<path d="M172.736 27.0267V26.8689H172.84C172.907 26.8538 172.968 26.822 173.019 26.7766C173.07 26.7312 173.108 26.6737 173.131 26.6094L174.007 24.068L174.354 23.9019C174.363 23.8927 174.374 23.8854 174.386 23.8804C174.398 23.8754 174.41 23.8728 174.423 23.8728C174.436 23.8728 174.449 23.8754 174.461 23.8804C174.473 23.8854 174.484 23.8927 174.493 23.9019C174.502 23.911 174.509 23.9217 174.513 23.9335C174.518 23.9452 174.52 23.9578 174.52 23.9705L175.469 26.6696C175.495 26.7332 175.542 26.7866 175.601 26.8217C175.661 26.8569 175.73 26.8719 175.799 26.8647V27.0225H174.512V26.8585H174.663C174.663 26.8585 174.871 26.8419 174.837 26.6841L174.586 25.9657H173.631L173.424 26.6364C173.414 26.6511 173.407 26.6675 173.404 26.6848C173.401 26.7021 173.401 26.7198 173.405 26.737C173.408 26.7542 173.415 26.7705 173.425 26.7849C173.435 26.7994 173.448 26.8117 173.463 26.8211C173.491 26.8392 173.525 26.8466 173.559 26.8419H173.766V27.0225L172.736 27.0267ZM173.725 25.6771H174.478L174.103 24.5331L173.725 25.6771Z" fill="#000D19"/>
<path d="M186.875 27.0265V26.8687H186.983C187.049 26.8535 187.111 26.8218 187.162 26.7764C187.213 26.731 187.251 26.6734 187.274 26.6091L188.152 24.0678L188.499 23.9017C188.508 23.8925 188.519 23.8851 188.53 23.8801C188.542 23.8751 188.555 23.8726 188.568 23.8726C188.581 23.8726 188.594 23.8751 188.606 23.8801C188.618 23.8851 188.629 23.8925 188.638 23.9017C188.655 23.9197 188.664 23.9434 188.665 23.9681L189.612 26.6673C189.639 26.7309 189.686 26.7841 189.746 26.8192C189.805 26.8543 189.875 26.8694 189.944 26.8624V27.0202H188.65V26.8562H188.804C188.804 26.8562 189.011 26.8396 188.976 26.6818L188.727 25.9634H187.766L187.558 26.634C187.549 26.6491 187.542 26.666 187.539 26.6836C187.536 26.7012 187.537 26.7192 187.541 26.7366C187.545 26.754 187.552 26.7704 187.563 26.7848C187.573 26.7993 187.586 26.8116 187.602 26.8209C187.629 26.8373 187.661 26.8439 187.693 26.8396H187.901V27.0202L186.875 27.0265ZM187.859 25.6769H188.611L188.235 24.5329L187.859 25.6769Z" fill="#000D19"/>
<path d="M181.69 27.0996C181.267 27.0813 180.869 26.8961 180.583 26.5847C180.297 26.2733 180.146 25.8611 180.163 25.4386C180.172 25.2293 180.222 25.0239 180.31 24.8339C180.399 24.6439 180.524 24.4732 180.678 24.3315C180.832 24.1898 181.013 24.0798 181.209 24.0079C181.406 23.9361 181.615 23.9037 181.824 23.9126C182.236 23.9302 182.624 24.1059 182.909 24.403C183.193 24.7001 183.352 25.0957 183.353 25.5072C183.348 25.7209 183.302 25.9318 183.216 26.1276C183.13 26.3234 183.007 26.5005 182.852 26.6485C182.698 26.7966 182.516 26.9129 182.317 26.9906C182.118 27.0684 181.905 27.1061 181.692 27.1017L181.69 27.0996ZM180.687 25.3618C180.703 26.9003 181.754 26.8775 181.754 26.8775C182.842 26.8214 182.684 25.4365 182.684 25.4365C182.618 24.143 181.619 24.1244 181.619 24.1244C180.597 24.2178 180.685 25.3701 180.685 25.3701L180.687 25.3618Z" fill="#000D19"/>
<path d="M190.037 23.9722H191.414V24.13H191.239C191.239 24.13 190.99 24.1071 191.011 24.3376V26.555C191.005 26.5852 191.007 26.6163 191.015 26.646C191.022 26.6757 191.037 26.7032 191.057 26.7267C191.077 26.7501 191.101 26.7688 191.129 26.7815C191.157 26.7942 191.188 26.8005 191.218 26.8C191.218 26.8 192.238 27.0284 192.346 26.2643H192.512L192.36 27.0284H190.037V26.8706H190.195C190.195 26.8706 190.384 26.8706 190.432 26.6277V24.3729C190.432 24.3729 190.415 24.1653 190.234 24.1528H190.037V23.9722Z" fill="#000D19"/>
<path d="M192.449 24.7387C192.68 24.7387 192.868 24.5509 192.868 24.3193C192.868 24.0877 192.68 23.8999 192.449 23.8999C192.217 23.8999 192.029 24.0877 192.029 24.3193C192.029 24.5509 192.217 24.7387 192.449 24.7387Z" fill="#000D19"/>
<path d="M140.881 17.2746V3.88281H103.535V23.221H140.881V18.9917C141.035 18.7324 141.112 18.4339 141.101 18.1321C141.121 17.8302 141.043 17.5298 140.881 17.2746ZM114.928 12.003H113.852V8.57722L112.336 11.9947H111.423L109.907 8.57722V11.9968H107.789L107.389 11.0231H105.215L104.81 11.9968H103.799V11.7165L105.551 7.6346H107.094L108.867 11.7663V7.6346H110.567L111.932 10.5933L113.177 7.6346H114.913L114.928 12.003ZM103.807 22.9573V12.8585H105.456L105.856 11.8888H106.755L107.156 12.8585H110.663V12.1172L110.976 12.8626H112.791L113.105 12.111V12.8626H121.812V11.2763H121.983C122.099 11.2763 122.134 11.2909 122.134 11.484V12.8605H126.642V12.4847C127.16 12.7441 127.734 12.8731 128.313 12.8605H130.209L130.614 11.8909H131.5L131.897 12.8605H135.549V11.9407L136.101 12.8605H139.027V6.77919H136.12V7.49756L135.705 6.77919H132.746V7.49756L132.37 6.77919H128.365C127.765 6.75076 127.167 6.87279 126.625 7.13422V6.77919H123.855V7.12384C123.521 6.86369 123.101 6.73716 122.678 6.7688H112.561L111.882 8.33844L111.184 6.7688H107.997V7.48719L107.646 6.7688H104.924L103.797 9.35789V4.14442H140.613V14.2786H138.817C138.355 14.2566 137.899 14.3817 137.513 14.6357V14.2786H134.658C134.203 14.2786 133.666 14.3928 133.412 14.6357V14.2786H128.324V14.6357C127.908 14.343 127.234 14.2786 126.918 14.2786H123.55V14.6357C123.23 14.3243 122.512 14.2786 122.082 14.2786H118.324L117.465 15.2108L116.659 14.2786H111.035V20.3641H116.551L117.438 19.4194L118.268 20.3641H121.667V18.9356H121.999C122.493 18.9686 122.988 18.8979 123.453 18.728V20.3683H126.258V18.7841H126.395C126.567 18.7841 126.584 18.7841 126.584 18.9626V20.3683H135.096C135.638 20.3683 136.203 20.2312 136.516 19.98V20.3683H139.216C139.691 20.3815 140.164 20.3054 140.611 20.144V22.9615L103.807 22.9573ZM119.128 9.33506V10.2382H116.748V11.1082H119.188V12.0113H115.704V7.6512H119.188V8.55853H116.748V9.34542L119.128 9.33506ZM123.878 10.3462C124.024 10.5538 124.051 10.7614 124.051 11.1455V12.003H122.988V11.4528C122.988 11.1891 123.012 10.8133 122.824 10.6016C122.668 10.45 122.442 10.4209 122.066 10.4209H120.938V12.0072H119.9V7.64706H122.296C122.83 7.64706 123.222 7.66159 123.559 7.85469C123.731 7.94692 123.872 8.08736 123.966 8.25884C124.06 8.43031 124.101 8.62536 124.086 8.82014C124.094 9.06524 124.028 9.3071 123.897 9.5144C123.766 9.72169 123.576 9.88488 123.351 9.98285C123.553 10.0562 123.732 10.1815 123.87 10.3462H123.878ZM124.709 12.0072V7.64706H125.774V12.0072H124.709ZM127.634 10.8486C127.837 11.0168 128.098 11.0982 128.361 11.075H128.83L130.298 7.64498H131.861L133.626 11.7705V7.64498H135.213L137.044 10.6825V7.64498H138.109V12.0051H136.631L134.656 8.73086V12.0051H132.528L132.113 11.0313H129.951L129.559 12.0051H128.34C127.831 12.0051 127.19 11.8909 126.829 11.5234C126.467 11.1559 126.27 10.6452 126.27 9.86241C126.27 9.21669 126.384 8.61666 126.833 8.15781C127.169 7.809 127.699 7.64914 128.415 7.64914H129.424V8.58345H128.438C128.062 8.58345 127.842 8.64159 127.636 8.84298C127.417 9.1236 127.309 9.4759 127.335 9.83128C127.335 10.2881 127.427 10.6348 127.622 10.8528L127.634 10.8486ZM135.698 17.8975C135.59 17.8195 135.456 17.7847 135.323 17.7999C134.349 17.7667 133.128 17.829 133.128 16.4504C133.128 15.8171 133.525 15.1506 134.617 15.1506H136.691V16.0808H134.779C134.636 16.0628 134.49 16.0896 134.363 16.1576C134.324 16.1852 134.29 16.2203 134.264 16.261C134.238 16.3016 134.221 16.3469 134.212 16.3944C134.204 16.4419 134.205 16.4905 134.216 16.5376C134.226 16.5846 134.246 16.629 134.274 16.6684C134.314 16.7259 134.369 16.7707 134.434 16.7971C134.569 16.8373 134.709 16.8541 134.849 16.8469L135.41 16.8615C135.975 16.876 136.363 16.9736 136.599 17.2123C136.709 17.3364 136.792 17.4817 136.844 17.6392C136.895 17.7967 136.914 17.963 136.898 18.128C136.898 19.0664 136.311 19.5045 135.26 19.5045H133.23V18.5681H135.252C135.399 18.584 135.547 18.5456 135.667 18.4602C135.707 18.4244 135.738 18.3808 135.76 18.3322C135.782 18.2836 135.793 18.2311 135.794 18.1778C135.794 18.1231 135.782 18.0691 135.76 18.0193C135.737 17.9695 135.704 17.9252 135.663 17.8892L135.698 17.8975ZM132.567 16.8469V17.7356H130.188V18.6035H132.63V19.5066H129.133V15.1465H132.611V16.0517H130.171V16.8469H132.567ZM128.342 17.8477C128.49 18.0553 128.51 18.2629 128.515 18.645V19.5087H127.464V18.9585C127.464 18.6969 127.489 18.3086 127.296 18.1051C127.144 17.9494 126.912 17.912 126.532 17.912H125.417V19.5045H124.379V15.1444H126.783C127.312 15.1444 127.697 15.1693 128.029 15.352C128.202 15.4446 128.345 15.5855 128.44 15.7576C128.535 15.9296 128.578 16.1256 128.564 16.3217C128.572 16.5668 128.506 16.8086 128.375 17.0156C128.243 17.2226 128.053 17.3852 127.827 17.4823C128.03 17.5536 128.208 17.6802 128.342 17.8477ZM123.885 16.5853C123.885 17.7958 122.981 18.0387 122.07 18.0387H120.766V19.4921H118.74L117.456 18.0387L116.123 19.4817H111.983V15.1216H116.173L117.456 16.5521L118.783 15.1216H122.105C122.936 15.1216 123.866 15.352 123.866 16.5604L123.885 16.5853ZM140.656 18.8692L140.634 18.9045V19.0976C140.358 19.3654 139.917 19.5129 139.351 19.5129H137.314V18.5806H139.317C139.464 18.5987 139.613 18.5601 139.733 18.4726C139.772 18.4372 139.804 18.3937 139.826 18.345C139.848 18.2963 139.859 18.2436 139.859 18.1903C139.862 18.1357 139.852 18.0812 139.83 18.0311C139.808 17.9811 139.774 17.9368 139.733 17.9017C139.627 17.8247 139.497 17.7899 139.367 17.8041C138.387 17.7709 137.166 17.8331 137.166 16.4545C137.166 15.8213 137.569 15.1548 138.661 15.1548H140.607V16.0829H138.834C138.69 16.0678 138.546 16.0953 138.418 16.1618C138.367 16.1957 138.326 16.2427 138.3 16.2978C138.273 16.353 138.262 16.4143 138.267 16.4753C138.265 16.5469 138.286 16.6173 138.327 16.676C138.368 16.7347 138.427 16.7786 138.495 16.8013C138.626 16.8406 138.762 16.8575 138.898 16.8511L139.463 16.8656C140.007 16.8802 140.374 16.9694 140.609 17.1854V17.3681L140.636 17.4034C140.784 17.6147 140.857 17.87 140.843 18.128C140.856 18.3896 140.789 18.649 140.65 18.8713L140.656 18.8692Z" fill="#000D19"/>
<path d="M105.586 10.1217H107.008L106.296 8.38184L105.586 10.1217Z" fill="#000D19"/>
<path d="M131.037 8.38184L130.318 10.1217H131.757L131.037 8.38184Z" fill="#000D19"/>
<path d="M122.721 8.62672C122.564 8.56253 122.395 8.53552 122.227 8.54782H120.939V9.51744H122.206C122.383 9.53602 122.561 9.50509 122.721 9.42815C122.79 9.3848 122.847 9.32308 122.883 9.24979C122.92 9.17651 122.936 9.09453 122.929 9.0129C122.935 8.93531 122.919 8.85748 122.882 8.7889C122.845 8.72031 122.789 8.66395 122.721 8.62672Z" fill="#000D19"/>
<path d="M127.186 16.1263C127.028 16.0598 126.856 16.0334 126.685 16.0495H125.406V17.0295H126.673C126.849 17.0443 127.026 17.0128 127.186 16.9381C127.254 16.8933 127.309 16.8313 127.345 16.7584C127.382 16.6855 127.398 16.6043 127.393 16.5229C127.4 16.4439 127.384 16.3645 127.347 16.2942C127.311 16.224 127.254 16.1657 127.186 16.1263Z" fill="#000D19"/>
<path d="M122.114 16.0518H120.754V17.1605H122.101C122.502 17.1605 122.751 16.9632 122.751 16.5874C122.751 16.2116 122.49 16.0518 122.114 16.0518Z" fill="#000D19"/>
<path d="M119.716 19.1121V15.6157L118.115 17.3369L119.716 19.1121Z" fill="#000D19"/>
<path d="M113.02 16.0498V16.8429H115.308V17.7316H113.02V18.5994H115.582L116.773 17.3205L115.634 16.0498H113.02Z" fill="#000D19"/>
<path d="M71.1965 11.3592C71.1758 13.0513 72.6997 13.9898 73.8541 14.5545C75.0085 15.1193 75.4342 15.4992 75.4279 16.0079C75.4279 16.7948 74.4853 17.1436 73.6112 17.156C72.5271 17.1786 71.4552 16.9242 70.4968 16.4169L69.9466 18.9873C70.6546 19.3133 71.9648 19.5957 73.3288 19.6102C76.5159 19.6102 78.6005 18.0364 78.6129 15.5968C78.6254 12.5011 74.3296 12.3288 74.3545 10.946C74.3545 10.5307 74.7698 10.0781 75.6439 9.96392C76.6703 9.86597 77.7041 10.0475 78.6358 10.4892L79.1693 7.9977C78.261 7.65694 77.2992 7.48047 76.329 7.47656C73.3247 7.47656 71.2173 9.0732 71.1965 11.3592ZM84.2915 7.69457C84.0146 7.69216 83.7435 7.77304 83.5132 7.92669C83.2829 8.08034 83.1041 8.29968 83 8.55622L78.4489 19.4254H81.6359L82.2588 17.671H86.1518L86.5193 19.4254H89.3264L86.8764 7.69041H84.2852L84.2915 7.69457ZM84.7295 10.8609L85.6493 15.2667H83.1329L84.7295 10.8609ZM67.343 7.69872L64.8328 19.4337H67.8704L70.3743 7.69872H67.343ZM62.8541 7.69872L59.692 15.6819L58.4151 8.89257C58.3622 8.55899 58.192 8.25525 57.935 8.03601C57.6781 7.81677 57.3514 7.69643 57.0136 7.69664H51.85L51.7773 8.03715C52.8383 8.26762 54.0425 8.63926 54.7734 9.03997C55.2177 9.28082 55.3464 9.49467 55.4918 10.0781L57.9127 19.442H61.1142L66.0308 7.70702H62.8458" fill="#000D19"/>
<path d="M36.4574 20.7437V20.3679H36.609V20.2932H36.2249V20.3679H36.3764V20.7437H36.4574ZM37.209 20.7437V20.2932H37.0927L36.9557 20.6025L36.8145 20.2932H36.6982V20.7437H36.7792V20.4115L36.9059 20.7043H36.991L37.1176 20.4115V20.752L37.209 20.7437ZM17.7545 22.9882C17.8459 23.0671 17.9414 23.1418 18.0348 23.2186C15.4709 24.9228 12.3351 25.5387 9.31707 24.9309C6.29907 24.3231 3.6461 22.5414 1.94176 19.9776C1.09761 18.708 0.511814 17.2846 0.217838 15.7886C-0.0761383 14.2926 -0.0725336 12.7533 0.228432 11.2587C0.529397 9.76409 1.12183 8.3434 1.97191 7.07778C2.82198 5.81215 3.91305 4.72639 5.18279 3.88247C7.08671 2.61627 9.32227 1.94076 11.6088 1.94076C13.8953 1.94076 16.1309 2.61627 18.0348 3.88247C17.9414 3.95929 17.8459 4.03404 17.7545 4.11293C15.2518 6.28621 13.7147 9.36445 13.4811 12.6708C13.2475 15.9771 14.3365 19.2409 16.5087 21.7445C16.8954 22.1874 17.3116 22.6036 17.7545 22.9902V22.9882ZM25.9578 1.93287C23.6716 1.93043 21.4361 2.606 19.5338 3.87416C19.6294 3.95098 19.7249 4.02574 19.8162 4.10463C21.056 5.18061 22.0716 6.49025 22.8052 7.95878C23.5387 9.42731 23.9758 11.0259 24.0915 12.6634C24.2072 14.3009 23.9992 15.9451 23.4794 17.5022C22.9596 19.0592 22.1381 20.4987 21.062 21.7382C20.6766 22.1823 20.2603 22.5986 19.8162 22.984C19.7249 23.0629 19.6294 23.1376 19.5338 23.2145C22.0981 24.9188 25.2342 25.5347 28.2526 24.9269C31.2709 24.3191 33.9242 22.5374 35.629 19.9734C37.3333 17.4092 37.9493 14.2731 37.3415 11.2547C36.7337 8.23638 34.9519 5.58305 32.3879 3.87832C30.4827 2.61125 28.2459 1.93452 25.9578 1.93287ZM18.7822 4.42437C18.6348 4.54272 18.4874 4.66314 18.3442 4.78772C17.1938 5.78642 16.2513 7.00194 15.5707 8.36488C14.8901 9.72782 14.4846 11.2115 14.3774 12.7311C14.2702 14.2508 14.4634 15.7767 14.946 17.2217C15.4285 18.6667 16.191 20.0024 17.1898 21.1527C17.5471 21.5634 17.9329 21.9485 18.3442 22.3051C18.4874 22.4296 18.6348 22.5521 18.7822 22.6684C18.9338 22.5521 19.0791 22.4296 19.2224 22.3051C20.3728 21.3064 21.3152 20.0908 21.9959 18.7279C22.6765 17.3649 23.082 15.8813 23.1892 14.3616C23.2963 12.842 23.1032 11.3161 22.6206 9.87111C22.1381 8.42613 21.3756 7.09034 20.3768 5.94003C20.0195 5.52938 19.6337 5.14433 19.2224 4.78772C19.0791 4.66106 18.9338 4.53649 18.7822 4.42437Z" fill="#000D19"/>
</svg>
