<?xml version="1.0" standalone="no"?>
<!DOCTYPE svg PUBLIC "-//W3C//DTD SVG 1.1//EN" "http://www.w3.org/Graphics/SVG/1.1/DTD/svg11.dtd" >
<svg xmlns="http://www.w3.org/2000/svg" xmlns:xlink="http://www.w3.org/1999/xlink" version="1.1">
<metadata>
Created by FontForge 20170731 at Sat Apr 21 20:15:23 2018
 By Aleksey,,,
Copyright (c) 2017 by Rakel Tomas. All rights reserved.
</metadata>
<defs>
<font id="SilkSerif-Bold" horiz-adv-x="547" >
  <font-face 
    font-family="Silk Serif"
    font-weight="700"
    font-stretch="normal"
    units-per-em="1000"
    panose-1="0 0 8 0 0 0 0 0 0 0"
    ascent="743"
    descent="-257"
    x-height="449"
    cap-height="700"
    bbox="-119 -612 1166 938.042"
    underline-thickness="50"
    underline-position="-200"
    unicode-range="U+0020-2265"
  />
<missing-glyph horiz-adv-x="458" 
d="M85 700h290v-915h-290v915zM305 609v30h-151v-30h59v-34h-60v-31h152v31h-61v34h61zM244 457v64h-91v-95h152v31h-61zM183 490h30v-33h-30v33zM305 371v30h-152v-30h60v-34h-60v-30h91v64h61zM305 254v92h-30v-60h-122v-32h152zM305 131v103h-92v-51h31v21h31v-43h-92v73
h-30v-103h152zM305 -27v103h-152v-103h152zM183 46h92v-43h-92v43zM305 -79v31h-152v-31h64l-64 -43v-30h152v30h-94l64 43h30z" />
    <glyph glyph-name=".notdef" horiz-adv-x="458" 
d="M85 700h290v-915h-290v915zM305 609v30h-151v-30h59v-34h-60v-31h152v31h-61v34h61zM244 457v64h-91v-95h152v31h-61zM183 490h30v-33h-30v33zM305 371v30h-152v-30h60v-34h-60v-30h91v64h61zM305 254v92h-30v-60h-122v-32h152zM305 131v103h-92v-51h31v21h31v-43h-92v73
h-30v-103h152zM305 -27v103h-152v-103h152zM183 46h92v-43h-92v43zM305 -79v31h-152v-31h64l-64 -43v-30h152v30h-94l64 43h30z" />
    <glyph glyph-name=".null" horiz-adv-x="0" 
 />
    <glyph glyph-name="nonmarkingreturn" horiz-adv-x="333" 
 />
    <glyph glyph-name="space" unicode=" " horiz-adv-x="270" 
 />
    <glyph glyph-name="exclam" unicode="!" horiz-adv-x="273" 
d="M134 157q0 61 -16 141q-21 105 -32 148q-15 64 -24 126q-17 128 73 128q53 0 68 -37t5 -106q-4 -32 -43 -195q-31 -126 -31 -205zM134 157v-2v2zM132 126q26 0 45 -19.5t19 -45.5t-19 -45.5t-45 -19.5q-28 0 -47 19t-19 46t19 46t47 19z" />
    <glyph glyph-name="quotedbl" unicode="&#x22;" horiz-adv-x="273" 
d="M132 674l-36 -196l-38 196q-5 25 4.5 41t30.5 16q23 1 33.5 -15.5t5.5 -41.5zM236 674l-37 -196l-38 196q-5 24 5 40.5t30 16.5q24 1 34.5 -15.5t5.5 -41.5z" />
    <glyph glyph-name="numbersign" unicode="#" horiz-adv-x="638" 
d="M580 422v-13h-144l-58 -154h137v-14h-142l-91 -241h-19l92 241h-163l-91 -241h-20l92 241h-169v14h174l58 153h-177v15h183l87 230h18l-87 -230l163 -1l88 231h17l-87 -231h139zM197 255h163l58 154l-163 -1z" />
    <glyph glyph-name="dollar" unicode="$" horiz-adv-x="562" 
d="M314 692v-264q109 -25 153 -92q43 -66 33 -145q-9 -71 -63 -121t-123 -63v-74h-10v354l-41 9q-1 0 -6 1.5t-9 2t-5 0.5v-367h-10v72h-2q-67 6 -118 37q-88 51 -83 146q2 43 20 76q20 35 59 35q37 0 51 -32q14 -33 1 -57q-8 -15 -29 -32q-20 -17 -23 -38q-8 -40 12 -73
t64 -47q18 -6 48 -8v291q-89 24 -132.5 85.5t-37.5 137.5q6 63 54 110q47 46 116 61v51h10v-304q21 -7 49 -12q2 0 6 -1t6 -1v318h10v-46q151 -13 178 -137q10 -45 -7 -78t-53 -33q-32 0 -51.5 20t-17.5 45q1 23 21 45q21 23 20 48q-2 50 -54 71q-15 6 -36 9zM182 670
q-25 -15 -39 -44t-13.5 -62t26.5 -65.5t77 -51.5v243q-30 -8 -51 -20zM441 149q2 49 -27.5 82t-99.5 53v-269q56 10 90.5 45.5t36.5 88.5z" />
    <glyph glyph-name="percent" unicode="%" horiz-adv-x="682" 
d="M208 425q-28 -1 -54 5t-54.5 32.5t-37.5 72.5q-12 60 17 107.5t87 62.5q70 16 118 -16t55 -105q7 -66 -30.5 -110.5t-100.5 -48.5zM269 596q-13 60 -40.5 88.5t-60.5 12.5q-30 -17 -37.5 -67.5t5.5 -86.5q11 -62 37 -89.5t56 -18.5q34 7 45 56q10 48 -5 105zM115 0h-19
l459 701h17zM490 0q-28 -1 -54 5t-54.5 32.5t-37.5 72.5q-12 60 17 107.5t87 62.5q70 16 118 -16t55 -105q7 -66 -30.5 -110.5t-100.5 -48.5zM551 171q-13 60 -40.5 88.5t-60.5 12.5q-30 -16 -37 -68q-7 -49 4 -86q12 -62 38 -89.5t56 -18.5q34 7 45 56q10 47 -5 105z" />
    <glyph glyph-name="ampersand" unicode="&#x26;" horiz-adv-x="739" 
d="M644 55q59 2 74 60q-3 -49 -36 -89t-90 -42q-50 -1 -85.5 17.5t-72.5 74.5l-21 31q-48 -63 -90.5 -93t-99.5 -33q-84 -5 -138 42t-51 131q1 29 18 78q7 17 46 56q7 8 32 24q16 11 31 20l37 21l35 20l-14 21q-2 4 -14 21t-14 20q-1 2 -11 17t-12 20q-1 2 -7.5 17t-8.5 21
q-8 36 -8 64q3 74 57 110t124 36q58 0 107 -32q48 -31 53 -98q6 -101 -82 -147q-5 -3 -57 -27l137 -198l39 53q100 137 -41 178h241q-26 0 -66 -28q-24 -16 -46 -43q-23 -30 -54 -76q-28 -40 -56 -78l-11 -14l60 -87q27 -39 47.5 -54t47.5 -14zM320 713q-45 1 -62 -30
t-6 -91q5 -30 17 -55t24 -44l42 -61l6 -9l15 15q50 54 45 165q-2 46 -24 77.5t-57 32.5zM253 83q85 -6 147 44l-159 235q-89 -74 -89 -164q0 -47 27 -79t74 -36z" />
    <glyph glyph-name="quotesingle" unicode="'" horiz-adv-x="184" 
d="M130 674l-37 -196l-38 196q-5 24 5 40.5t30 16.5q23 1 33.5 -15t6.5 -42z" />
    <glyph glyph-name="parenleft" unicode="(" horiz-adv-x="253" 
d="M201 -108l22 -49q-27 16 -70 80q-27 40 -49 85q-54 119 -54 264q0 156 57 274q22 46 49 84.5t44 56t21 15.5q-17 -33 -30 -70q-17 -46 -26 -86q-30 -120 -30 -274q0 -121 22 -225q24 -111 44 -155z" />
    <glyph glyph-name="parenright" unicode=")" horiz-adv-x="263" 
d="M20 -157l22 49q20 44 44 155q22 104 22 225q0 154 -30 274q-9 40 -26 86q-13 37 -30 70q3 2 20.5 -15.5t44.5 -56.5t48 -84q58 -116 58 -274q0 -150 -55 -264q-24 -50 -48 -85q-43 -64 -70 -80z" />
    <glyph glyph-name="asterisk" unicode="*" horiz-adv-x="365" 
d="M271 584l-87 -10h-1l72 -57q29 -26 11 -45q-12 -9 -25 -3t-22 23l-36 81l-40 -82q-9 -14 -22 -19t-22 3q-9 10 -4.5 23.5t19.5 25.5l69 50l-90 13q-18 2 -27 13t-4 22q6 13 21.5 12.5t29.5 -12.5l70 -48l-24 86q-3 17 3 28.5t18 11.5q14 1 19.5 -11t3.5 -33l-20 -82l1 1
l73 49q33 21 45 -4q5 -14 -4 -24t-27 -12z" />
    <glyph glyph-name="plus" unicode="+" 
d="M283 351h204v-13h-204v-213h-14v213h-209v13h209v201h14v-201z" />
    <glyph glyph-name="comma" unicode="," horiz-adv-x="229" 
d="M176 82q21 -55 -2 -137q-22 -82 -84 -124q33 29 53 86q20 56 9 104q-14 -11 -33 -12q-27 -3 -47.5 14t-23.5 44t14 48t43 23q25 3 44.5 -10t26.5 -36z" />
    <glyph glyph-name="hyphen" unicode="-" horiz-adv-x="472" 
d="M60 270v13h352v-13h-352z" />
    <glyph glyph-name="period" unicode="." horiz-adv-x="249" 
d="M176 15q-18 -19 -45 -19t-46 19q-19 20 -19 46t19 45q19 20 46 20t45 -19q19 -19 19 -46t-19 -46z" />
    <glyph glyph-name="slash" unicode="/" horiz-adv-x="398" 
d="M36 0h-15l269 701h15z" />
    <glyph glyph-name="zero" unicode="0" horiz-adv-x="630" 
d="M328 695q65 1 114.5 -29.5t76.5 -85.5q51 -101 51 -242q2 -137 -71 -243.5t-184 -104.5q-67 0 -119.5 32.5t-81.5 88.5q-56 110 -54 238q1 150 74 247q74 98 194 99zM437 343q-12 100 -33.5 176t-51 118t-62.5 41q-58 0 -80 -93q-21 -90 -4 -237q17 -152 56 -243
q40 -93 93 -95q41 -2 63 50q36 82 19 283z" />
    <glyph glyph-name="one" unicode="1" horiz-adv-x="412" 
d="M280 485v-378q0 -57 33 -84q38 -27 69 -23h-323q17 0 35 7q56 21 56 100v321q-2 63 0 120q1 43 -16 59.5t-50 2.5l197 112q0 -41 -0.5 -104.5t-0.5 -76.5v-56z" />
    <glyph glyph-name="two" unicode="2" horiz-adv-x="548" 
d="M274 87h28q160 0 201 95l-67 -182h-425l40 28q25 18 90 75q68 60 113 115q106 130 90 272q-8 57 -52 90q-43 33 -102 25q-39 -6 -76.5 -25.5t-55.5 -38.5l-16 -17q9 23 30 56q18 28 39 51q22 25 57.5 44.5t72.5 24.5q102 12 161 -47t59 -136q0 -40 -17.5 -82.5
t-40.5 -70.5q-14 -18 -76 -87q-67 -75 -86 -97q-40 -46 -42 -74q-2 -9 11 -14q17 -5 53 -5h11zM503 182l5 13q-4 -11 -5 -13z" />
    <glyph glyph-name="three" unicode="3" horiz-adv-x="590" 
d="M391 412q145 -45 140 -203q-3 -78 -50 -134q-88 -105 -258 -70q-59 15 -101.5 64t-61.5 118q24 -49 70 -83t109 -39q64 -4 107 33t48 101q5 68 -40 117q-44 50 -110 46l-40 -8q140 70 154 184q5 43 -16.5 75t-64.5 41q-45 11 -89.5 -5.5t-79.5 -51.5q73 105 184 109
q82 4 129 -41q48 -43 48 -101q0 -101 -78 -152z" />
    <glyph glyph-name="four" unicode="4" horiz-adv-x="624" 
d="M652 264l-104 -103h-95v-101l-119 -139v240h-294l413 558v-455h199zM162 263h171v198q0 33 -13 37t-34 -23l-133 -182q-18 -27 9 -30z" />
    <glyph glyph-name="five" unicode="5" horiz-adv-x="551" 
d="M121 523l-15 -68q-3 -17 0 -20q2 -2 11 2q40 29 75 39.5t87 11.5q90 2 150 -53q62 -56 62 -151q0 -84 -84 -168q-48 -48 -134 -88q-85 -40 -151 -58l-63 -17q126 42 208 127q84 87 85 173q1 100 -80 128q-60 20 -112 -0.5t-82 -50.5l-11 -11l79 382h336l-85 -111h-218
q-33 0 -44 -20q-8 -17 -14 -47z" />
    <glyph glyph-name="six" unicode="6" horiz-adv-x="593" 
d="M195 598q116 123 266 123q-105 -11 -174 -123q-44 -71 -59 -158l7 2q7 3 8 3q72 15 132 2q63 -13 106 -65t51 -131q10 -108 -54 -184q-65 -76 -162 -77q-69 0 -138 31q-39 18 -67.5 58t-40.5 95q-15 71 -3 177q18 128 128 247zM347 4q46 14 56 98q10 85 -9 173
q-20 93 -63 138t-83 17q-28 -18 -38 -67q-19 -83 3 -193q11 -53 29 -90.5t36 -53t37 -23t32 0.5z" />
    <glyph glyph-name="seven" unicode="7" horiz-adv-x="541" 
d="M113 702h446q-89 -112 -162 -267q-54 -117 -59 -196q0 -3 -3 -160q-3 -62 -49 -77q-37 -13 -66 16q-21 21 -18 55q4 55 32 113q27 56 84 148q60 96 90 155q9 17 15.5 31t9 24.5t4 19t-2.5 14.5t-6 10t-11.5 7t-14.5 4.5t-19 2t-21.5 0.5h-24.5h-23h-39q-92 0 -142 -21
t-74 -77z" />
    <glyph glyph-name="eight" unicode="8" horiz-adv-x="584" 
d="M350 408l56 -30q54 -29 90 -85q37 -56 26 -135q-14 -87 -98 -130q-83 -43 -188 -31q-88 10 -135 58.5t-40 127.5q5 60 40.5 97t109.5 70q-25 12 -53 37q-26 24 -49 74q-21 49 -13 102q12 76 77 117q65 42 143 36q77 -4 122 -48.5t45 -114.5q0 -103 -133 -145zM202 572
q7 -50 39.5 -87.5t101.5 -72.5q44 67 47 142q3 54 -23 102t-79 51q-30 1 -50 -14t-26.5 -37t-10 -45.5t0.5 -38.5zM219 346q-43 -57 -41 -164q3 -66 35 -119q33 -52 97 -55q43 -2 68.5 18.5t29.5 54.5q8 68 -13 125q-10 28 -34 54t-44 37q-18 11 -56 29q-12 6 -21.5 10.5
t-15.5 7.5z" />
    <glyph glyph-name="nine" unicode="9" horiz-adv-x="591" 
d="M397 113q-115 -124 -266 -124q104 12 174 124q43 69 60 159q-12 -6 -16 -6q-72 -15 -133 -2q-62 13 -105 65t-51 131q-10 108 54 183q64 77 162 78q70 0 138 -32q39 -18 67.5 -57.5t40.5 -94.5q48 -239 -125 -424zM245 707q-45 -15 -56 -98.5t9 -172.5q20 -93 62 -138
q43 -46 84 -17q28 18 38 67q19 82 -3 193q-11 53 -29 90.5t-36 53t-37 23t-32 -0.5z" />
    <glyph glyph-name="colon" unicode=":" horiz-adv-x="250" 
d="M132 328q-27 0 -46.5 19.5t-19.5 45.5q0 27 19 46t47 19q26 0 45 -19.5t19 -45.5t-19 -45.5t-45 -19.5zM132 -4q-28 0 -47 19t-19 46t19 46t47 19q26 0 45 -19.5t19 -45.5t-19 -45.5t-45 -19.5z" />
    <glyph glyph-name="semicolon" unicode=";" horiz-adv-x="250" 
d="M207 394q0 -27 -18.5 -46t-45.5 -19t-46 19.5t-19 45.5t19 45.5t46 19.5t45.5 -19t18.5 -46zM179 119q31 -16 38 -74q7 -55 -19 -123q-26 -67 -76 -101q34 29 52 86q20 56 9 104q-13 -11 -33 -12q-27 -3 -47 14t-23 44t13.5 48t43.5 23q23 3 42 -9z" />
    <glyph glyph-name="less" unicode="&#x3c;" horiz-adv-x="465" 
d="M57 287l347 142v-13l-315 -129l315 -137v-14z" />
    <glyph glyph-name="equal" unicode="=" horiz-adv-x="593" 
d="M60 407v14h474v-14h-474zM60 256v14h474v-14h-474z" />
    <glyph glyph-name="greater" unicode="&#x3e;" horiz-adv-x="467" 
d="M60 429l347 -142l-347 -151v14l315 137l-315 129v13z" />
    <glyph glyph-name="question" unicode="?" horiz-adv-x="502" 
d="M243 145q-11 59 -0.5 120t32.5 105q22 46 38 91q19 50 19 92q1 66 -23.5 103t-70.5 38q-42 1 -71.5 -23t-28.5 -66q2 -17 21 -41q22 -23 23 -38q4 -30 -13 -52t-44 -22t-46 22t-20 57q-4 64 46 116q50 50 134 55q92 4 147 -37.5t56 -121.5q0 -13 -2 -26.5t-8 -28t-10 -25
t-15 -27t-16 -25t-19.5 -27t-18.5 -23.5t-20.5 -25.5t-19.5 -23.5q-70 -86 -70 -167zM243 -4q26 0 45 19.5t19 45.5t-19 45.5t-45 19.5q-27 0 -46.5 -19.5t-19.5 -45.5t19.5 -45.5t46.5 -19.5z" />
    <glyph glyph-name="at" unicode="@" horiz-adv-x="701" 
d="M427 71q-35 -2 -50 18t0 58l66 177q22 58 16 84q-8 36 -39 36q-25 0 -58 -28.5t-57 -71.5q-36 -66 -36 -125q0 -51 30 -61q31 -9 55.5 7.5t34.5 38.5l4 7q1 0 -2 -7.5t-12 -26.5q-17 -34 -50 -67q-33 -34 -71 -34q-35 0 -53.5 23.5t-18.5 64.5q0 63 35 131
q85 163 211 156q37 -1 63 -31l48 14l-89 -260q-5 -9 -9 -20.5t-6 -24t3 -21t18 -8.5q62 4 108 66t46 157q0 81 -63 142q-63 63 -157 62q-92 -2 -157 -49q-122 -88 -122 -251q0 -106 61 -167t162 -61q197 0 289 122q-52 -83 -132 -132.5t-184 -50.5q-130 -1 -205 80
q-74 83 -74 196q0 159 103 265q104 108 261 109q116 2 193 -68q79 -69 75 -183q-2 -62 -26.5 -115t-62.5 -85q-75 -64 -148 -66z" />
    <glyph glyph-name="A" unicode="A" horiz-adv-x="658" 
d="M319 748l287 -660q16 -36 45 -59q41 -29 81 -29h-393h3q4 1 10.5 3t14 5t16 7.5t15.5 10.5t13 15t8.5 19.5t1 24.5t-7.5 30l-61 155l-225 1l-58 -142q-21 -49 0.5 -87t75.5 -42h-232q37 2 74 34t58 84l271 639zM245 517q-17 0 -58 -101l-54 -132h213l-59 155l-9 23
q-24 52 -33 55zM736 0h-4h4z" />
    <glyph glyph-name="B" unicode="B" horiz-adv-x="735" 
d="M490 364q25 0 48 -3.5t51 -15.5t48 -31t34 -53t14 -79q-1 -183 -243 -183l-431 1q20 0 47 8q75 25 75 112v463q-1 62 -43 92q-18 12 -37 17q-24 8 -42 8l406 2q220 0 220 -171q0 -73 -40 -117t-107 -50zM290 692v-325q86 0 113 10q80 26 78 155q-1 90 -44.5 126.5
t-146.5 33.5zM391 9q51 0 89 44q38 46 38 118q-1 92 -30.5 132.5t-84.5 47.5q-36 5 -113 2v-234q0 -110 101 -110z" />
    <glyph glyph-name="C" unicode="C" horiz-adv-x="759" 
d="M209 369q18 -129 99 -207q82 -78 192 -79q134 -3 196 103l5 12q-2 -18 -23 -61q-13 -30 -35 -56q-22 -27 -61.5 -51.5t-84.5 -35.5q-90 -20 -173.5 0.5t-142.5 72.5q-57 51 -90.5 120t-35.5 143q-3 114 46 199q96 165 302 180q87 6 171 -16q60 -17 88 -35l10 -7l-2 -197
q-62 124 -162 197q-101 75 -204 20q-59 -31 -85 -117q-25 -85 -10 -185z" />
    <glyph glyph-name="D" unicode="D" horiz-adv-x="794" 
d="M734 364q0 -114 -46 -196q-86 -160 -283 -168h-45h-368q26 0 64 14q26 9 41.5 34.5t15.5 61.5v480q0 36 -15.5 61.5t-41.5 34.5q-38 14 -64 14h364q378 10 378 -336zM407 13q74 9 116 102.5t40 255.5q-3 302 -212 316q-7 1 -35 1q-27 0 -34 -1v-564q0 -111 81 -111
q41 0 44 1z" />
    <glyph glyph-name="E" unicode="E" horiz-adv-x="734" 
d="M555 82q44 34 79.5 70t48.5 56l11 18l-45 -226h-640q21 0 59 17q23 10 37.5 35.5t14.5 60.5v481q0 35 -14 59.5t-38 32.5q-36 14 -59 14h612l34 -213q-35 63 -144 141q-50 35 -96.5 48t-113.5 13h-22v-320h18q39 1 70.5 14.5t51 35t30 39t16.5 34.5l4 14v-296
q-2 15 -20 50q-13 24 -31 44q-19 21 -52 36t-69 15h-18v-237q0 -109 91 -109h12q37 0 84.5 21t88.5 52z" />
    <glyph glyph-name="F" unicode="F" horiz-adv-x="712" 
d="M29 700h603l40 -220q-9 28 -51 72q-39 42 -77 70q-92 67 -213 67h-41v-69v-56v-196h38q73 2 115 41t54 77l4 13v-280q-2 14 -20 47q-17 36 -55.5 61.5t-97.5 27.5h-38v-254q0 -65 47 -86q35 -15 56 -15h-364q22 0 54 14q48 21 48 87v18v52v410v17q0 70 -48 89
q-32 13 -54 13z" />
    <glyph glyph-name="G" unicode="G" horiz-adv-x="778" 
d="M450 292h304q-3 0 -8 -1t-17.5 -6.5t-22 -15t-17.5 -29.5t-8 -47v-211q-11 32 -43 67q-31 36 -46 39q-95 -104 -217 -104q-153 0 -244 105q-91 106 -91 265q0 78 26 142.5t70 105.5q43 39 98 64q102 45 215 40q133 -6 212 -52v-210q-24 52 -66 109q-44 60 -96 95
q-90 64 -180 30q-70 -25 -100 -114q-29 -88 -12 -213q20 -146 89 -235q70 -89 149 -94q35 -1 62 13q20 12 35 33q7 11 16 43q4 16 4 42v35v5q0 27 -11 47t-29 30t-32.5 15t-27.5 6z" />
    <glyph glyph-name="H" unicode="H" horiz-adv-x="811" 
d="M690 580v-460q0 -62 32 -94q37 -30 71 -26h-363q18 0 39 8q62 26 62 112v235h-263v-235q0 -62 32 -94q37 -30 71 -26h-363q7 0 15 1t24 7.5t28.5 18t22.5 36t11 57.5v460q0 83 -48 105q-31 15 -54 15h364q-18 0 -41 -9q-26 -9 -44 -36t-18 -75v-211h263v211q0 83 -48 105
q-31 15 -54 15h364q-18 0 -41 -9q-26 -9 -44 -36t-18 -75z" />
    <glyph glyph-name="I" unicode="I" horiz-adv-x="434" 
d="M288 580v-460q0 -63 36 -93q35 -27 77 -27h-381q7 0 16.5 1t27.5 8t31.5 18.5t24.5 35.5t11 57v460q0 65 -36 93q-14 12 -32 18q-24 9 -43 9h381q-24 0 -60 -15q-53 -22 -53 -105z" />
    <glyph glyph-name="J" unicode="J" horiz-adv-x="554" 
d="M285 183v416q0 69 -43 88q-30 13 -50 13h345q-20 0 -50 -13q-43 -19 -43 -88v-422q0 -89 -58 -134q-25 -19 -58 -29q-47 -16 -114 -16q-53 0 -122 28q-37 16 -60.5 52.5t-24.5 85.5q-1 33 20 59t55 26q45 0 64.5 -34t4.5 -81q-15 -53 6 -88.5t64 -35.5q40 -6 56 47
q3 8 5 37q2 34 2 40q1 9 1 49z" />
    <glyph glyph-name="K" unicode="K" horiz-adv-x="702" 
d="M263 599v-498q0 -65 47 -86q35 -15 56 -15h-364q21 0 55 15q47 21 47 86v498q0 69 -48 88q-32 13 -54 13h364q-22 0 -55 -13q-48 -19 -48 -88zM412 697h7h-7zM434 370l158 -207q45 -58 87.5 -101t62.5 -54l18 -10l-224 2l-82 105l-134 177q-15 20 -28.5 24.5t-19 1.5
t-7.5 -7l215 257q28 37 22.5 67.5t-29.5 50t-54 21.5h269l-6 -1q-70 -20 -145 -95l-29 -30l-14 -17l-67 -80q-17 -19 -19 -42q0 -19 5 -30t21 -32z" />
    <glyph glyph-name="L" unicode="L" horiz-adv-x="711" 
d="M363 9h9q79 0 179 85q102 87 130 155l-50 -249h-629q19 0 43 9q68 25 68 121v450q0 83 -48 105q-31 15 -54 15h363q-18 0 -41 -9q-26 -9 -44 -36t-18 -75v-453q0 -118 92 -118z" />
    <glyph glyph-name="M" unicode="M" horiz-adv-x="1057" 
d="M917 572v-442q0 -81 52 -110q39 -20 60 -20h-393q21 0 60 20q52 29 52 110v342q0 76 -9 77q-7 1 -14 -10t-19 -41l-214 -525l-290 530q-44 86 -47 21v-12l-2 -346q0 -44 16 -79t39 -52q21 -15 49 -24q34 -11 57 -11h-332q24 0 56 11q98 31 102 157v370q0 44 -16 77
t-40.5 50t-41.5 24t-32 10l-4 1h277l226 -412q36 -64 41 -68q14 -14 31 21q3 6 13 29l179 430h261q-5 0 -14.5 -1.5t-28.5 -9t-34.5 -20t-27.5 -38t-12 -59.5z" />
    <glyph glyph-name="N" unicode="N" horiz-adv-x="797" 
d="M640 303v244q0 79 -43 115q-16 14 -40 24q-27 12 -56 14h293q-27 -2 -57 -13q-84 -34 -84 -140v-575l-457 541q-20 21 -30.5 14t-10.5 -39v-323q0 -43 14 -75.5t36.5 -50t40.5 -25.5t36 -12l15 -2h-298q15 0 49 14q39 14 65.5 51t28.5 100v332q0 57 -14.5 99t-36.5 62.5
t-37 29t-28 11.5l-4 1h235l348 -416q17 -20 25 -18q10 1 10 37zM653 -28v-1h-1z" />
    <glyph glyph-name="O" unicode="O" horiz-adv-x="837" 
d="M434 709q84 0 151 -30.5t106 -83.5q78 -103 76 -246q-1 -70 -24.5 -133.5t-67 -114.5t-114.5 -81t-158 -29q-84 1 -153 34.5t-110 89.5q-83 112 -78 242q1 157 106 255q106 98 266 97zM580 373q-18 137 -80 236q-61 97 -145 83q-66 -10 -98 -103q-30 -92 -11 -232
q19 -137 79 -240q60 -101 139 -107q80 -8 109 91q30 98 7 272z" />
    <glyph glyph-name="P" unicode="P" horiz-adv-x="671" 
d="M586 631q44 -55 36 -147q-7 -91 -59 -134q-44 -36 -103 -50t-169 -3q115 7 153 72q32 52 32 135q0 97 -40.5 145t-122.5 47q-35 0 -41 -1v-574q0 -83 53 -105q38 -16 60 -16h-384q23 0 59 16q53 22 53 105v488q0 30 -13 51t-35 28q-29 12 -54 12l158 4l144 4
q110 2 173 -14t100 -63z" />
    <glyph glyph-name="Q" unicode="Q" horiz-adv-x="834" 
d="M443 709q84 0 151 -30.5t106 -83.5q78 -103 76 -246q-1 -70 -24.5 -133.5t-67 -114.5t-114.5 -81t-158 -29q-84 1 -153 34.5t-110 89.5q-83 112 -78 242q1 157 106 255q106 98 266 97zM589 373q-18 137 -80 236q-61 97 -145 83q-65 -10 -97 -103q-30 -93 -11 -232
q20 -138 78 -240q60 -101 139 -107q80 -8 109 91q30 98 7 272zM288 -27q41 -2 76 -26q36 -25 72 -57q39 -33 71 -44q141 -47 200 50q-20 -58 -65 -95t-111 -36q-45 1 -87 19t-69 43q-70 66 -120 81q-95 28 -173 -50q34 54 91 86q59 33 115 29z" />
    <glyph glyph-name="R" unicode="R" horiz-adv-x="690" 
d="M551 228l54 -101q30 -56 64.5 -85.5t60.5 -38.5l8 -3h-226q-36 52 -69 113l-77 144q-40 79 -94 79h-8l-2 -274q0 -26 17 -43q23 -19 57 -19h-335q22 0 54 13q48 19 48 88v498q0 55 -36 78q-13 9 -29.5 15t-25.5 7.5t-11 0.5q51 0 146 4q107 4 162 3q104 -2 160.5 -15.5
t88.5 -47.5q45 -45 43 -125q0 -81 -55 -130q-12 -10 -25 -19t-23.5 -14.5t-19 -9t-13 -5t-4.5 -0.5q3 0 11 -5q11 -7 34 -36.5t45 -71.5zM348 361q104 36 104 165q0 95 -47 136t-143 35l2 -349q48 0 84 13z" />
    <glyph glyph-name="S" unicode="S" horiz-adv-x="665" 
d="M555 668l1 -189q-25 60 -100 129q-58 52 -116 75q-64 27 -129 -2q-59 -35 -39 -114q12 -45 52 -72.5t118 -45.5q161 -38 222 -107.5t39 -187.5q-12 -64 -54.5 -104.5t-95 -55t-115.5 -13.5q-177 3 -286 73v236q40 -85 115 -163q77 -78 160 -103q47 -14 88.5 -15.5
t73.5 16.5t37 57q7 58 -42 104q-48 46 -186 84q-132 35 -185 97t-44 161q9 94 85 140t190 45q57 -1 110 -12q49 -10 77 -22z" />
    <glyph glyph-name="T" unicode="T" horiz-adv-x="732" 
d="M56 700h608l32 -200q-52 80 -96 117q-82 69 -151 69h-6v-556q0 -69 39 -102q13 -11 35 -19q28 -9 48 -9h-403q20 0 47 9q74 25 74 121v556h-9q-62 0 -153 -74q-21 -17 -48 -47q-24 -26 -41 -49l-15 -20z" />
    <glyph glyph-name="U" unicode="U" horiz-adv-x="753" 
d="M618 322v223q0 47 -14.5 81t-38.5 49q-35 23 -64 25h239q-9 -1 -17 -3t-27 -12.5t-31.5 -26.5t-23 -48.5t-10.5 -74.5v-226q0 -38 -1 -51q0 -15 -5 -57q-5 -40 -13 -63q-25 -75 -67 -107q-59 -46 -149 -46q-162 0 -226 82t-64 251v252q0 69 -34 101q-36 33 -73 29h385
q-22 0 -47 -9q-64 -26 -64 -121v-290q0 -132 48 -195.5t140 -57.5q83 6 120 76t37 219z" />
    <glyph glyph-name="V" unicode="V" horiz-adv-x="738" 
d="M395 -25l-325 635q-44 90 -153 90h456l-15 -2q-42 -6 -73.5 -33t-10.5 -80q25 -58 130 -266q38 -74 61 -74q18 0 28 10.5t25 48.5l104 251q25 61 -7 102q-31 41 -105 43h264q-39 -12 -66 -33q-37 -29 -65 -96z" />
    <glyph glyph-name="W" unicode="W" horiz-adv-x="1109" 
d="M904 700h262q-47 -16 -74 -34q-38 -27 -64 -95l-234 -620l-233 491l-184 -491q-308 647 -312 659q-40 90 -142 90h418h20h418q-3 0 -7.5 -1l-18 -4t-23.5 -8t-24 -14t-19 -20.5t-8 -29t8 -38.5q41 -98 121 -266q35 -74 56 -74q14 0 23 11t25 47l97 252q23 61 -7 102.5
t-98 42.5zM494 303l60 155l-35 74q-10 22 -19.5 41.5t-13.5 27.5t-4 9q-37 84 -125 89q-8 -1 -17 -3t-24 -7.5t-25.5 -13.5t-20.5 -20.5t-9 -29.5t8 -40q43 -101 121 -266q35 -74 56 -74q15 0 24 10.5t24 47.5z" />
    <glyph glyph-name="X" unicode="X" horiz-adv-x="802" 
d="M860 0h-444q34 0 68 27q39 31 -6 105l-20 27q-42 60 -52 73l-65 89l-115 -153q-38 -49 -34 -85t33 -57t75 -26h-341q138 28 237 159l135 176l-189 258q-42 55 -84 81t-72 26l419 -1q-29 -1 -49.5 -16t-24 -44t26.5 -71l92 -128l73 96q20 25 30 50.5t9 49.5t-22.5 41
t-62.5 22h306q-60 -4 -123 -46.5t-113 -108.5l-87 -117l153 -214q89 -121 137 -163t110 -50z" />
    <glyph glyph-name="Y" unicode="Y" horiz-adv-x="637" 
d="M478 700h222q-87 -19 -148 -124l-109 -198q-20 -38 -20 -110v-157q0 -33 12.5 -58t31.5 -35q34 -17 56 -18h-357q23 0 54 17q44 23 44 90l1 133q0 74 -29 121l-139 228q-33 53 -72.5 82t-66.5 29l356 -1q-43 -1 -61 -34.5t5 -76.5l114 -195q34 -61 70 6l97 174
q28 50 12 85t-73 42z" />
    <glyph glyph-name="Z" unicode="Z" horiz-adv-x="688" 
d="M265 10h9q56 1 106 24t122 74q43 32 78 67.5t46 54.5l11 17l-53 -248l-593 1l396 605q21 33 26.5 51t-1.5 25t-27 7h-15q-106 0 -216 -77q-77 -55 -122 -113l-16 -21l62 224l550 -1l-389 -600q-27 -37 -20 -63.5t46 -26.5z" />
    <glyph glyph-name="bracketleft" unicode="[" horiz-adv-x="322" 
d="M146 699l193 -1l-130 -51v-744l130 -49l-193 -2v847z" />
    <glyph glyph-name="backslash" unicode="\" horiz-adv-x="397" 
d="M328 0h-16l-268 701h15z" />
    <glyph glyph-name="bracketright" unicode="]" horiz-adv-x="254" 
d="M-18 701l193 1v-847l-193 2l131 49v744z" />
    <glyph glyph-name="asciicircum" unicode="^" horiz-adv-x="412" 
d="M210 616l142 -257l-143 225l-150 -215z" />
    <glyph glyph-name="underscore" unicode="_" horiz-adv-x="516" 
d="M59 2v14h397v-14h-397z" />
    <glyph glyph-name="grave" unicode="`" horiz-adv-x="286" 
d="M45 644l83 -131l-131 84q-23 15 -31.5 31t-6 26.5t10.5 17.5q11 16 33 9t42 -37z" />
    <glyph glyph-name="a" unicode="a" 
d="M335 66v201q-87 -27 -123 -54q-35 -27 -37 -75q-1 -28 12.5 -50.5t37.5 -30.5q56 -15 105 31q-8 -11 -29 -35q-5 -6 -32 -31q-40 -37 -100 -37q-64 0 -92 37t-27 82q1 53 49 88q20 15 55 29q37 16 65 23l78 22q5 1 17.5 4t20.5 6v56q0 74 -23.5 107.5t-72.5 24.5
q-30 -5 -44.5 -22t-17.5 -64q0 -10 8.5 -35t8.5 -33q1 -35 -31 -52t-64 -1.5t-30 59.5q1 63 58 104q57 40 117 51q32 9 72 4.5t74.5 -16.5t56.5 -45t20 -80v-227q0 -34 11 -48t31 -11q12 1 23.5 12.5t15.5 23.5l4 12q-7 -33 -27 -69q-25 -43 -89 -43q-45 0 -73 22t-28 60z
" />
    <glyph glyph-name="b" unicode="b" horiz-adv-x="568" 
d="M202 722v-504q0 -103 40 -164t101 -53q76 11 53 247q-7 75 -41 126t-92 48q-23 0 -51 -28l-1 -2q13 33 45.5 57.5t73.5 25.5q82 2 137 -62q56 -66 55 -179q-1 -104 -60 -175q-58 -69 -153 -69q-73 0 -128 38q-20 14 -37 31l-5 6l-69 -81v575q0 35 -17.5 48.5t-46.5 4.5z
" />
    <glyph glyph-name="c" unicode="c" horiz-adv-x="537" 
d="M159 228q12 -69 57 -110.5t114 -42.5q124 -3 165 92q-10 -77 -67 -134q-56 -56 -148 -54q-102 2 -169 66q-67 66 -69 176q-1 87 45.5 150.5t119.5 88t149 6.5q55 -12 92 -47.5t40 -81.5q2 -35 -16.5 -54.5t-49.5 -17.5q-32 1 -47.5 27t-6.5 60q29 111 -56 114
q-82 2 -125 -70q-44 -73 -28 -168z" />
    <glyph glyph-name="d" unicode="d" horiz-adv-x="569" 
d="M366 71q-6 -18 -25 -45q-27 -40 -93 -42q-88 -3 -148 61q-60 65 -63 171q-4 121 59 189q65 70 154 71q34 1 68.5 -7.5t51.5 -22.5v109q0 37 -20 51t-45 5l193 111v-586q0 -29 17 -42.5t37 -10.5l18 3l-200 -112v240q0 107 -28 179q-29 76 -83 77q-36 2 -58 -35
q-34 -58 -25 -200q8 -72 36 -129t76 -69q27 -6 48.5 5.5t29.5 28.5z" />
    <glyph glyph-name="e" unicode="e" horiz-adv-x="539" 
d="M339 72q118 0 155 91q-9 -77 -67 -129q-58 -51 -148 -48q-108 5 -170 71q-63 69 -64 170q-2 145 110 213q36 21 82 30t82 4q78 -12 125 -68t45 -143h-324q0 -86 47.5 -138t126.5 -53zM237 445q-40 -27 -56 -81q-16 -51 -16 -94q83 0 118 5q51 8 80 38q27 25 25 75
q-1 50 -36 70q-20 13 -53 10t-62 -23z" />
    <glyph glyph-name="f" unicode="f" horiz-adv-x="390" 
d="M380 708q99 -28 99 -117q0 -24 -17.5 -42.5t-41.5 -18.5q-35 0 -51.5 29.5t-10.5 71.5q7 87 -53 82q-38 0 -50 -57q-5 -33 -5 -56v-30v-64v-56h153l-9 -9h-144v-334q0 -57 33 -84q38 -27 69 -23h-332q18 0 38 7q63 20 63 100v334h-52l-12 9h64v62q0 60 19 105t49 66
q42 30 100 35t91 -10z" />
    <glyph glyph-name="g" unicode="g" horiz-adv-x="482" 
d="M485 491q20 0 30 -11.5t6 -26.5q-4 -16 -19 -20.5t-39 4.5q-15 15 -30.5 16t-49.5 -22q53 60 102 60zM280 82q165 -10 180 -111q13 -93 -51 -154q-37 -35 -91.5 -53.5t-110.5 -13.5q-91 7 -143.5 44.5t-52.5 93.5q0 38 18 64.5t35 35.5l6 4q-17 -76 35 -114
q53 -40 149 -53q64 -10 115 2q50 12 61 38q18 47 -32 77t-129 29q-107 -1 -165 19.5t-64 69.5q-5 24 15 47q28 34 82 57l-5 2q-98 42 -95 151q1 101 122 145q41 15 95 13q53 -1 91 -21q54 -25 76 -85q23 -60 0 -110q-16 -37 -43 -59.5t-74 -37.5q-82 -24 -157 -1
q-23 -11 -27 -28t11 -31q12 -12 33.5 -15.5t61 -3.5t54.5 -1zM190 460q-32 -16 -36 -78q-5 -64 17 -126q23 -61 56 -82t62 -4q25 12 29 54q8 64 -16 146q-21 63 -51.5 84.5t-60.5 5.5z" />
    <glyph glyph-name="h" unicode="h" horiz-adv-x="606" 
d="M531 266v-169q0 -52 26 -76q24 -21 56 -21h-621q18 0 38 6q62 21 62 91v456q0 28 -6 44.5t-17.5 19.5t-17 3t-14.5 -2l185 104v-625q0 -47 26.5 -70t56.5 -26q22 -2 35 2q22 4 42.5 27t18.5 67v97q0 126 -8 155q-5 21 -17 32q-21 23 -68 15q-48 -8 -77 -41q31 43 87 81
q58 38 122 32q59 -6 74 -50q12 -27 15 -64q2 -30 2 -35v-39v-14z" />
    <glyph glyph-name="i" unicode="i" horiz-adv-x="366" 
d="M235 527q-21 -22 -52 -22t-53 22q-22 23 -22 54t22 52q22 22 53 22t52 -22q22 -21 22 -52t-22 -54zM253 475v-378q0 -27 8 -47t18 -29t23.5 -14.5t20 -6t12.5 -0.5h-303q18 0 35 6q56 21 56 91v231q0 34 -22 43q-21 11 -35 0z" />
    <glyph glyph-name="j" unicode="j" horiz-adv-x="305" 
d="M215 527q-22 -22 -53 -22t-53 22q-21 23 -21 54t21 52q22 22 53 22t53 -22q22 -21 22 -52t-22 -54zM104 -64v389q0 27 -12 39.5t-25.5 10.5t-23.5 -5l191 106v-526q0 -95 -61 -130q-49 -28 -114 -28q-75 0 -127 32q-51 32 -51 90q0 24 18.5 43.5t41.5 19.5
q34 0 52.5 -31.5t12.5 -72.5q-3 -46 20 -63q24 -18 46 -9q22 8 26 32q6 24 6 103z" />
    <glyph glyph-name="k" unicode="k" horiz-adv-x="531" 
d="M223 722l-1 -625q0 -26 7 -46t16 -29t21 -14.5t18 -6.5t10 -1h-293q8 0 18.5 2.5t29 10.5t31 30t12.5 54v471q0 31 -17.5 45t-41.5 2zM223 205l106 124q36 39 13 83q-23 46 -84 47h276q-25 -4 -89 -44q-63 -38 -95 -74l-17 -18q-8 -11 -8 -22q1 -13 18 -39l21 -33l41 -63
l48 -67q27 -36 42 -50q42 -39 81 -47l13 -2h-287q24 0 31 17t-8 42l-24 37q-44 72 -62 90q-3 4 -7 10t-5.5 7.5t-3.5 1.5z" />
    <glyph glyph-name="l" unicode="l" horiz-adv-x="305" 
d="M212 722v-625q0 -32 13.5 -54.5t35.5 -31.5q35 -11 53 -11h-332q18 0 38 6q62 21 62 91v456q0 28 -6 44.5t-17.5 19.5t-17 3t-14.5 -2z" />
    <glyph glyph-name="m" unicode="m" horiz-adv-x="899" 
d="M233 476v-379q0 -26 8 -46t18.5 -29t24 -14.5t20 -6.5t11.5 -1h-293q5 0 11.5 1t20 6.5t23.5 14.5t18 29t8 46v222q0 31 -12 45.5t-24 11.5t-18 -4zM235 356q110 121 207 113q30 -1 56 -21q15 -10 26 -47q6 -18 6 -63q1 -10 0 -37v-35v-169q0 -26 8 -46t18.5 -29
t24 -14.5t20 -6.5t11.5 -1h-293q5 0 11.5 1t20 6.5t23.5 14.5t18 29t8 46v150q0 75 -6 103q-4 27 -29 38q-56 24 -130 -32zM534 356q47 50 98 82q55 34 107 30q35 -2 52 -19q2 -2 5 -4.5t4.5 -4l4.5 -4.5t4.5 -5t3 -5t3 -7t2.5 -8q9 -38 10 -53q1 -13 1 -29q2 -8 0 -32v-31
v-169q0 -26 8 -46t18.5 -29t24 -14.5t20 -6.5t11.5 -1h-293q5 0 11.5 1t20 6.5t23.5 14.5t18 29t8 46v142q0 73 -4 96q-5 27 -22 40q-59 43 -139 -19z" />
    <glyph glyph-name="n" unicode="n" horiz-adv-x="633" 
d="M236 476v-379q0 -52 26 -76q26 -21 57 -21h-294q16 0 32 6q50 21 50 91v231q0 27 -13 38.5t-22.5 10.5t-17.5 -4zM537 266v-169q0 -52 26 -76q26 -21 57 -21h-294q16 0 31 6q50 21 50 91v97v29q0 82 -4 110q-3 31 -20 48q-23 23 -66 15q-43 -7 -74 -41q30 44 85 82
q53 37 118 31q59 -6 74 -50q12 -27 15 -64q2 -30 2 -35v-39v-14z" />
    <glyph glyph-name="o" unicode="o" horiz-adv-x="568" 
d="M303 -11q-68 -5 -141 29q-39 18 -69 59.5t-42 97.5q-21 103 28 185t148 108q116 27 202 -29q85 -55 97 -181q10 -112 -55 -188q-65 -74 -168 -81zM380 285q-18 92 -60 146q-41 56 -91 25q-36 -22 -43 -106q-8 -86 12 -168q20 -97 61 -144t80 -35q31 10 44 59
q25 85 -3 223z" />
    <glyph glyph-name="p" unicode="p" horiz-adv-x="573" 
d="M531 236q2 -101 -59 -175q-60 -73 -141 -73q-70 0 -128 35v-149q0 -61 44 -77q31 -11 48 -11h-298q25 0 47 19q29 26 29 69v435q0 38 -15.5 52.5t-43.5 9.5l189 105v-93v-171q0 -105 45 -165q46 -59 104 -49q71 15 50 223q-16 162 -93 189q-49 16 -100 -34l2 4l5 8
q5 8 8.5 13t11 14.5t14.5 16t18 14.5t22 13t25.5 8.5t29.5 3.5q81 1 133 -64q51 -63 53 -171z" />
    <glyph glyph-name="q" unicode="q" horiz-adv-x="570" 
d="M498 470v-597q0 -61 44 -77q31 -11 48 -11h-314q16 0 47 11q44 15 44 77l1 368q0 84 -23 154q-26 83 -96 71q-38 -6 -56 -73q-18 -69 -11 -160q7 -84 38.5 -139t82.5 -63q46 -7 57 14q-8 -14 -24 -30q-29 -27 -77 -27q-93 -2 -155 60q-60 60 -62 179q-2 110 68 178
q70 69 162 70q87 1 158 -65v1zM360 45v1v-1z" />
    <glyph glyph-name="r" unicode="r" horiz-adv-x="463" 
d="M390 473q36 -1 54 -23t18 -51q0 -27 -15 -46.5t-43 -20.5q-20 -2 -35.5 8t-28.5 26.5t-17 19.5q-47 35 -90 -28v-270q0 -61 44 -77q31 -11 48 -11h-312q16 0 47 11q44 15 44 77v13v227q0 59 -50 48l179 100v-66v-23v-13q24 44 68.5 72t88.5 27zM218 333v-1v1z" />
    <glyph glyph-name="s" unicode="s" horiz-adv-x="468" 
d="M401 432v-137q-31 61 -86 109q-52 46 -106 51q-28 2 -44.5 -12t-16.5 -37q3 -65 124 -111q90 -36 127 -71.5t38 -82.5q1 -62 -38 -109q-39 -45 -131 -45q-104 0 -204 52l-3 163q47 -87 126 -144q54 -40 109 -49q53 -9 65 18q15 33 -19.5 69t-116.5 68q-163 63 -158 167
q2 61 52 101.5t136 40.5q37 0 74 -10t55 -21z" />
    <glyph glyph-name="t" unicode="t" horiz-adv-x="382" 
d="M278 51q35 -1 61.5 22.5t38.5 63.5q-9 -63 -45 -106t-104 -43q-88 0 -128 51t-40 155v247h-38l-12 9h50v123l132 74q0 -128 -1 -197h109l-9 -9h-100v-251q1 -72 20 -104.5t66 -34.5z" />
    <glyph glyph-name="u" unicode="u" horiz-adv-x="582" 
d="M234 78q22 -22 70 -15q49 8 78 41q-34 -47 -89 -82q-56 -37 -122 -31q-56 6 -75 49q-11 31 -14 64q-2 21 -2 75v14v159q0 52 -26 76q-24 21 -56 21h212v-97v-87q0 -130 7 -157q6 -19 17 -30zM386 50v311q0 62 -39 77q-28 11 -43 11h212v-333q0 -8 1.5 -14.5t4 -10
t6.5 -6.5t7.5 -4.5t8 -2t7 -0.5h6.5h4l-175 -98v70z" />
    <glyph glyph-name="v" unicode="v" horiz-adv-x="467" 
d="M318 450h202q-52 -10 -86 -46q-21 -21 -35 -53l-159 -386l-185 406q-16 32 -40 53t-43 24l-16 2h287h-3q-2 0 -7 -1t-10 -2.5t-11 -4.5t-11.5 -7t-9.5 -10.5t-5.5 -14.5t-0.5 -19t6 -24l86 -188q9 -20 22 -20q8 0 12 4t11 19l68 163l4 11q12 39 -10.5 65.5t-65.5 28.5z
" />
    <glyph glyph-name="w" unicode="w" horiz-adv-x="719" 
d="M575 450h202q-54 -11 -87 -47q-20 -19 -33 -51l-149 -384l-152 327l-110 -327l-198 402q-16 32 -40.5 53t-43.5 23l-17 3h271h-3.5t-9 -1.5t-12 -4t-11 -7.5t-8.5 -12t-2.5 -18t5.5 -24l86 -192q13 -31 26 -31q15 0 30 45l34 99l-32 68q-16 32 -36.5 52.5t-33.5 22.5
l-12 3h266q-3 0 -8.5 -1t-18 -5t-19 -12.5t-11 -24t6.5 -38.5l85 -189q10 -22 22 -22t26 33l61 156l4 11q13 39 -13 65q-27 27 -65 28z" />
    <glyph glyph-name="x" unicode="x" horiz-adv-x="521" 
d="M569 0h-280q15 0 27.5 8.5t16.5 25t-14 41.5l-87 114l-68 -78q-31 -35 -16 -70q6 -14 28 -25.5t45 -15.5h-225q49 17 86 44q46 33 82 78l63 73l-147 192q-19 26 -46 42t-46 19l-16 2h302l1 -1q-44 -9 -50 -28q-6 -23 14 -52l7 -9l4 -6l61 -79l62 72q33 37 19 70
q-2 5 -6 9.5t-10 8t-11 5.5t-13 4l-12 3t-12.5 2.5t-10.5 1.5h219l-5 -1q-3 -1 -19 -6.5t-32.5 -13t-29.5 -16.5q-33 -24 -69 -68l-65 -77l159 -205q46 -52 94 -64z" />
    <glyph glyph-name="y" unicode="y" horiz-adv-x="461" 
d="M321 450h201q-52 -10 -86 -46q-20 -21 -34 -53l-160 -386l-39 -95q-21 -52 -45.5 -68.5t-62.5 -10.5q-24 4 -36.5 25t-6.5 46q11 39 54 38q15 -2 28 -18q15 -16 20 -18q33 -13 54 40l27 68l-182 399q-15 33 -38.5 53.5t-43.5 23.5l-17 2h291q-9 0 -29 -7q-14 -5 -20 -14
q-21 -29 -3 -62l86 -188q9 -20 22 -20q9 0 12.5 4t10.5 19l69 163l4 11q12 38 -11.5 65t-64.5 29z" />
    <glyph glyph-name="z" unicode="z" horiz-adv-x="534" 
d="M230 1l13 -1q68 1 151 60q29 21 59 56q30 34 45 60l15 24l-44 -208l-442 2l288 405q36 53 -15 53h-6q-60 1 -150 -61q-53 -36 -86 -73l-14 -14l40 156l419 -1l-288 -404q-17 -24 -12.5 -39t27.5 -15z" />
    <glyph glyph-name="braceleft" unicode="{" horiz-adv-x="342" 
d="M328 699q-42 3 -67.5 -14.5t-39.5 -67.5q-18 -73 0 -177q17 -95 -30 -149q48 -53 35 -156l-7 -52l-8 -59q-8 -64 7 -110q11 -34 27.5 -48.5t38 -14.5t49.5 2q-107 -22 -158 29t-38 162l4 37q6 40 7 62q3 22 1 50q0 19 -9 41q-15 39 -61 55q27 4 48 32q22 30 18 106
q-10 95 -10 124q1 47 22 83t52 48q75 32 119 17z" />
    <glyph glyph-name="bar" unicode="|" horiz-adv-x="134" 
d="M60 -56v863h14v-863h-14z" />
    <glyph glyph-name="braceright" unicode="}" horiz-adv-x="352" 
d="M14 699q43 15 118 -17q31 -12 52 -48t22 -83q0 -29 -10 -124q-4 -76 18 -106q21 -28 48 -32q-46 -16 -61 -55q-9 -21 -10 -41q0 -25 1 -50l7 -62q1 -7 5 -37q13 -111 -38 -162t-157 -29q28 -2 49 -2t38 14.5t28 48.5q15 46 7 110l-8 59l-7 52q-13 103 35 156
q-47 54 -30 149q18 104 0 177q-14 51 -39.5 68.5t-67.5 13.5z" />
    <glyph glyph-name="asciitilde" unicode="~" horiz-adv-x="419" 
d="M60 284q1 44 27 68.5t62 21.5q26 -1 71 -28q44 -25 67 -25q61 0 73 47q3 -37 -17.5 -61t-55.5 -24q-36 0 -79 27q-43 28 -77 28q-55 0 -71 -54z" />
    <glyph glyph-name="exclamdown" unicode="&#xa1;" horiz-adv-x="273" 
d="M142 395q-27 0 -46.5 19t-19.5 46q0 26 19.5 45.5t46.5 19.5q26 0 45 -19.5t19 -45.5q0 -27 -19 -46t-45 -19zM144 364v2v-2zM144 364q0 -44 9 -100q9 -55 47 -207q14 -55 19.5 -93.5t2.5 -73t-22.5 -52t-54.5 -17.5q-90 0 -73 128q9 61 24 126q11 43 32 148
q16 80 16 141z" />
    <glyph glyph-name="cent" unicode="&#xa2;" horiz-adv-x="538" 
d="M505 169q-11 -77 -66 -132q-55 -53 -145 -55v-24h-10v24q-100 3 -165 67t-67 174q-1 109 66 176q66 66 166 74v58h10v-57q36 2 72 -6q55 -12 92.5 -47.5t39.5 -81.5q2 -35 -16.5 -54.5t-48.5 -17.5q-33 2 -48.5 27.5t-6.5 59.5q29 111 -56 114q-16 0 -28 -2v-383
q28 -6 46 -6q124 -3 165 92zM170 230q20 -112 114 -144v378q-65 -17 -96 -83q-31 -67 -18 -151z" />
    <glyph glyph-name="sterling" unicode="&#xa3;" horiz-adv-x="613" 
d="M454 708q64 -4 98.5 -37t31.5 -82q-1 -23 -15.5 -36.5t-35.5 -13.5q-31 0 -46.5 23t-5.5 58q11 37 -4.5 60.5t-45.5 21.5q-21 -2 -38 -26q-24 -34 -49 -112l-85 -275h79l-9 -9h-73q-24 -76 -47 -135q44 -5 63 -13q18 -7 52 -29q50 -35 102 -43q39 -5 71 4q33 10 37 34
q3 17 -12 24.5t-51 10.5q-18 1 -30.5 13.5t-15.5 31.5q-2 41 35 53q22 6 43 -3.5t31 -29.5q27 -40 15 -93q-14 -66 -47.5 -98t-100.5 -27q-72 6 -115 71q-42 70 -81 80q-34 -73 -49 -95q-33 -52 -85 -52q-50 0 -69 23.5t-11 58.5q8 33 39.5 56t77.5 30l33 128h-77l-12 9h92
q42 162 70 254q50 177 240 165zM68 72q13 8 19 21l6 14l12 33q-22 -2 -42 -18.5t-21 -34.5q-1 -9 8 -14.5t18 -0.5z" />
    <glyph glyph-name="currency" unicode="&#xa4;" horiz-adv-x="524" 
d="M451 357q0 -70 -43 -120l57 -56l-27 -26l-55 57q-53 -44 -121 -44q-64 0 -116 39l-59 -59l-27 27l59 58q-47 53 -47 124q0 72 46 122l-59 57l27 27l58 -59q50 41 118 41t121 -44l59 61l28 -26l-61 -60q42 -53 42 -119zM107 357q0 -65 45 -110q47 -45 110 -45q64 0 109 45
q45 46 45 110t-45 109q-45 46 -109 46t-110 -46q-45 -45 -45 -109z" />
    <glyph glyph-name="yen" unicode="&#xa5;" horiz-adv-x="571" 
d="M402 700h245q-91 -6 -150 -117l-109 -204h125l-9 -12h-420l-12 12h94l-148 237q-22 34 -52.5 56t-53.5 25l-20 3h373q-18 0 -41 -14q-64 -38 -20 -105l133 -202h35q34 59 101 186q30 54 9 94t-80 41zM207 300h-123l-12 12h441l-9 -12h-131q-2 -32 -2 -49v-141
q0 -75 53 -96q36 -14 59 -14h-382q23 0 59 14q53 21 53 96v141q0 23 -6 49z" />
    <glyph glyph-name="brokenbar" unicode="&#xa6;" horiz-adv-x="134" 
d="M60 409v273h14v-273h-14zM60 9v273h14v-273h-14z" />
    <glyph glyph-name="section" unicode="&#xa7;" horiz-adv-x="475" 
d="M247 527q115 -29 147 -68q34 -40 28 -96q-6 -52 -43 -98q43 -46 39 -116q-5 -62 -52 -102q-48 -39 -117 -39q-95 0 -139 43q-45 43 -45 101q0 26 13 43t37 17t38.5 -17.5t10.5 -39.5q0 -3 -4 -22t-5 -23q-3 -38 16 -54q25 -31 74 -36t87 20t40 72q1 39 -34 63.5
t-114 43.5q-97 22 -129 62q-32 41 -29 100q1 54 42 95q-37 39 -35 100q1 60 50 102q47 43 128 41q62 -2 105 -37q45 -36 45 -81q0 -50 -41 -50q-28 0 -38 18.5t-3 45.5q11 38 -20 67q-28 30 -74 28l-23 -4q-16 -4 -34 -16t-24 -28q-15 -38 9 -78q24 -41 94 -57zM113 438
q-8 -33 25.5 -62t98.5 -43q82 -17 129 -55q5 15 5 29q1 39 -35.5 67t-103.5 40q-71 14 -110 47q-6 -9 -9 -23z" />
    <glyph glyph-name="dieresis" unicode="&#xa8;" horiz-adv-x="600" 
d="M123 542q-26 0 -44.5 19t-18.5 46q0 24 18.5 41.5t44.5 17.5q27 0 45.5 -17.5t18.5 -41.5q0 -28 -18.5 -46.5t-45.5 -18.5zM351 542q-25 0 -44 19t-19 46q0 24 19 41.5t44 17.5q27 0 45.5 -17.5t18.5 -41.5q0 -28 -18 -46.5t-46 -18.5z" />
    <glyph glyph-name="copyright" unicode="&#xa9;" horiz-adv-x="750" 
d="M601 10q-95 -95 -229 -95q-133 0 -230 95q-95 97 -95 230q0 134 95 229q97 95 230 95q134 0 229 -95q96 -95 96 -229t-96 -230zM373 -75q131 0 223 92q93 93 93 224t-93 222q-92 93 -223 93t-223 -92t-92 -223q0 -130 92 -224q94 -92 223 -92zM259 233q12 -59 47.5 -97
t86.5 -48q63 -14 120 6t81 78q-15 -68 -73 -123q-56 -55 -146 -55q-97 0 -168 63q-70 63 -72 173q-1 93 48 156q49 61 122 84t154 7q55 -12 93 -49q39 -36 39 -80q0 -35 -17.5 -55t-47.5 -17q-34 5 -48.5 29t-6.5 58q29 111 -56 114q-83 2 -129 -71q-47 -72 -27 -173z" />
    <glyph glyph-name="guillemotleft" unicode="&#xab;" horiz-adv-x="389" 
d="M58 275l167 142l-94 -143l84 -150zM162 275l167 142l-94 -143l84 -150z" />
    <glyph glyph-name="logicalnot" unicode="&#xac;" horiz-adv-x="463" 
d="M59 310v13h345v-116h-13v103h-332z" />
    <glyph glyph-name="registered" unicode="&#xae;" horiz-adv-x="747" 
d="M142 469q97 95 230 95q134 0 229 -95q96 -95 96 -229t-96 -230q-95 -95 -229 -95q-133 0 -230 95q-95 97 -95 230q0 134 95 229zM373 -75q131 0 223 92q93 93 93 224t-93 222q-92 93 -223 93t-223 -92t-92 -223q0 -130 92 -224q94 -92 223 -92zM491 188l30 -56
q27 -50 63 -66l11 -4h-124q-22 28 -38 62l-44 80q-21 44 -53 44h-4v-153q0 -33 41 -33h-186q6 0 12.5 1.5t18 5.5t19 16.5t7.5 31.5v277q0 23 -13 38t-29 16l-15 2q2 0 80 2q64 3 90 2q106 -1 138 -35q25 -25 25 -69q-1 -42 -31 -72q-11 -10 -23 -16.5t-17.5 -8.5t-7.5 -2
q21 -6 50 -63zM379 262q57 20 57 91q0 103 -104 95v-193q27 0 47 7z" />
    <glyph glyph-name="overscore" unicode="&#xaf;" horiz-adv-x="467" 
d="M135 580v10l197 1v-11h-197z" />
    <glyph glyph-name="degree" unicode="&#xb0;" horiz-adv-x="238" 
d="M123 512q-24 0 -41.5 18t-17.5 42q0 25 17 43t42 18q27 0 44 -17t17 -44q-1 -24 -18.5 -42t-42.5 -18zM124 528q19 0 32 13.5t13 31.5t-13.5 31.5t-31.5 13.5t-31 -13.5t-13 -31.5t13 -31.5t31 -13.5z" />
    <glyph glyph-name="plusminus" unicode="&#xb1;" 
d="M281 551v-187h206v-13h-206v-187h-14v187h-207v13h207v187h14zM487 109h-427v13h427v-13z" />
    <glyph glyph-name="acute" unicode="&#xb4;" horiz-adv-x="600" 
d="M149 495l83 131q18 30 40.5 37t33.5 -10q8 -7 11 -17.5t-5.5 -26t-31.5 -30.5z" />
    <glyph glyph-name="middot" unicode="&#xb7;" horiz-adv-x="225" 
d="M149 345q-16 -16 -39 -16t-39 16t-16 39t16 39t39 16t39 -16q17 -16 17 -39t-17 -39z" />
    <glyph glyph-name="cedilla" unicode="&#xb8;" horiz-adv-x="286" 
d="M111 -69l46 65l19 4l-30 -43q44 -3 65 -26.5t15 -55.5q-6 -40 -39 -57.5t-69.5 -11.5t-57.5 27q29 -16 71 -5q41 11 45 46q3 27 -15.5 40.5t-49.5 16.5z" />
    <glyph glyph-name="guillemotright" unicode="&#xbb;" horiz-adv-x="389" 
d="M60 417l167 -142l-157 -151l84 150zM164 417l167 -142l-157 -151l84 150z" />
    <glyph glyph-name="questiondown" unicode="&#xbf;" horiz-adv-x="492" 
d="M249 517q27 0 46.5 -19.5t19.5 -45.5t-19.5 -45.5t-46.5 -19.5q-26 0 -45 19.5t-19 45.5t19 45.5t45 19.5zM249 368q11 -59 0.5 -120t-32.5 -105q-20 -42 -39 -91q-18 -51 -18 -92q-1 -66 23.5 -103t70.5 -38q42 -1 71.5 23t28.5 66q-2 18 -22 41q-21 24 -22 38
q-4 30 13 52t44 22t46 -22t20 -57q5 -64 -47 -116q-49 -50 -133 -55q-92 -4 -147 37.5t-56 121.5q0 13 2 26.5t8 28t10.5 25.5t14.5 27t16 25t19.5 26t18.5 24t20 25t19 23q71 87 71 168z" />
    <glyph glyph-name="Agrave" unicode="&#xc0;" horiz-adv-x="658" 
d="M405 767l-131 84q-23 15 -31.5 31t-5.5 26.5t11 17.5q11 17 33.5 10t40.5 -37zM319 748l287 -660q16 -36 45 -59q41 -29 81 -29h-393h3q4 1 10.5 3t14 5t16 7.5t15.5 10.5t13 15t8.5 19.5t1 24.5t-7.5 30l-61 155l-225 1l-58 -142q-21 -49 0.5 -87t75.5 -42h-232
q37 2 74 34t58 84l271 639zM245 517q-17 0 -58 -101l-54 -132h213l-59 155l-9 23q-24 52 -33 55zM736 0h-4h4z" />
    <glyph glyph-name="Aacute" unicode="&#xc1;" horiz-adv-x="658" 
d="M423 920q8 -7 11 -17.5t-5.5 -26.5t-31.5 -31l-132 -84l83 131q20 30 42 37t33 -9zM319 748l287 -660q16 -36 45 -59q41 -29 81 -29h-393h3q4 1 10.5 3t14 5t16 7.5t15.5 10.5t13 15t8.5 19.5t1 24.5t-7.5 30l-61 155l-225 1l-58 -142q-21 -49 0.5 -87t75.5 -42h-232
q37 2 74 34t58 84l271 639zM245 517q-17 0 -58 -101l-54 -132h213l-59 155l-9 23q-24 52 -33 55zM736 0h-4h4z" />
    <glyph glyph-name="Acircumflex" unicode="&#xc2;" horiz-adv-x="658" 
d="M365 882l68 -138l-103 92l-116 -92l83 138h68zM319 748l287 -660q16 -36 45 -59q41 -29 81 -29h-393h3q4 1 10.5 3t14 5t16 7.5t15.5 10.5t13 15t8.5 19.5t1 24.5t-7.5 30l-61 155l-225 1l-58 -142q-21 -49 0.5 -87t75.5 -42h-232q37 2 74 34t58 84l271 639zM245 517
q-17 0 -58 -101l-54 -132h213l-59 155l-9 23q-24 52 -33 55zM736 0h-4h4z" />
    <glyph glyph-name="Atilde" unicode="&#xc3;" horiz-adv-x="658" 
d="M246 854q-58 0 -73 -75q1 59 29 91.5t73 28.5q29 -3 63 -33q36 -28 59 -30q27 -2 48.5 16.5t27.5 52.5q0 -44 -24 -80q-24 -35 -64 -38q-27 -2 -53 14.5t-48 34.5t-38 18zM319 748l287 -660q16 -36 45 -59q41 -29 81 -29h-393h3q4 1 10.5 3t14 5t16 7.5t15.5 10.5t13 15
t8.5 19.5t1 24.5t-7.5 30l-61 155l-225 1l-58 -142q-21 -49 0.5 -87t75.5 -42h-232q37 2 74 34t58 84l271 639zM245 517q-17 0 -58 -101l-54 -132h213l-59 155l-9 23q-24 52 -33 55zM736 0h-4h4z" />
    <glyph glyph-name="Adieresis" unicode="&#xc4;" horiz-adv-x="658" 
d="M207 792q-26 0 -44.5 18.5t-18.5 45.5q0 25 18.5 42t44.5 17q27 0 45 -17t18 -42q0 -27 -18 -45.5t-45 -18.5zM435 792q-25 0 -44 18.5t-19 45.5q0 24 19 41.5t44 17.5q28 0 46 -17t18 -42q0 -27 -18 -45.5t-46 -18.5zM319 748l287 -660q16 -36 45 -59q41 -29 81 -29
h-393h3q4 1 10.5 3t14 5t16 7.5t15.5 10.5t13 15t8.5 19.5t1 24.5t-7.5 30l-61 155l-225 1l-58 -142q-21 -49 0.5 -87t75.5 -42h-232q37 2 74 34t58 84l271 639zM245 517q-17 0 -58 -101l-54 -132h213l-59 155l-9 23q-24 52 -33 55zM736 0h-4h4z" />
    <glyph glyph-name="Aring" unicode="&#xc5;" horiz-adv-x="658" 
d="M329 781q-25 0 -42.5 18t-17.5 43t17.5 43t42.5 18q27 0 44 -17t16 -44q-1 -25 -18.5 -43t-41.5 -18zM285 843q0 -19 13 -32.5t32 -13.5t31.5 13.5t12.5 32.5q0 18 -13 31.5t-31 13.5t-31.5 -13.5t-13.5 -31.5zM319 748l287 -660q16 -36 45 -59q41 -29 81 -29h-393h3
q4 1 10.5 3t14 5t16 7.5t15.5 10.5t13 15t8.5 19.5t1 24.5t-7.5 30l-61 155l-225 1l-58 -142q-21 -49 0.5 -87t75.5 -42h-232q37 2 74 34t58 84l271 639zM245 517q-17 0 -58 -101l-54 -132h213l-59 155l-9 23q-24 52 -33 55zM736 0h-4h4z" />
    <glyph glyph-name="AE" unicode="&#xc6;" horiz-adv-x="968" 
d="M905 225l14 26l-57 -251h-599q13 0 33 7q56 24 56 92v211h-173l-78 -144q-38 -75 -16 -120t91 -46h-262q10 0 31 9q25 11 61 45t61 80l304 566h481l44 -230q-14 30 -58 80q-40 46 -79 70q-116 71 -198 71h-50v-323h15q41 1 74 20.5t52 48.5t28.5 51t13.5 40l2 9v-346
q-2 21 -19 57q-11 27 -29 51q-19 24 -51.5 41t-71.5 17h-14v-278q0 -35 17 -52.5t44 -17.5h11q33 0 93 23q57 23 109 59q41 30 72 68q35 41 48 66zM284 508l-99 -186l167 1v192q0 69 -14 69q-11 0 -20 -13l-9 -15z" />
    <glyph glyph-name="Ccedilla" unicode="&#xc7;" horiz-adv-x="759" 
d="M500 83q134 -3 196 103l5 12q-2 -18 -23 -61q-13 -30 -35 -56q-22 -27 -61.5 -51.5t-84.5 -35.5q-45 -9 -81 -10l-20 -27q44 -3 65 -26.5t15 -55.5q-6 -40 -39 -57.5t-69.5 -11.5t-57.5 27q29 -16 71 -5q42 10 46 46q3 27 -15.5 40.5t-49.5 16.5l37 54q-148 5 -244 107
q-97 103 -100 238q-3 114 46 199q96 165 302 180q87 6 171 -16q60 -17 88 -35l10 -7l-2 -197q-62 124 -162 197q-101 75 -204 20q-59 -31 -85 -117q-25 -85 -10 -185q18 -129 99 -207q82 -78 192 -79z" />
    <glyph glyph-name="Egrave" unicode="&#xc8;" horiz-adv-x="734" 
d="M400 767l-131 84q-23 15 -31.5 31t-6 26.5t10.5 17.5q11 17 33 10t42 -37zM555 82q44 34 79.5 70t48.5 56l11 18l-45 -226h-640q21 0 59 17q23 10 37.5 35.5t14.5 60.5v481q0 35 -14 59.5t-38 32.5q-36 14 -59 14h612l34 -213q-35 63 -144 141q-50 35 -96.5 48t-113.5 13
h-22v-320h18q39 1 70.5 14.5t51 35t30 39t16.5 34.5l4 14v-296q-2 15 -20 50q-13 24 -31 44q-19 21 -52 36t-69 15h-18v-237q0 -109 91 -109h12q37 0 84.5 21t88.5 52z" />
    <glyph glyph-name="Eacute" unicode="&#xc9;" horiz-adv-x="734" 
d="M480 920q8 -7 11 -17.5t-5.5 -26.5t-31.5 -31l-131 -84l83 131q18 30 40.5 37.5t33.5 -9.5zM555 82q44 34 79.5 70t48.5 56l11 18l-45 -226h-640q21 0 59 17q23 10 37.5 35.5t14.5 60.5v481q0 35 -14 59.5t-38 32.5q-36 14 -59 14h612l34 -213q-35 63 -144 141
q-50 35 -96.5 48t-113.5 13h-22v-320h18q39 1 70.5 14.5t51 35t30 39t16.5 34.5l4 14v-296q-2 15 -20 50q-13 24 -31 44q-19 21 -52 36t-69 15h-18v-237q0 -109 91 -109h12q37 0 84.5 21t88.5 52z" />
    <glyph glyph-name="Ecircumflex" unicode="&#xca;" horiz-adv-x="734" 
d="M371 882l68 -138l-103 92l-116 -92l83 138h68zM555 82q44 34 79.5 70t48.5 56l11 18l-45 -226h-640q21 0 59 17q23 10 37.5 35.5t14.5 60.5v481q0 35 -14 59.5t-38 32.5q-36 14 -59 14h612l34 -213q-35 63 -144 141q-50 35 -96.5 48t-113.5 13h-22v-320h18
q39 1 70.5 14.5t51 35t30 39t16.5 34.5l4 14v-296q-2 15 -20 50q-13 24 -31 44q-19 21 -52 36t-69 15h-18v-237q0 -109 91 -109h12q37 0 84.5 21t88.5 52z" />
    <glyph glyph-name="Edieresis" unicode="&#xcb;" horiz-adv-x="734" 
d="M221 792q-25 0 -44 18.5t-19 45.5q0 24 19 41.5t44 17.5q27 0 45.5 -17t18.5 -42q0 -27 -18.5 -45.5t-45.5 -18.5zM450 792q-26 0 -44.5 18.5t-18.5 45.5q0 25 18.5 42t44.5 17q27 0 45.5 -17t18.5 -42q0 -27 -18.5 -45.5t-45.5 -18.5zM555 82q44 34 79.5 70t48.5 56
l11 18l-45 -226h-640q21 0 59 17q23 10 37.5 35.5t14.5 60.5v481q0 35 -14 59.5t-38 32.5q-36 14 -59 14h612l34 -213q-35 63 -144 141q-50 35 -96.5 48t-113.5 13h-22v-320h18q39 1 70.5 14.5t51 35t30 39t16.5 34.5l4 14v-296q-2 15 -20 50q-13 24 -31 44q-19 21 -52 36
t-69 15h-18v-237q0 -109 91 -109h12q37 0 84.5 21t88.5 52z" />
    <glyph glyph-name="Igrave" unicode="&#xcc;" horiz-adv-x="434" 
d="M269 767l-132 84q-23 15 -31.5 31t-5.5 26.5t11 17.5q11 17 33 10t42 -37zM288 580v-460q0 -63 36 -93q35 -27 77 -27h-381q7 0 16.5 1t27.5 8t31.5 18.5t24.5 35.5t11 57v460q0 65 -36 93q-14 12 -32 18q-24 9 -43 9h381q-24 0 -60 -15q-53 -22 -53 -105z" />
    <glyph glyph-name="Iacute" unicode="&#xcd;" horiz-adv-x="434" 
d="M322 920q8 -7 10.5 -17.5t-6 -26.5t-31.5 -31l-131 -84l83 131q18 30 41 37t34 -9zM288 580v-460q0 -63 36 -93q35 -27 77 -27h-381q7 0 16.5 1t27.5 8t31.5 18.5t24.5 35.5t11 57v460q0 65 -36 93q-14 12 -32 18q-24 9 -43 9h381q-24 0 -60 -15q-53 -22 -53 -105z" />
    <glyph glyph-name="Icircumflex" unicode="&#xce;" horiz-adv-x="434" 
d="M258 882l68 -138l-103 92l-116 -92l83 138h68zM288 580v-460q0 -63 36 -93q35 -27 77 -27h-381q7 0 16.5 1t27.5 8t31.5 18.5t24.5 35.5t11 57v460q0 65 -36 93q-14 12 -32 18q-24 9 -43 9h381q-24 0 -60 -15q-53 -22 -53 -105z" />
    <glyph glyph-name="Idieresis" unicode="&#xcf;" horiz-adv-x="434" 
d="M109 792q-25 0 -43.5 18.5t-18.5 45.5q0 24 18.5 41.5t43.5 17.5q28 0 46 -17t18 -42q0 -27 -18 -45.5t-46 -18.5zM338 792q-25 0 -44 18.5t-19 45.5q0 24 19 41.5t44 17.5q27 0 45.5 -17t18.5 -42q0 -27 -18.5 -45.5t-45.5 -18.5zM288 580v-460q0 -63 36 -93
q35 -27 77 -27h-381q7 0 16.5 1t27.5 8t31.5 18.5t24.5 35.5t11 57v460q0 65 -36 93q-14 12 -32 18q-24 9 -43 9h381q-24 0 -60 -15q-53 -22 -53 -105z" />
    <glyph glyph-name="Eth" unicode="&#xd0;" horiz-adv-x="805" 
d="M25 700h364q378 10 379 -336q0 -170 -94 -264t-235 -100h-45h-369q20 0 47 8q75 21 75 102v242h-86l-12 9h98v229q0 28 -11.5 51t-27.5 34t-36 17q-27 8 -47 8zM441 13q73 9 115 102.5t40 255.5q-3 303 -211 316q-34 1 -70 0v-326h82l-9 -9h-73v-229q0 -111 81 -111
q41 0 45 1z" />
    <glyph glyph-name="Ntilde" unicode="&#xd1;" horiz-adv-x="797" 
d="M345 854q-58 0 -73 -75q1 59 29 91.5t73 28.5q28 -3 63 -33q36 -28 59 -30q26 -2 48 16.5t28 52.5q0 -44 -24 -80q-24 -35 -64 -38q-27 -2 -53 14.5t-48 34.5t-38 18zM640 303v244q0 79 -43 115q-16 14 -40 24q-27 12 -56 14h293q-27 -2 -57 -13q-84 -34 -84 -140v-575
l-457 541q-20 21 -30.5 14t-10.5 -39v-323q0 -43 14 -75.5t36.5 -50t40.5 -25.5t36 -12l15 -2h-298q15 0 49 14q39 14 65.5 51t28.5 100v332q0 57 -14.5 99t-36.5 62.5t-37 29t-28 11.5l-4 1h235l348 -416q17 -20 25 -18q10 1 10 37zM653 -28v-1h-1z" />
    <glyph glyph-name="Ograve" unicode="&#xd2;" horiz-adv-x="837" 
d="M417 899l84 -132l-132 84q-23 15 -31.5 31t-5.5 26.5t11 17.5q11 17 33.5 10t40.5 -37zM434 709q84 0 151 -30.5t106 -83.5q78 -103 76 -246q-1 -70 -24.5 -133.5t-67 -114.5t-114.5 -81t-158 -29q-84 1 -153 34.5t-110 89.5q-83 112 -78 242q1 157 106 255
q106 98 266 97zM580 373q-18 137 -80 236q-61 97 -145 83q-66 -10 -98 -103q-30 -92 -11 -232q19 -137 79 -240q60 -101 139 -107q80 -8 109 91q30 98 7 272z" />
    <glyph glyph-name="Oacute" unicode="&#xd3;" horiz-adv-x="837" 
d="M379 761l83 131q18 30 41 37t34 -9q8 -7 10.5 -17.5t-6 -26.5t-31.5 -31zM434 709q-160 1 -266 -97q-105 -98 -106 -255q-5 -130 78 -242q41 -56 110 -89.5t153 -34.5q87 -1 158 29t114.5 81t67 114.5t24.5 133.5q2 143 -76 246q-39 53 -106 83.5t-151 30.5zM580 373
q23 -174 -7 -272q-29 -99 -109 -91q-79 6 -139 107q-60 103 -79 240q-19 140 11 232q32 93 98 103q84 14 145 -83q62 -99 80 -236z" />
    <glyph glyph-name="Ocircumflex" unicode="&#xd4;" horiz-adv-x="837" 
d="M304 744l83 138h68l68 -138l-102 92zM434 709q-160 1 -266 -97q-105 -98 -106 -255q-5 -130 78 -242q41 -56 110 -89.5t153 -34.5q87 -1 158 29t114.5 81t67 114.5t24.5 133.5q2 143 -76 246q-39 53 -106 83.5t-151 30.5zM580 373q23 -174 -7 -272q-29 -99 -109 -91
q-79 6 -139 107q-60 103 -79 240q-19 140 11 232q32 93 98 103q84 14 145 -83q62 -99 80 -236z" />
    <glyph glyph-name="Otilde" unicode="&#xd5;" horiz-adv-x="837" 
d="M269 779q1 59 28.5 91.5t72.5 28.5q28 -3 63 -33q36 -28 60 -30q26 -2 47.5 16.5t27.5 52.5q0 -44 -24 -80q-23 -35 -63 -38q-32 -1 -56 15t-44 33.5t-40 18.5q-57 0 -72 -75zM434 709q-160 1 -266 -97q-105 -98 -106 -255q-5 -130 78 -242q41 -56 110 -89.5t153 -34.5
q87 -1 158 29t114.5 81t67 114.5t24.5 133.5q2 143 -76 246q-39 53 -106 83.5t-151 30.5zM580 373q23 -174 -7 -272q-29 -99 -109 -91q-79 6 -139 107q-60 103 -79 240q-19 140 11 232q32 93 98 103q84 14 145 -83q62 -99 80 -236z" />
    <glyph glyph-name="Odieresis" unicode="&#xd6;" horiz-adv-x="837" 
d="M307 792q-26 0 -44.5 18.5t-18.5 45.5q0 25 18.5 42t44.5 17q27 0 45.5 -17t18.5 -42q0 -27 -18.5 -45.5t-45.5 -18.5zM536 792q-26 0 -44.5 18.5t-18.5 45.5q0 25 18.5 42t44.5 17q27 0 45 -17t18 -42q0 -27 -18 -45.5t-45 -18.5zM434 709q84 0 151 -30.5t106 -83.5
q78 -103 76 -246q-1 -70 -24.5 -133.5t-67 -114.5t-114.5 -81t-158 -29q-84 1 -153 34.5t-110 89.5q-83 112 -78 242q1 157 106 255q106 98 266 97zM580 373q-18 137 -80 236q-61 97 -145 83q-66 -10 -98 -103q-30 -92 -11 -232q19 -137 79 -240q60 -101 139 -107
q80 -8 109 91q30 98 7 272z" />
    <glyph glyph-name="multiply" unicode="&#xd7;" horiz-adv-x="436" 
d="M229 351l148 -148l-12 -11l-147 148l-148 -148l-10 10l148 148l-145 144l12 11l144 -144l143 143l10 -10z" />
    <glyph glyph-name="Oslash" unicode="&#xd8;" horiz-adv-x="858" 
d="M712 701l-50 -61q60 -50 90.5 -126.5t28.5 -164.5q-2 -144 -92 -248q-44 -52 -114.5 -81.5t-156.5 -28.5q-131 3 -217 77l-55 -68h-16l61 76q-58 53 -87.5 128t-26.5 153q1 157 106 255t266 97q121 0 204 -62l44 54h15zM261 357q11 -79 37 -150l258 319q-33 86 -81.5 131
t-104.5 35q-66 -10 -98 -103q-30 -92 -11 -232zM478 10q80 -8 109 91q30 98 7 272q-9 71 -33 141l-258 -320q31 -82 77 -131t98 -53z" />
    <glyph glyph-name="Ugrave" unicode="&#xd9;" horiz-adv-x="753" 
d="M492 767l-132 84q-23 15 -31.5 31t-5.5 26.5t11 17.5q11 17 33 10t42 -37zM618 322v223q0 47 -14.5 81t-38.5 49q-35 23 -64 25h239q-9 -1 -17 -3t-27 -12.5t-31.5 -26.5t-23 -48.5t-10.5 -74.5v-226q0 -38 -1 -51q0 -15 -5 -57q-5 -40 -13 -63q-25 -75 -67 -107
q-59 -46 -149 -46q-162 0 -226 82t-64 251v252q0 69 -34 101q-36 33 -73 29h385q-22 0 -47 -9q-64 -26 -64 -121v-290q0 -132 48 -195.5t140 -57.5q83 6 120 76t37 219z" />
    <glyph glyph-name="Uacute" unicode="&#xda;" horiz-adv-x="753" 
d="M583 920q7 -7 10 -17.5t-5.5 -26.5t-31.5 -31l-131 -84l83 131q18 30 41 37t34 -9zM618 322v223q0 47 -14.5 81t-38.5 49q-35 23 -64 25h239q-9 -1 -17 -3t-27 -12.5t-31.5 -26.5t-23 -48.5t-10.5 -74.5v-226q0 -38 -1 -51q0 -15 -5 -57q-5 -40 -13 -63q-25 -75 -67 -107
q-59 -46 -149 -46q-162 0 -226 82t-64 251v252q0 69 -34 101q-36 33 -73 29h385q-22 0 -47 -9q-64 -26 -64 -121v-290q0 -132 48 -195.5t140 -57.5q83 6 120 76t37 219z" />
    <glyph glyph-name="Ucircumflex" unicode="&#xdb;" horiz-adv-x="753" 
d="M481 882l69 -138l-103 92l-117 -92l83 138h68zM618 322v223q0 47 -14.5 81t-38.5 49q-35 23 -64 25h239q-9 -1 -17 -3t-27 -12.5t-31.5 -26.5t-23 -48.5t-10.5 -74.5v-226q0 -38 -1 -51q0 -15 -5 -57q-5 -40 -13 -63q-25 -75 -67 -107q-59 -46 -149 -46q-162 0 -226 82
t-64 251v252q0 69 -34 101q-36 33 -73 29h385q-22 0 -47 -9q-64 -26 -64 -121v-290q0 -132 48 -195.5t140 -57.5q83 6 120 76t37 219z" />
    <glyph glyph-name="Udieresis" unicode="&#xdc;" horiz-adv-x="753" 
d="M334 792q-25 0 -44 18.5t-19 45.5q0 24 19 41.5t44 17.5q27 0 45.5 -17t18.5 -42q0 -27 -18.5 -45.5t-45.5 -18.5zM563 792q-26 0 -44.5 18.5t-18.5 45.5q0 25 18.5 42t44.5 17q27 0 45.5 -17t18.5 -42q0 -27 -18.5 -45.5t-45.5 -18.5zM618 322v223q0 47 -14.5 81
t-38.5 49q-35 23 -64 25h239q-9 -1 -17 -3t-27 -12.5t-31.5 -26.5t-23 -48.5t-10.5 -74.5v-226q0 -38 -1 -51q0 -15 -5 -57q-5 -40 -13 -63q-25 -75 -67 -107q-59 -46 -149 -46q-162 0 -226 82t-64 251v252q0 69 -34 101q-36 33 -73 29h385q-22 0 -47 -9q-64 -26 -64 -121
v-290q0 -132 48 -195.5t140 -57.5q83 6 120 76t37 219z" />
    <glyph glyph-name="Yacute" unicode="&#xdd;" horiz-adv-x="637" 
d="M375 761l83 131q20 30 42 37t33 -9q8 -7 11 -17.5t-5.5 -26.5t-31.5 -31zM478 700q57 -7 73 -42t-12 -85l-97 -174q-36 -67 -70 -6l-114 195q-23 43 -5 76.5t61 34.5l-356 1q27 0 66.5 -29t72.5 -82l139 -228q29 -47 29 -121l-1 -133q0 -67 -44 -90q-31 -17 -54 -17h357
q-22 1 -56 18q-19 10 -31.5 35t-12.5 58v157q0 72 20 110l109 198q61 105 148 124h-222z" />
    <glyph glyph-name="Thorn" unicode="&#xde;" horiz-adv-x="608" 
d="M557 470q25 -60 8 -129q-17 -67 -60 -99q-37 -28 -108 -37q-69 -9 -126 2q70 0 116 46.5t49 134.5q2 75 -25.5 119t-81.5 52q-14 2 -65 2v-470q0 -61 43 -80q31 -11 50 -11h-346q19 0 50 11q43 19 43 80v518q0 30 -12 51t-31 28q-27 12 -50 12h346q-23 0 -50 -12
q-19 -7 -31 -28t-12 -51v-37q57 3 67 3q74 0 130 -17q65 -19 96 -88z" />
    <glyph glyph-name="germandbls" unicode="&#xdf;" horiz-adv-x="559" 
d="M532 164q2 -74 -43 -119.5t-118 -45.5q-50 0 -88 32q-37 31 -37 77q0 24 15 37t36 13q16 0 23 -7q26 -17 26 -64q0 -78 38 -78q37 0 37 109v6q1 109 -73 149q-53 30 -64 47q-8 18 -8 19q-1 9 -1 17v8q0 18 37 59q37 44 41 136q1 25 -1 47.5t-8 46t-20 37.5t-34 14
q-41 0 -54.5 -30t-13.5 -110v-486q0 -54 39 -69q27 -9 44 -9h-294q17 0 43 9q39 15 39 69v463q0 49 18 84.5t50 54t69.5 26t83.5 6.5q82 -1 121 -57q40 -54 32 -116q-6 -47 -26.5 -79.5t-45.5 -47t-49.5 -22.5t-41 -14t-16.5 -14q0 -12 21 -18q10 -2 35.5 -5t33.5 -4
q73 -14 112 -61t42 -110z" />
    <glyph glyph-name="agrave" unicode="&#xe0;" 
d="M286 644l84 -131l-132 84q-23 15 -31.5 31t-5.5 26.5t11 17.5q11 17 33.5 9.5t40.5 -37.5zM335 66v201q-87 -27 -123 -54q-35 -27 -37 -75q-1 -28 12.5 -50.5t37.5 -30.5q56 -15 105 31q-8 -11 -29 -35q-5 -6 -32 -31q-40 -37 -100 -37q-64 0 -92 37t-27 82q1 53 49 88
q20 15 55 29q37 16 65 23l78 22q5 1 17.5 4t20.5 6v56q0 74 -23.5 107.5t-72.5 24.5q-30 -5 -44.5 -22t-17.5 -64q0 -10 8.5 -35t8.5 -33q1 -35 -31 -52t-64 -1.5t-30 59.5q1 63 58 104q57 40 117 51q32 9 72 4.5t74.5 -16.5t56.5 -45t20 -80v-227q0 -34 11 -48t31 -11
q12 1 23.5 12.5t15.5 23.5l4 12q-7 -33 -27 -69q-25 -43 -89 -43q-45 0 -73 22t-28 60z" />
    <glyph glyph-name="aacute" unicode="&#xe1;" 
d="M242 514l83 131q18 30 41 37t34 -9q8 -7 10.5 -17.5t-6 -26.5t-31.5 -31zM335 66q0 -38 28 -60t73 -22q64 0 89 43q20 36 27 69l-4 -12q-4 -12 -15.5 -23.5t-23.5 -12.5q-20 -3 -31 11t-11 48v227q2 47 -20 80t-56.5 45t-74.5 16.5t-72 -4.5q-60 -11 -117 -51
q-57 -41 -58 -104q-2 -44 30 -59.5t64 1.5t31 52q0 8 -8.5 33t-8.5 35q3 47 17.5 64t44.5 22q49 9 72.5 -24.5t23.5 -107.5v-56q-8 -3 -20.5 -6t-17.5 -4l-78 -22q-28 -7 -65 -23q-35 -14 -55 -29q-48 -35 -49 -88q-1 -45 27 -82t92 -37q60 0 100 37q27 25 32 31
q21 24 29 35q-49 -46 -105 -31q-24 8 -37.5 30.5t-12.5 50.5q2 48 37 75q36 27 123 54v-201z" />
    <glyph glyph-name="acircumflex" unicode="&#xe2;" 
d="M191 492l83 138h68l68 -138l-102 92zM335 66q0 -38 28 -60t73 -22q64 0 89 43q20 36 27 69l-4 -12q-4 -12 -15.5 -23.5t-23.5 -12.5q-20 -3 -31 11t-11 48v227q2 47 -20 80t-56.5 45t-74.5 16.5t-72 -4.5q-60 -11 -117 -51q-57 -41 -58 -104q-2 -44 30 -59.5t64 1.5
t31 52q0 8 -8.5 33t-8.5 35q3 47 17.5 64t44.5 22q49 9 72.5 -24.5t23.5 -107.5v-56q-8 -3 -20.5 -6t-17.5 -4l-78 -22q-28 -7 -65 -23q-35 -14 -55 -29q-48 -35 -49 -88q-1 -45 27 -82t92 -37q60 0 100 37q27 25 32 31q21 24 29 35q-49 -46 -105 -31q-24 8 -37.5 30.5
t-12.5 50.5q2 48 37 75q36 27 123 54v-201z" />
    <glyph glyph-name="atilde" unicode="&#xe3;" 
d="M151 513q1 59 29 91.5t73 28.5q29 -3 63 -33q36 -28 59 -30q27 -2 48.5 17t27.5 52q0 -43 -24 -79t-64 -39q-27 -2 -53 14.5t-48 34.5t-38 18q-58 0 -73 -75zM335 66q0 -38 28 -60t73 -22q64 0 89 43q20 36 27 69l-4 -12q-4 -12 -15.5 -23.5t-23.5 -12.5q-20 -3 -31 11
t-11 48v227q2 47 -20 80t-56.5 45t-74.5 16.5t-72 -4.5q-60 -11 -117 -51q-57 -41 -58 -104q-2 -44 30 -59.5t64 1.5t31 52q0 8 -8.5 33t-8.5 35q3 47 17.5 64t44.5 22q49 9 72.5 -24.5t23.5 -107.5v-56q-8 -3 -20.5 -6t-17.5 -4l-78 -22q-28 -7 -65 -23q-35 -14 -55 -29
q-48 -35 -49 -88q-1 -45 27 -82t92 -37q60 0 100 37q27 25 32 31q21 24 29 35q-49 -46 -105 -31q-24 8 -37.5 30.5t-12.5 50.5q2 48 37 75q36 27 123 54v-201z" />
    <glyph glyph-name="adieresis" unicode="&#xe4;" 
d="M183 542q-26 0 -44.5 19t-18.5 46q0 24 18.5 41.5t44.5 17.5q27 0 45.5 -17.5t18.5 -41.5q0 -28 -18.5 -46.5t-45.5 -18.5zM411 542q-25 0 -44 19t-19 46q0 24 19 41.5t44 17.5q27 0 45.5 -17.5t18.5 -41.5q0 -28 -18 -46.5t-46 -18.5zM335 66v201q-87 -27 -123 -54
q-35 -27 -37 -75q-1 -28 12.5 -50.5t37.5 -30.5q56 -15 105 31q-8 -11 -29 -35q-5 -6 -32 -31q-40 -37 -100 -37q-64 0 -92 37t-27 82q1 53 49 88q20 15 55 29q37 16 65 23l78 22q5 1 17.5 4t20.5 6v56q0 74 -23.5 107.5t-72.5 24.5q-30 -5 -44.5 -22t-17.5 -64
q0 -10 8.5 -35t8.5 -33q1 -35 -31 -52t-64 -1.5t-30 59.5q1 63 58 104q57 40 117 51q32 9 72 4.5t74.5 -16.5t56.5 -45t20 -80v-227q0 -34 11 -48t31 -11q12 1 23.5 12.5t15.5 23.5l4 12q-7 -33 -27 -69q-25 -43 -89 -43q-45 0 -73 22t-28 60z" />
    <glyph glyph-name="aring" unicode="&#xe5;" 
d="M231 572q0 25 17 43t42 18q27 0 44 -17t16 -44q-1 -24 -18.5 -42t-41.5 -18t-41.5 18t-17.5 42zM260 541q13 -13 31 -13t31 13q13 14 13 32t-13 31q-13 14 -31 14t-31 -14q-13 -13 -13 -31t13 -32zM335 66v201q-87 -27 -123 -54q-35 -27 -37 -75q-1 -28 12.5 -50.5
t37.5 -30.5q56 -15 105 31q-8 -11 -29 -35q-5 -6 -32 -31q-40 -37 -100 -37q-64 0 -92 37t-27 82q1 53 49 88q20 15 55 29q37 16 65 23l78 22q5 1 17.5 4t20.5 6v56q0 74 -23.5 107.5t-72.5 24.5q-30 -5 -44.5 -22t-17.5 -64q0 -10 8.5 -35t8.5 -33q1 -35 -31 -52t-64 -1.5
t-30 59.5q1 63 58 104q57 40 117 51q32 9 72 4.5t74.5 -16.5t56.5 -45t20 -80v-227q0 -34 11 -48t31 -11q12 1 23.5 12.5t15.5 23.5l4 12q-7 -33 -27 -69q-25 -43 -89 -43q-45 0 -73 22t-28 60z" />
    <glyph glyph-name="ae" unicode="&#xe6;" horiz-adv-x="794" 
d="M359 78l-31 -27q-15 -14 -38 -32q-45 -31 -106 -31q-72 0 -104 35q-31 36 -30 82q1 22 7.5 40.5t15 32t27 25.5t33 20t44 17.5t48.5 14.5l57 15l36 9v56q0 73 -22 105t-62 28q-39 -4 -57.5 -28t-13.5 -63q0 -2 7 -24t8 -32q1 -25 -15 -42.5t-43 -18.5q-27 -2 -45.5 17
t-17.5 50q2 62 71 108q51 36 121 39q109 7 154 -62q0 3 22 19t41 25q46 22 117 18q78 -7 124 -65t44 -149h-303q0 -80 34 -131.5t99 -58.5q55 -6 102 15.5t67 66.5q-16 -64 -63 -112q-47 -47 -116 -50q-50 -2 -108 20q-59 22 -100 75q-50 75 -45 188q-80 -30 -111.5 -60
t-28.5 -80q2 -34 25 -58.5t58 -26.5q32 -2 52 3.5t46 26.5zM448 269q68 0 103 4q53 5 83 32q23 23 30 64q7 43 -18 74q-21 22 -56.5 21.5t-67.5 -24.5q-73 -53 -74 -171z" />
    <glyph glyph-name="ccedilla" unicode="&#xe7;" horiz-adv-x="537" 
d="M495 167q-10 -75 -64 -130q-52 -53 -138 -58l-16 -22q44 -3 65 -26.5t15 -55.5q-6 -40 -39 -57.5t-69.5 -11.5t-57.5 27q29 -16 71 -5q42 10 46 46q3 27 -15.5 40.5t-49.5 16.5l33 48q-97 1 -166 67q-66 64 -68 175q-1 87 45.5 150.5t119.5 88t149 6.5q55 -12 92 -47.5
t40 -81.5q2 -35 -16.5 -54.5t-49.5 -17.5q-32 1 -47.5 27t-6.5 60q29 111 -56 114q-82 2 -125 -70q-44 -73 -28 -168q12 -69 57 -110.5t114 -42.5q124 -3 165 92z" />
    <glyph glyph-name="egrave" unicode="&#xe8;" horiz-adv-x="539" 
d="M289 644l83 -131l-131 84q-23 15 -31.5 31t-5.5 26.5t11 17.5q11 17 33.5 9.5t40.5 -37.5zM339 72q118 0 155 91q-9 -77 -67 -129q-58 -51 -148 -48q-108 5 -170 71q-63 69 -64 170q-2 145 110 213q36 21 82 30t82 4q78 -12 125 -68t45 -143h-324q0 -86 47.5 -138
t126.5 -53zM237 445q-40 -27 -56 -81q-16 -51 -16 -94q83 0 118 5q51 8 80 38q27 25 25 75q-1 50 -36 70q-20 13 -53 10t-62 -23z" />
    <glyph glyph-name="eacute" unicode="&#xe9;" horiz-adv-x="539" 
d="M258 514l83 131q18 30 40.5 37.5t33.5 -9.5q8 -7 11 -17.5t-5.5 -26.5t-31.5 -31zM339 72q-79 1 -126.5 53t-47.5 138h324q2 87 -45 143t-125 68q-36 5 -82 -4t-82 -30q-112 -68 -110 -213q1 -101 64 -170q62 -66 170 -71q90 -3 148 48q58 52 67 129q-37 -91 -155 -91z
M237 445q29 20 62 23t53 -10q35 -20 36 -70q2 -50 -25 -75q-29 -30 -80 -38q-35 -5 -118 -5q0 43 16 94q16 54 56 81z" />
    <glyph glyph-name="ecircumflex" unicode="&#xea;" horiz-adv-x="539" 
d="M180 492l83 138h68l69 -138l-103 92zM339 72q-79 1 -126.5 53t-47.5 138h324q2 87 -45 143t-125 68q-36 5 -82 -4t-82 -30q-112 -68 -110 -213q1 -101 64 -170q62 -66 170 -71q90 -3 148 48q58 52 67 129q-37 -91 -155 -91zM237 445q29 20 62 23t53 -10q35 -20 36 -70
q2 -50 -25 -75q-29 -30 -80 -38q-35 -5 -118 -5q0 43 16 94q16 54 56 81z" />
    <glyph glyph-name="edieresis" unicode="&#xeb;" horiz-adv-x="539" 
d="M176 542q-26 0 -44.5 19t-18.5 46q0 24 18.5 41.5t44.5 17.5q27 0 45.5 -17.5t18.5 -41.5q0 -28 -18.5 -46.5t-45.5 -18.5zM404 542q-25 0 -44 19t-19 46q0 24 19 41.5t44 17.5q27 0 45.5 -17.5t18.5 -41.5q0 -28 -18 -46.5t-46 -18.5zM339 72q118 0 155 91
q-9 -77 -67 -129q-58 -51 -148 -48q-108 5 -170 71q-63 69 -64 170q-2 145 110 213q36 21 82 30t82 4q78 -12 125 -68t45 -143h-324q0 -86 47.5 -138t126.5 -53zM237 445q-40 -27 -56 -81q-16 -51 -16 -94q83 0 118 5q51 8 80 38q27 25 25 75q-1 50 -36 70q-20 13 -53 10
t-62 -23z" />
    <glyph glyph-name="igrave" unicode="&#xec;" horiz-adv-x="432" 
d="M293 513l-131 84q-23 15 -31.5 31t-5.5 26.5t11 17.5q11 17 33.5 9.5t40.5 -37.5zM285 475v-378q0 -27 8 -47t18 -29t23.5 -14.5t20 -6t12.5 -0.5h-303q18 0 35 6q56 21 56 91v231q0 34 -22 43q-21 11 -35 0z" />
    <glyph glyph-name="iacute" unicode="&#xed;" horiz-adv-x="432" 
d="M299 673q8 -7 10.5 -17.5t-6 -26.5t-31.5 -31l-131 -84l83 131q18 30 41 37t34 -9zM285 475v-378q0 -27 8 -47t18 -29t23.5 -14.5t20 -6t12.5 -0.5h-303q18 0 35 6q56 21 56 91v231q0 34 -22 43q-21 11 -35 0z" />
    <glyph glyph-name="icircumflex" unicode="&#xee;" horiz-adv-x="432" 
d="M272 630l68 -138l-102 92l-117 -92l83 138h68zM285 475v-378q0 -27 8 -47t18 -29t23.5 -14.5t20 -6t12.5 -0.5h-303q18 0 35 6q56 21 56 91v231q0 34 -22 43q-21 11 -35 0z" />
    <glyph glyph-name="idieresis" unicode="&#xef;" horiz-adv-x="432" 
d="M116 542q-25 0 -44 19t-19 46q0 24 19 41.5t44 17.5q27 0 45.5 -17.5t18.5 -41.5q0 -28 -18.5 -46.5t-45.5 -18.5zM345 666q27 0 45 -17.5t18 -41.5q0 -28 -18 -46.5t-45 -18.5q-26 0 -44.5 19t-18.5 46q0 24 18.5 41.5t44.5 17.5zM285 475v-378q0 -27 8 -47t18 -29
t23.5 -14.5t20 -6t12.5 -0.5h-303q18 0 35 6q56 21 56 91v231q0 34 -22 43q-21 11 -35 0z" />
    <glyph glyph-name="eth" unicode="&#xf0;" horiz-adv-x="572" 
d="M521 281q7 -121 -58 -205q-64 -82 -164 -88q-24 -2 -50.5 2t-57 16.5t-56.5 32.5t-47.5 55.5t-31.5 81.5q-22 110 24 189q48 80 143 104q36 9 69.5 7t50 -5t20.5 -5q-10 51 -30 98l-79 -45l-15 2l91 51q-38 85 -113 144q86 -39 159 -118l65 37l-3 -12l-56 -32
q128 -140 139 -310zM338 3q45 11 53 103q9 92 -12 179q-23 98 -61 147q-38 50 -86 24q-30 -16 -40 -67q-19 -84 4 -197q21 -98 59.5 -148.5t82.5 -40.5z" />
    <glyph glyph-name="ntilde" unicode="&#xf1;" horiz-adv-x="633" 
d="M251 588q-57 0 -72 -75q1 59 28.5 91.5t72.5 28.5q28 -3 63 -33q36 -28 60 -30q26 -2 47.5 17t27.5 52q0 -43 -24 -79q-22 -36 -63 -39q-32 -1 -56 15t-44 33.5t-40 18.5zM236 476v-379q0 -52 26 -76q26 -21 57 -21h-294q16 0 32 6q50 21 50 91v231q0 27 -13 38.5
t-22.5 10.5t-17.5 -4zM537 266v-169q0 -52 26 -76q26 -21 57 -21h-294q16 0 31 6q50 21 50 91v97v29q0 82 -4 110q-3 31 -20 48q-23 23 -66 15q-43 -7 -74 -41q30 44 85 82q53 37 118 31q59 -6 74 -50q12 -27 15 -64q2 -30 2 -35v-39v-14z" />
    <glyph glyph-name="ograve" unicode="&#xf2;" horiz-adv-x="568" 
d="M297 644l83 -131l-131 84q-23 15 -31.5 31t-5.5 26.5t11 17.5q11 17 33.5 9.5t40.5 -37.5zM303 -11q-68 -5 -141 29q-39 18 -69 59.5t-42 97.5q-21 103 28 185t148 108q116 27 202 -29q85 -55 97 -181q10 -112 -55 -188q-65 -74 -168 -81zM380 285q-18 92 -60 146
q-41 56 -91 25q-36 -22 -43 -106q-8 -86 12 -168q20 -97 61 -144t80 -35q31 10 44 59q25 85 -3 223z" />
    <glyph glyph-name="oacute" unicode="&#xf3;" horiz-adv-x="568" 
d="M253 514l83 131q18 30 41 37t34 -9q7 -7 10 -17.5t-5.5 -26.5t-31.5 -31zM303 -11q103 7 168 81q65 76 55 188q-12 126 -97 181q-86 56 -202 29q-99 -26 -148 -108t-28 -185q12 -56 42 -97.5t69 -59.5q73 -34 141 -29zM380 285q28 -138 3 -223q-13 -49 -44 -59
q-39 -12 -80 35t-61 144q-20 82 -12 168q7 84 43 106q50 31 91 -25q42 -54 60 -146z" />
    <glyph glyph-name="ocircumflex" unicode="&#xf4;" horiz-adv-x="568" 
d="M187 492l83 138h69l68 -138l-103 92zM303 -11q103 7 168 81q65 76 55 188q-12 126 -97 181q-86 56 -202 29q-99 -26 -148 -108t-28 -185q12 -56 42 -97.5t69 -59.5q73 -34 141 -29zM380 285q28 -138 3 -223q-13 -49 -44 -59q-39 -12 -80 35t-61 144q-20 82 -12 168
q7 84 43 106q50 31 91 -25q42 -54 60 -146z" />
    <glyph glyph-name="otilde" unicode="&#xf5;" horiz-adv-x="568" 
d="M148 513q1 59 28.5 91.5t72.5 28.5q29 -3 63 -33q36 -28 60 -30q26 -2 47.5 17t27.5 52q0 -43 -24 -79q-23 -36 -63 -39q-32 -1 -56 15t-44 33.5t-40 18.5q-57 0 -72 -75zM303 -11q103 7 168 81q65 76 55 188q-12 126 -97 181q-86 56 -202 29q-99 -26 -148 -108t-28 -185
q12 -56 42 -97.5t69 -59.5q73 -34 141 -29zM380 285q28 -138 3 -223q-13 -49 -44 -59q-39 -12 -80 35t-61 144q-20 82 -12 168q7 84 43 106q50 31 91 -25q42 -54 60 -146z" />
    <glyph glyph-name="odieresis" unicode="&#xf6;" horiz-adv-x="568" 
d="M191 542q-26 0 -44.5 19t-18.5 46q0 24 18.5 41.5t44.5 17.5q27 0 45 -17.5t18 -41.5q0 -28 -18 -46.5t-45 -18.5zM419 542q-25 0 -44 19t-19 46q0 24 19 41.5t44 17.5q27 0 45.5 -17.5t18.5 -41.5q0 -28 -18 -46.5t-46 -18.5zM303 -11q-68 -5 -141 29q-39 18 -69 59.5
t-42 97.5q-21 103 28 185t148 108q116 27 202 -29q85 -55 97 -181q10 -112 -55 -188q-65 -74 -168 -81zM380 285q-18 92 -60 146q-41 56 -91 25q-36 -22 -43 -106q-8 -86 12 -168q20 -97 61 -144t80 -35q31 10 44 59q25 85 -3 223z" />
    <glyph glyph-name="divide" unicode="&#xf7;" horiz-adv-x="524" 
d="M268 331q-21 0 -36.5 15t-15.5 37q0 20 15.5 35t36.5 15q20 0 35.5 -15t15.5 -35q0 -21 -15.5 -36.5t-35.5 -15.5zM60 260v9h404v-9h-404zM268 93q-21 0 -36.5 15.5t-15.5 35.5t15.5 35.5t36.5 15.5q20 0 35.5 -15.5t15.5 -35.5t-15.5 -35.5t-35.5 -15.5z" />
    <glyph glyph-name="oslash" unicode="&#xf8;" horiz-adv-x="610" 
d="M540 258q10 -112 -54 -187q-64 -74 -168 -82q-108 -7 -180 55l-40 -44h-13l46 51q-50 47 -66 124q-21 103 28 185t149 108q138 32 223 -46l26 29h12l-31 -35q58 -58 68 -158zM212 182q1 -12 8 -32l164 182q-23 75 -60 112q-38 38 -81 12q-36 -22 -43 -106q-8 -86 12 -168
zM353 3q31 10 44 59q25 89 -2 223q-1 8 -8 36l-164 -182q22 -76 58.5 -111t71.5 -25z" />
    <glyph glyph-name="ugrave" unicode="&#xf9;" horiz-adv-x="582" 
d="M386 513l-132 84q-23 15 -31.5 31t-5.5 26.5t11 17.5q11 16 33 9t42 -37zM234 78q22 -22 70 -15q49 8 78 41q-34 -47 -89 -82q-56 -37 -122 -31q-56 6 -75 49q-11 31 -14 64q-2 21 -2 75v14v159q0 52 -26 76q-24 21 -56 21h212v-97v-87q0 -130 7 -157q6 -19 17 -30z
M386 50v311q0 62 -39 77q-28 11 -43 11h212v-333q0 -8 1.5 -14.5t4 -10t6.5 -6.5t7.5 -4.5t8 -2t7 -0.5h6.5h4l-175 -98v70z" />
    <glyph glyph-name="uacute" unicode="&#xfa;" horiz-adv-x="582" 
d="M410 673q8 -7 11 -17.5t-5.5 -26.5t-31.5 -31l-132 -84l84 131q18 30 40.5 37.5t33.5 -9.5zM234 78q22 -22 70 -15q49 8 78 41q-34 -47 -89 -82q-56 -37 -122 -31q-56 6 -75 49q-11 31 -14 64q-2 21 -2 75v14v159q0 52 -26 76q-24 21 -56 21h212v-97v-87q0 -130 7 -157
q6 -19 17 -30zM386 50v311q0 62 -39 77q-28 11 -43 11h212v-333q0 -8 1.5 -14.5t4 -10t6.5 -6.5t7.5 -4.5t8 -2t7 -0.5h6.5h4l-175 -98v70z" />
    <glyph glyph-name="ucircumflex" unicode="&#xfb;" horiz-adv-x="582" 
d="M339 630l68 -138l-102 92l-117 -92l83 138h68zM234 78q22 -22 70 -15q49 8 78 41q-34 -47 -89 -82q-56 -37 -122 -31q-56 6 -75 49q-11 31 -14 64q-2 21 -2 75v14v159q0 52 -26 76q-24 21 -56 21h212v-97v-87q0 -130 7 -157q6 -19 17 -30zM386 50v311q0 62 -39 77
q-28 11 -43 11h212v-333q0 -8 1.5 -14.5t4 -10t6.5 -6.5t7.5 -4.5t8 -2t7 -0.5h6.5h4l-175 -98v70z" />
    <glyph glyph-name="udieresis" unicode="&#xfc;" horiz-adv-x="582" 
d="M197 542q-25 0 -44 19t-19 46q0 24 19 41.5t44 17.5q27 0 45.5 -17.5t18.5 -41.5q0 -28 -18 -46.5t-46 -18.5zM426 542q-26 0 -44.5 19t-18.5 46q0 24 18.5 41.5t44.5 17.5q27 0 45.5 -17.5t18.5 -41.5q0 -28 -18.5 -46.5t-45.5 -18.5zM234 78q22 -22 70 -15q49 8 78 41
q-34 -47 -89 -82q-56 -37 -122 -31q-56 6 -75 49q-11 31 -14 64q-2 21 -2 75v14v159q0 52 -26 76q-24 21 -56 21h212v-97v-87q0 -130 7 -157q6 -19 17 -30zM386 50v311q0 62 -39 77q-28 11 -43 11h212v-333q0 -8 1.5 -14.5t4 -10t6.5 -6.5t7.5 -4.5t8 -2t7 -0.5h6.5h4
l-175 -98v70z" />
    <glyph glyph-name="yacute" unicode="&#xfd;" horiz-adv-x="461" 
d="M420 673q8 -7 11 -17.5t-5.5 -26.5t-31.5 -31l-132 -84l83 131q20 30 42 37t33 -9zM321 450h201q-52 -10 -86 -46q-20 -21 -34 -53l-160 -386l-39 -95q-21 -52 -45.5 -68.5t-62.5 -10.5q-24 4 -36.5 25t-6.5 46q11 39 54 38q15 -2 28 -18q15 -16 20 -18q33 -13 54 40
l27 68l-182 399q-15 33 -38.5 53.5t-43.5 23.5l-17 2h291q-9 0 -29 -7q-14 -5 -20 -14q-21 -29 -3 -62l86 -188q9 -20 22 -20q9 0 12.5 4t10.5 19l69 163l4 11q12 38 -11.5 65t-64.5 29z" />
    <glyph glyph-name="thorn" unicode="&#xfe;" horiz-adv-x="575" 
d="M534 236q1 -98 -61 -174q-62 -74 -143 -74q-72 0 -128 35v-163q0 -54 44 -68q28 -10 48 -10h-313q19 0 47 10q44 13 44 68v700q0 47 -31 52q-24 4 -36 0l197 111v-108v-413q0 -104 41 -160q41 -55 100 -44q46 2 63 95q4 19 3 50q0 35 -1 42q0 3 -2 37q-11 162 -98 188
q-26 10 -51 1q-39 -15 -47 -31q7 16 34 48q35 45 100 47q82 1 135 -64q53 -64 55 -175z" />
    <glyph glyph-name="ydieresis" unicode="&#xff;" horiz-adv-x="461" 
d="M159 542q-26 0 -44.5 19t-18.5 46q0 24 18.5 41.5t44.5 17.5q27 0 45.5 -17.5t18.5 -41.5q0 -28 -18.5 -46.5t-45.5 -18.5zM387 542q-25 0 -44 19t-19 46q0 24 19 41.5t44 17.5q27 0 45.5 -17.5t18.5 -41.5q0 -28 -18 -46.5t-46 -18.5zM321 450h201q-52 -10 -86 -46
q-20 -21 -34 -53l-160 -386l-39 -95q-21 -52 -45.5 -68.5t-62.5 -10.5q-24 4 -36.5 25t-6.5 46q11 39 54 38q15 -2 28 -18q15 -16 20 -18q33 -13 54 40l27 68l-182 399q-15 33 -38.5 53.5t-43.5 23.5l-17 2h291q-9 0 -29 -7q-14 -5 -20 -14q-21 -29 -3 -62l86 -188
q9 -20 22 -20q9 0 12.5 4t10.5 19l69 163l4 11q12 38 -11.5 65t-64.5 29z" />
    <glyph glyph-name="Amacron" unicode="&#x100;" horiz-adv-x="658" 
d="M226 799l197 1v-11h-197v10zM319 748l287 -660q16 -36 45 -59q41 -29 81 -29h-393h3q4 1 10.5 3t14 5t16 7.5t15.5 10.5t13 15t8.5 19.5t1 24.5t-7.5 30l-61 155l-225 1l-58 -142q-21 -49 0.5 -87t75.5 -42h-232q37 2 74 34t58 84l271 639zM245 517q-17 0 -58 -101
l-54 -132h213l-59 155l-9 23q-24 52 -33 55zM736 0h-4h4z" />
    <glyph glyph-name="amacron" unicode="&#x101;" 
d="M208 540v10l197 1v-11h-197zM335 66v201q-87 -27 -123 -54q-35 -27 -37 -75q-1 -28 12.5 -50.5t37.5 -30.5q56 -15 105 31q-8 -11 -29 -35q-5 -6 -32 -31q-40 -37 -100 -37q-64 0 -92 37t-27 82q1 53 49 88q20 15 55 29q37 16 65 23l78 22q5 1 17.5 4t20.5 6v56
q0 74 -23.5 107.5t-72.5 24.5q-30 -5 -44.5 -22t-17.5 -64q0 -10 8.5 -35t8.5 -33q1 -35 -31 -52t-64 -1.5t-30 59.5q1 63 58 104q57 40 117 51q32 9 72 4.5t74.5 -16.5t56.5 -45t20 -80v-227q0 -34 11 -48t31 -11q12 1 23.5 12.5t15.5 23.5l4 12q-7 -33 -27 -69
q-25 -43 -89 -43q-45 0 -73 22t-28 60z" />
    <glyph glyph-name="Abreve" unicode="&#x102;" horiz-adv-x="658" 
d="M326 789q-46 0 -73.5 31t-28.5 78q7 -30 34.5 -46t65.5 -16q85 0 98 61q-2 -42 -26 -75q-26 -33 -70 -33zM319 748l287 -660q16 -36 45 -59q41 -29 81 -29h-393h3q4 1 10.5 3t14 5t16 7.5t15.5 10.5t13 15t8.5 19.5t1 24.5t-7.5 30l-61 155l-225 1l-58 -142
q-21 -49 0.5 -87t75.5 -42h-232q37 2 74 34t58 84l271 639zM245 517q-17 0 -58 -101l-54 -132h213l-59 155l-9 23q-24 52 -33 55zM736 0h-4h4z" />
    <glyph glyph-name="abreve" unicode="&#x103;" 
d="M295 576q85 0 98 61q-1 -44 -27.5 -76.5t-68.5 -32.5q-46 0 -73.5 31.5t-28.5 78.5q7 -30 34.5 -46t65.5 -16zM335 66q0 -38 28 -60t73 -22q64 0 89 43q20 36 27 69l-4 -12q-4 -12 -15.5 -23.5t-23.5 -12.5q-20 -3 -31 11t-11 48v227q2 47 -20 80t-56.5 45t-74.5 16.5
t-72 -4.5q-60 -11 -117 -51q-57 -41 -58 -104q-2 -44 30 -59.5t64 1.5t31 52q0 8 -8.5 33t-8.5 35q3 47 17.5 64t44.5 22q49 9 72.5 -24.5t23.5 -107.5v-56q-8 -3 -20.5 -6t-17.5 -4l-78 -22q-28 -7 -65 -23q-35 -14 -55 -29q-48 -35 -49 -88q-1 -45 27 -82t92 -37
q60 0 100 37q27 25 32 31q21 24 29 35q-49 -46 -105 -31q-24 8 -37.5 30.5t-12.5 50.5q2 48 37 75q36 27 123 54v-201z" />
    <glyph glyph-name="Aogonek" unicode="&#x104;" horiz-adv-x="658" 
d="M732 0h-148q-60 -41 -45 -103q10 -40 46 -53q37 -14 62 2q-21 -23 -61.5 -28.5t-79 13.5t-47.5 61q-7 28 1.5 58t32.5 50h-154h3q4 1 10.5 3t14 5t16 7.5t15.5 10.5t13 15t8.5 19.5t1 24.5t-7.5 30l-61 155l-225 1l-58 -142q-21 -49 0.5 -87t75.5 -42h-232q37 2 74 34
t58 84l271 639l3 -9l287 -660q16 -36 45 -59q41 -29 81 -29zM245 517q-17 0 -58 -101l-54 -132h213l-59 155l-9 23q-24 52 -33 55zM736 0h-4h4z" />
    <glyph glyph-name="aogonek" unicode="&#x105;" 
d="M509 48q12 1 23.5 12.5t15.5 23.5l4 12q-7 -33 -27 -69q-25 -43 -89 -43q-45 0 -73 22t-28 60v201q-87 -27 -123 -54q-35 -27 -37 -75q-1 -28 12.5 -50.5t37.5 -30.5q56 -15 105 31q-58 -72 -103 -92q-47 -46 -33 -102q10 -40 46 -53q37 -14 62 2q-21 -23 -61.5 -28.5
t-79 14t-47.5 60.5q-15 57 25 99q-45 8 -67.5 41t-21.5 75q1 53 49 88q20 15 55 29q37 16 65 23l78 22q5 1 17.5 4t20.5 6v56q0 74 -23.5 107.5t-72.5 24.5q-30 -5 -44.5 -22t-17.5 -64q0 -10 8.5 -35t8.5 -33q1 -35 -31 -52t-64 -1.5t-30 59.5q1 63 58 104q57 40 117 51
q32 9 72 4.5t74.5 -16.5t56.5 -45t20 -80v-227q0 -34 11 -48t31 -11z" />
    <glyph glyph-name="Cacute" unicode="&#x106;" horiz-adv-x="759" 
d="M369 761l83 131q20 30 42 37t33 -9q8 -7 11 -17.5t-5.5 -26.5t-31.5 -31zM209 369q-15 100 10 185q26 86 85 117q103 55 204 -20q100 -73 162 -197l2 197l-10 7q-28 18 -88 35q-84 22 -171 16q-206 -15 -302 -180q-49 -85 -46 -199q2 -74 35.5 -143t90.5 -120
q59 -52 142.5 -72.5t173.5 -0.5q45 11 84.5 35.5t61.5 51.5q22 26 35 56q21 43 23 61l-5 -12q-62 -106 -196 -103q-110 1 -192 79q-81 78 -99 207z" />
    <glyph glyph-name="cacute" unicode="&#x107;" horiz-adv-x="537" 
d="M273 514l83 131q18 30 40.5 37.5t33.5 -9.5q8 -7 11 -17.5t-5.5 -26.5t-31.5 -31zM159 228q-16 95 28 168q43 72 125 70q85 -3 56 -114q-9 -34 6.5 -60t47.5 -27q31 -2 49.5 17.5t16.5 54.5q-3 46 -40 81.5t-92 47.5q-76 18 -149 -6.5t-119.5 -88t-45.5 -150.5
q2 -110 69 -176q67 -64 169 -66q92 -2 148 54q57 57 67 134q-41 -95 -165 -92q-69 1 -114 42.5t-57 110.5z" />
    <glyph glyph-name="Cdotaccent" unicode="&#x10a;" horiz-adv-x="759" 
d="M461 814q-17 -18 -42 -18t-43 18q-18 19 -18 44t18 42q18 18 43 18t42 -18q18 -17 18 -42t-18 -44zM209 369q18 -129 99 -207q82 -78 192 -79q134 -3 196 103l5 12q-2 -18 -23 -61q-13 -30 -35 -56q-22 -27 -61.5 -51.5t-84.5 -35.5q-90 -20 -173.5 0.5t-142.5 72.5
q-57 51 -90.5 120t-35.5 143q-3 114 46 199q96 165 302 180q87 6 171 -16q60 -17 88 -35l10 -7l-2 -197q-62 124 -162 197q-101 75 -204 20q-59 -31 -85 -117q-25 -85 -10 -185z" />
    <glyph glyph-name="cdotaccent" unicode="&#x10b;" horiz-adv-x="537" 
d="M310 534q-27 0 -46.5 19.5t-19.5 45.5t19.5 45.5t46.5 19.5q26 0 45 -19.5t19 -45.5t-19 -45.5t-45 -19.5zM159 228q12 -69 57 -110.5t114 -42.5q124 -3 165 92q-10 -77 -67 -134q-56 -56 -148 -54q-102 2 -169 66q-67 66 -69 176q-1 87 45.5 150.5t119.5 88t149 6.5
q55 -12 92 -47.5t40 -81.5q2 -35 -16.5 -54.5t-49.5 -17.5q-32 1 -47.5 27t-6.5 60q29 111 -56 114q-82 2 -125 -70q-44 -73 -28 -168z" />
    <glyph glyph-name="Ccaron" unicode="&#x10c;" horiz-adv-x="759" 
d="M303 892l117 -91l102 91l-68 -138h-68zM209 369q-15 100 10 185q26 86 85 117q103 55 204 -20q100 -73 162 -197l2 197l-10 7q-28 18 -88 35q-84 22 -171 16q-206 -15 -302 -180q-49 -85 -46 -199q2 -74 35.5 -143t90.5 -120q59 -52 142.5 -72.5t173.5 -0.5
q45 11 84.5 35.5t61.5 51.5q22 26 35 56q21 43 23 61l-5 -12q-62 -106 -196 -103q-110 1 -192 79q-81 78 -99 207z" />
    <glyph glyph-name="ccaron" unicode="&#x10d;" horiz-adv-x="537" 
d="M206 652l117 -92l102 92l-68 -138h-68zM159 228q-16 95 28 168q43 72 125 70q85 -3 56 -114q-9 -34 6.5 -60t47.5 -27q31 -2 49.5 17.5t16.5 54.5q-3 46 -40 81.5t-92 47.5q-76 18 -149 -6.5t-119.5 -88t-45.5 -150.5q2 -110 69 -176q67 -64 169 -66q92 -2 148 54
q57 57 67 134q-41 -95 -165 -92q-69 1 -114 42.5t-57 110.5z" />
    <glyph glyph-name="Dcaron" unicode="&#x10e;" horiz-adv-x="794" 
d="M445 892l-68 -138h-69l-83 138l117 -91zM734 364q0 -114 -46 -196q-86 -160 -283 -168h-45h-368q26 0 64 14q26 9 41.5 34.5t15.5 61.5v480q0 36 -15.5 61.5t-41.5 34.5q-38 14 -64 14h364q378 10 378 -336zM407 13q74 9 116 102.5t40 255.5q-3 302 -212 316q-7 1 -35 1
q-27 0 -34 -1v-564q0 -111 81 -111q41 0 44 1z" />
    <glyph glyph-name="dcaron" unicode="&#x10f;" horiz-adv-x="569" 
d="M204 646q-27 -3 -47.5 14t-23.5 44q-3 28 14 48.5t43 22.5q25 3 45 -10l12 -11q8 -10 13 -22q11 -37 9 -84t-27.5 -99.5t-66.5 -79.5q35 31 53 85q20 56 9 104q-13 -10 -33 -12zM552 83l18 3l-200 -112v240q0 107 -28 179q-29 76 -83 77q-36 2 -58 -35q-34 -58 -25 -200
q8 -72 36 -129t76 -69q27 -6 48.5 5.5t29.5 28.5q-6 -18 -25 -45q-27 -40 -93 -42q-88 -3 -148 61q-60 65 -63 171q-4 121 59 189q65 70 154 71q34 1 68.5 -7.5t51.5 -22.5v109q0 37 -20 51t-45 5l193 111v-586q0 -29 17 -42.5t37 -10.5z" />
    <glyph glyph-name="Dcroat" unicode="&#x110;" horiz-adv-x="823" 
d="M7 700h364q378 10 378 -336q0 -170 -94 -264q-93 -94 -235 -100h-45h-368q26 0 64 14q26 9 41.5 34.5t15.5 61.5v242h-76l-12 9h88v229q0 36 -15.5 61.5t-41.5 34.5q-38 14 -64 14zM422 13q73 9 115 102.5t40 255.5q-3 303 -211 316q-34 1 -70 0v-326h91l-9 -9h-82v-229
q0 -111 81 -111q42 0 45 1z" />
    <glyph glyph-name="dslash" unicode="&#x111;" horiz-adv-x="630" 
d="M566 83l18 3l-199 -112v240q0 66 -11 122t-37 94.5t-63 39.5q-36 2 -58 -35q-38 -63 -25 -200q9 -73 37 -129q28 -57 75 -69q51 -12 78 34q-7 -20 -25 -46q-27 -39 -93 -41q-88 -3 -149 61q-60 65 -63 171q-5 122 60 189q65 70 154 71q34 1 68.5 -7.5t51.5 -22.5v84h-46
v10h46v15q0 36 -20.5 50.5t-44.5 5.5l193 111v-181h61v-11h-61v-394q0 -29 16.5 -42.5t36.5 -10.5z" />
    <glyph glyph-name="Emacron" unicode="&#x112;" horiz-adv-x="734" 
d="M256 799l197 1v-11h-197v10zM555 82q44 34 79.5 70t48.5 56l11 18l-45 -226h-640q21 0 59 17q23 10 37.5 35.5t14.5 60.5v481q0 35 -14 59.5t-38 32.5q-36 14 -59 14h612l34 -213q-35 63 -144 141q-50 35 -96.5 48t-113.5 13h-22v-320h18q39 1 70.5 14.5t51 35t30 39
t16.5 34.5l4 14v-296q-2 15 -20 50q-13 24 -31 44q-19 21 -52 36t-69 15h-18v-237q0 -109 91 -109h12q37 0 84.5 21t88.5 52z" />
    <glyph glyph-name="emacron" unicode="&#x113;" horiz-adv-x="539" 
d="M213 540v10l197 1v-11h-197zM339 72q118 0 155 91q-9 -77 -67 -129q-58 -51 -148 -48q-108 5 -170 71q-63 69 -64 170q-2 145 110 213q36 21 82 30t82 4q78 -12 125 -68t45 -143h-324q0 -86 47.5 -138t126.5 -53zM237 445q-40 -27 -56 -81q-16 -51 -16 -94q83 0 118 5
q51 8 80 38q27 25 25 75q-1 50 -36 70q-20 13 -53 10t-62 -23z" />
    <glyph glyph-name="Edotaccent" unicode="&#x116;" horiz-adv-x="734" 
d="M407 814q-17 -18 -42 -18t-43 18q-18 19 -18 44t18 42q18 18 43 18t42 -18q18 -17 18 -42t-18 -44zM555 82q44 34 79.5 70t48.5 56l11 18l-45 -226h-640q21 0 59 17q23 10 37.5 35.5t14.5 60.5v481q0 35 -14 59.5t-38 32.5q-36 14 -59 14h612l34 -213q-35 63 -144 141
q-50 35 -96.5 48t-113.5 13h-22v-320h18q39 1 70.5 14.5t51 35t30 39t16.5 34.5l4 14v-296q-2 15 -20 50q-13 24 -31 44q-19 21 -52 36t-69 15h-18v-237q0 -109 91 -109h12q37 0 84.5 21t88.5 52z" />
    <glyph glyph-name="edotaccent" unicode="&#x117;" horiz-adv-x="539" 
d="M310 534q-27 0 -46.5 19.5t-19.5 45.5q0 27 19 46t47 19q26 0 44.5 -19.5t18.5 -45.5t-18.5 -45.5t-44.5 -19.5zM339 72q118 0 155 91q-9 -77 -67 -129q-58 -51 -148 -48q-108 5 -170 71q-63 69 -64 170q-2 145 110 213q36 21 82 30t82 4q78 -12 125 -68t45 -143h-324
q0 -86 47.5 -138t126.5 -53zM237 445q-40 -27 -56 -81q-16 -51 -16 -94q83 0 118 5q51 8 80 38q27 25 25 75q-1 50 -36 70q-20 13 -53 10t-62 -23z" />
    <glyph glyph-name="Eogonek" unicode="&#x118;" horiz-adv-x="734" 
d="M586 -106q10 -40 46 -53q37 -14 62 2q-21 -23 -62 -28.5t-79 14t-46 60.5q-17 68 37 111h-535q21 0 59 17q23 10 37.5 35.5t14.5 60.5v481q0 35 -14 59.5t-38 32.5q-36 14 -59 14h612l34 -213q-35 63 -144 141q-50 35 -96.5 48t-113.5 13h-22v-320h18q39 1 70.5 14.5
t51 35t30 39t16.5 34.5l4 14v-296q-2 15 -20 50q-13 24 -31 44q-19 21 -52 36t-69 15h-18v-237q0 -109 91 -109h12q37 0 84.5 21t88.5 52q44 34 79.5 70t48.5 56l11 18l-45 -226h-14q-64 -42 -49 -106z" />
    <glyph glyph-name="eogonek" unicode="&#x119;" horiz-adv-x="539" 
d="M315 -13q-45 -39 -32 -93q10 -40 46 -53q37 -14 62 2q-21 -23 -61.5 -28.5t-79 14t-47.5 60.5q-13 61 28 102q-85 18 -134.5 81.5t-51.5 154.5q-2 145 110 213q36 21 82 30t82 4q78 -12 125 -68t45 -143h-324q0 -86 47.5 -138t126.5 -53q118 0 155 91
q-8 -70 -56.5 -118.5t-122.5 -57.5zM237 445q-40 -27 -56 -81q-16 -51 -16 -94q83 0 118 5q51 8 80 38q27 25 25 75q-1 50 -36 70q-20 13 -53 10t-62 -23z" />
    <glyph glyph-name="Ecaron" unicode="&#x11a;" horiz-adv-x="734" 
d="M439 892l-68 -138h-68l-83 138l116 -91zM555 82q44 34 79.5 70t48.5 56l11 18l-45 -226h-640q21 0 59 17q23 10 37.5 35.5t14.5 60.5v481q0 35 -14 59.5t-38 32.5q-36 14 -59 14h612l34 -213q-35 63 -144 141q-50 35 -96.5 48t-113.5 13h-22v-320h18q39 1 70.5 14.5
t51 35t30 39t16.5 34.5l4 14v-296q-2 15 -20 50q-13 24 -31 44q-19 21 -52 36t-69 15h-18v-237q0 -109 91 -109h12q37 0 84.5 21t88.5 52z" />
    <glyph glyph-name="ecaron" unicode="&#x11b;" horiz-adv-x="539" 
d="M189 652l116 -92l103 92l-68 -138h-68zM339 72q-79 1 -126.5 53t-47.5 138h324q2 87 -45 143t-125 68q-36 5 -82 -4t-82 -30q-112 -68 -110 -213q1 -101 64 -170q62 -66 170 -71q90 -3 148 48q58 52 67 129q-37 -91 -155 -91zM237 445q29 20 62 23t53 -10q35 -20 36 -70
q2 -50 -25 -75q-29 -30 -80 -38q-35 -5 -118 -5q0 43 16 94q16 54 56 81z" />
    <glyph glyph-name="Gbreve" unicode="&#x11e;" horiz-adv-x="778" 
d="M395 836q85 0 98 61q-2 -42 -26 -75q-25 -33 -70 -33q-46 0 -73.5 31t-28.5 78q7 -30 34.5 -46t65.5 -16zM754 292h-304l12 -1q13 -1 27.5 -6t32.5 -15t29 -30t11 -47v-5v-35q0 -26 -4 -42q-9 -32 -16 -43q-15 -21 -35 -33q-27 -14 -62 -13q-79 5 -149 94q-69 89 -89 235
q-17 125 12 213q30 89 100 114q90 34 180 -30q52 -35 96 -95q42 -57 66 -109v210q-79 46 -212 52q-113 5 -215 -40q-55 -25 -98 -64q-44 -41 -70 -105.5t-26 -142.5q0 -159 91 -265q91 -105 244 -105q122 0 217 104q15 -3 46 -39q32 -35 43 -67v211q0 43 18.5 67.5
t36.5 27.5z" />
    <glyph glyph-name="gbreve" unicode="&#x11f;" horiz-adv-x="482" 
d="M271 528q-46 0 -73.5 31.5t-28.5 78.5q7 -30 34.5 -46t65.5 -16q85 0 98 61q-1 -44 -27.5 -76.5t-68.5 -32.5zM485 491q20 0 30 -11.5t6 -26.5q-4 -16 -19 -20.5t-39 4.5q-15 15 -30.5 16t-49.5 -22q53 60 102 60zM280 82q165 -10 180 -111q13 -93 -51 -154
q-37 -35 -91.5 -53.5t-110.5 -13.5q-91 7 -143.5 44.5t-52.5 93.5q0 38 18 64.5t35 35.5l6 4q-17 -76 35 -114q53 -40 149 -53q64 -10 115 2q50 12 61 38q18 47 -32 77t-129 29q-107 -1 -165 19.5t-64 69.5q-5 24 15 47q28 34 82 57l-5 2q-98 42 -95 151q1 101 122 145
q41 15 95 13q53 -1 91 -21q54 -25 76 -85q23 -60 0 -110q-16 -37 -43 -59.5t-74 -37.5q-82 -24 -157 -1q-23 -11 -27 -28t11 -31q12 -12 33.5 -15.5t61 -3.5t54.5 -1zM190 460q-32 -16 -36 -78q-5 -64 17 -126q23 -61 56 -82t62 -4q25 12 29 54q8 64 -16 146
q-21 63 -51.5 84.5t-60.5 5.5z" />
    <glyph glyph-name="Gdotaccent" unicode="&#x120;" horiz-adv-x="778" 
d="M480 814q-17 -18 -42 -18t-43 18q-18 19 -18 44t18 42q18 18 43 18t42 -18q18 -17 18 -42t-18 -44zM450 292h304q-3 0 -8 -1t-17.5 -6.5t-22 -15t-17.5 -29.5t-8 -47v-211q-11 32 -43 67q-31 36 -46 39q-95 -104 -217 -104q-153 0 -244 105q-91 106 -91 265
q0 78 26 142.5t70 105.5q43 39 98 64q102 45 215 40q133 -6 212 -52v-210q-24 52 -66 109q-44 60 -96 95q-90 64 -180 30q-70 -25 -100 -114q-29 -88 -12 -213q20 -146 89 -235q70 -89 149 -94q35 -1 62 13q20 12 35 33q7 11 16 43q4 16 4 42v35v5q0 27 -11 47t-29 30
t-32.5 15t-27.5 6z" />
    <glyph glyph-name="gdotaccent" unicode="&#x121;" horiz-adv-x="482" 
d="M280 534q-27 0 -46.5 19.5t-19.5 45.5t19.5 45.5t46.5 19.5q26 0 45 -19.5t19 -45.5t-19 -45.5t-45 -19.5zM485 491q20 0 30 -11.5t6 -26.5q-4 -16 -19 -20.5t-39 4.5q-15 15 -30.5 16t-49.5 -22q53 60 102 60zM280 82q165 -10 180 -111q13 -93 -51 -154
q-37 -35 -91.5 -53.5t-110.5 -13.5q-91 7 -143.5 44.5t-52.5 93.5q0 38 18 64.5t35 35.5l6 4q-17 -76 35 -114q53 -40 149 -53q64 -10 115 2q50 12 61 38q18 47 -32 77t-129 29q-107 -1 -165 19.5t-64 69.5q-5 24 15 47q28 34 82 57l-5 2q-98 42 -95 151q1 101 122 145
q41 15 95 13q53 -1 91 -21q54 -25 76 -85q23 -60 0 -110q-16 -37 -43 -59.5t-74 -37.5q-82 -24 -157 -1q-23 -11 -27 -28t11 -31q12 -12 33.5 -15.5t61 -3.5t54.5 -1zM190 460q-32 -16 -36 -78q-5 -64 17 -126q23 -61 56 -82t62 -4q25 12 29 54q8 64 -16 146
q-21 63 -51.5 84.5t-60.5 5.5z" />
    <glyph glyph-name="Gcommaaccent" unicode="&#x122;" horiz-adv-x="778" 
d="M462 291l-12 1h304q-3 0 -8 -1t-17.5 -6.5t-22 -15t-17.5 -29.5t-8 -47v-211q-11 32 -43 67q-31 36 -46 39q-95 -104 -217 -104q-153 0 -244 105q-91 106 -91 265q0 78 26 142.5t70 105.5q43 39 98 64q102 45 215 40q133 -6 212 -52v-210q-24 52 -66 109q-44 60 -96 95
q-90 64 -180 30q-70 -25 -100 -114q-29 -88 -12 -213q20 -146 89 -235q70 -89 149 -94q35 -1 62 13q20 12 35 33q7 11 16 43q4 16 4 42v35v5q0 27 -11 47t-29 30t-32.5 15t-27.5 6zM447 -84q30 -16 36 -74q7 -57 -19 -123q-26 -65 -76 -99q33 29 53 86q19 55 9 103
q-14 -11 -33 -12q-27 -3 -47.5 14t-23.5 44q-3 28 13.5 48.5t43.5 22.5q24 3 44 -10z" />
    <glyph glyph-name="gcommaaccent" unicode="&#x123;" horiz-adv-x="482" 
d="M485 491q20 0 30 -11.5t6 -26.5q-4 -16 -19 -20.5t-39 4.5q-15 15 -30.5 16t-49.5 -22q53 60 102 60zM280 82q165 -10 180 -111q13 -93 -51 -154q-37 -35 -91.5 -53.5t-110.5 -13.5q-91 7 -143.5 44.5t-52.5 93.5q0 38 18 64.5t35 35.5l6 4q-17 -76 35 -114
q53 -40 149 -53q64 -10 115 2q50 12 61 38q18 47 -32 77t-129 29q-107 -1 -165 19.5t-64 69.5q-5 24 15 47q28 34 82 57l-5 2q-98 42 -95 151q1 101 122 145q41 15 95 13q53 -1 91 -21q54 -25 76 -85q23 -60 0 -110q-16 -37 -43 -59.5t-74 -37.5q-82 -24 -157 -1
q-23 -11 -27 -28t11 -31q12 -12 33.5 -15.5t61 -3.5t54.5 -1zM190 460q-32 -16 -36 -78q-5 -64 17 -126q23 -61 56 -82t62 -4q25 12 29 54q8 64 -16 146q-21 63 -51.5 84.5t-60.5 5.5zM294 -316l12 -11q8 -10 13 -22q11 -37 9 -84t-27.5 -99.5t-66.5 -79.5q33 29 53 86
q19 55 9 103q-14 -11 -33 -12q-27 -3 -47.5 14t-23.5 44q-3 28 13.5 48.5t43.5 22.5q25 3 45 -10z" />
    <glyph glyph-name="Hbar" unicode="&#x126;" horiz-adv-x="837" 
d="M705 536v-416q0 -62 32 -94q37 -30 71 -26h-363q7 0 15 1t24 7.5t28.5 18t22.5 36t11 57.5v235h-263v-235q0 -62 32 -94q37 -30 71 -26h-363q7 0 15 1t24 7.5t28.5 18t22.5 36t11 57.5v416h-88l-12 9h100v35q0 83 -48 105q-31 15 -54 15h364q-18 0 -41 -9q-26 -9 -44 -36
t-18 -75v-35h263v35q0 83 -48 105q-31 15 -54 15h364q-18 0 -41 -9q-26 -9 -44 -36t-18 -75v-35h103l-9 -9h-94zM283 536v-167h263v167h-263z" />
    <glyph glyph-name="hbar" unicode="&#x127;" horiz-adv-x="627" 
d="M545 266v-169q0 -52 26 -76q26 -21 57 -21h-622q18 0 38 6q63 20 63 91v439h-42l-12 9h54v8q0 28 -6.5 44.5t-18 19.5t-17 3t-14.5 -2l186 104v-177h77l-9 -9h-68v-439q0 -64 44 -83q32 -14 55 -14q19 0 44 14q36 19 36 83v97q0 126 -8 155q-5 21 -17 32q-23 23 -69 15
q-47 -8 -76 -41q30 43 86 81q58 38 122 32q33 -3 50.5 -18.5t29.5 -42.5q7 -15 8 -39q2 -34 2 -41q1 -9 1 -45v-16z" />
    <glyph glyph-name="Imacron" unicode="&#x12a;" horiz-adv-x="434" 
d="M129 799l197 1v-11h-197v10zM288 580v-460q0 -63 36 -93q35 -27 77 -27h-381q7 0 16.5 1t27.5 8t31.5 18.5t24.5 35.5t11 57v460q0 65 -36 93q-14 12 -32 18q-24 9 -43 9h381q-24 0 -60 -15q-53 -22 -53 -105z" />
    <glyph glyph-name="imacron" unicode="&#x12b;" horiz-adv-x="432" 
d="M127 550l197 1v-11h-197v10zM285 475v-378q0 -27 8 -47t18 -29t23.5 -14.5t20 -6t12.5 -0.5h-303q18 0 35 6q56 21 56 91v231q0 34 -22 43q-21 11 -35 0z" />
    <glyph glyph-name="Iogonek" unicode="&#x12e;" horiz-adv-x="434" 
d="M401 0h-87q-64 -40 -49 -106q10 -40 46 -53q37 -14 62 2q-21 -23 -61.5 -28.5t-78.5 14t-47 60.5q-17 68 37 111h-203q7 0 16.5 1t27.5 8t31.5 18.5t24.5 35.5t11 57v460q0 65 -36 93q-14 12 -32 18q-24 9 -43 9h381q-24 0 -60 -15q-53 -22 -53 -105v-460q0 -63 36 -93
q35 -27 77 -27z" />
    <glyph glyph-name="iogonek" unicode="&#x12f;" horiz-adv-x="432" 
d="M172 582q0 24 18 42t43 18t42.5 -18t17.5 -42q0 -26 -17.5 -44t-42.5 -18t-43 18.5t-18 43.5zM268 -106q10 -40 46 -53q37 -14 62 2q-21 -23 -61.5 -28.5t-78.5 14t-47 60.5q-17 68 37 111h-162q18 0 35 6q56 21 56 91v231q0 34 -22 43q-21 11 -35 0l187 104v-378
q0 -27 8 -47t18 -29t23.5 -14.5t20 -6t12.5 -0.5h-50q-64 -40 -49 -106z" />
    <glyph glyph-name="Idot" unicode="&#x130;" horiz-adv-x="434" 
d="M263 814q-17 -18 -42 -18t-43 18q-18 19 -18 44t18 42q18 18 43 18t42 -18q18 -17 18 -42t-18 -44zM288 580v-460q0 -63 36 -93q35 -27 77 -27h-381q7 0 16.5 1t27.5 8t31.5 18.5t24.5 35.5t11 57v460q0 65 -36 93q-14 12 -32 18q-24 9 -43 9h381q-24 0 -60 -15
q-53 -22 -53 -105z" />
    <glyph glyph-name="dotlessi" unicode="&#x131;" horiz-adv-x="461" 
d="M300 475v-378q0 -27 8 -47t18 -29t23.5 -14.5t20 -6t12.5 -0.5h-303q18 0 35 6q56 21 56 91v231q0 23 -11 35.5t-23.5 11.5t-22.5 -4z" />
    <glyph glyph-name="IJ" unicode="&#x132;" horiz-adv-x="988" 
d="M288 580v-460q0 -63 36 -93q35 -27 77 -27h-381q7 0 16.5 1t27.5 8t31.5 18.5t24.5 35.5t11 57v460q0 65 -36 93q-14 12 -32 18q-24 9 -43 9h381q-24 0 -60 -15q-53 -22 -53 -105zM719 183v416q0 69 -43 88q-30 13 -50 13h345q-20 0 -50 -13q-43 -19 -43 -88v-422
q0 -89 -58 -134q-25 -19 -58 -29q-47 -16 -114 -16q-53 0 -122 28q-37 16 -60.5 52.5t-24.5 85.5q-1 33 20 59t55 26q45 0 64.5 -34t4.5 -81q-15 -53 6 -88.5t64 -35.5q40 -6 56 47q3 8 5 37q2 34 2 40q1 9 1 49z" />
    <glyph glyph-name="ij" unicode="&#x133;" horiz-adv-x="661" 
d="M235 527q-21 -22 -52 -22t-53 22q-22 23 -22 54t22 52q22 22 53 22t52 -22q22 -21 22 -52t-22 -54zM571 527q-21 -22 -52 -22t-53 22q-22 23 -22 54t22 52q22 22 53 22t52 -22q22 -21 22 -52t-22 -54zM460 -64v389q0 27 -12 39.5t-25.5 10.5t-23.5 -5l191 106v-526
q0 -95 -61 -130q-48 -28 -113 -28q-80 0 -129.5 32t-49.5 90q0 24 18.5 43.5t41.5 19.5q34 0 52.5 -31.5t12.5 -72.5q-3 -46 20 -63q24 -18 46 -9q22 8 26 32q6 24 6 103zM335 0h-303q18 0 35 6q56 21 56 91v231q0 34 -22 43q-21 11 -35 0l187 104v-378q0 -27 8 -47t18 -29
t23.5 -14.5t20 -6t12.5 -0.5z" />
    <glyph glyph-name="Kcommaaccent" unicode="&#x136;" horiz-adv-x="702" 
d="M366 0h-364q21 0 55 15q47 21 47 86v498q0 69 -48 88q-32 13 -54 13h364q-22 0 -55 -13q-48 -19 -48 -88v-498q0 -65 47 -86q35 -15 56 -15zM412 697h7h-7zM434 370l158 -207q45 -58 87.5 -101t62.5 -54l18 -10l-224 2l-82 105l-134 177q-15 20 -28.5 24.5t-19 1.5
t-7.5 -7l215 257q28 37 22.5 67.5t-29.5 50t-54 21.5h269l-6 -1q-70 -20 -145 -95l-29 -30l-14 -17l-67 -80q-17 -19 -19 -42q0 -19 5 -30t21 -32zM448 -83q31 -16 37 -73q7 -57 -18 -123q-25 -67 -76 -101q34 29 52 86q19 55 9 103q-14 -11 -33 -12q-27 -3 -47.5 14
t-23.5 44q-3 28 14 48.5t43 22.5q23 3 43 -9z" />
    <glyph glyph-name="kcommaaccent" unicode="&#x137;" horiz-adv-x="531" 
d="M294 0h-293q8 0 18.5 2.5t29 10.5t31 30t12.5 54v471q0 31 -17.5 45t-41.5 2l190 107l-1 -625q0 -26 7 -46t16 -29t21 -14.5t18 -6.5t10 -1zM223 205l106 124q36 39 13 83q-23 46 -84 47h276q-25 -4 -89 -44q-63 -38 -95 -74l-17 -18q-8 -11 -8 -22q1 -13 18 -39l21 -33
l41 -63l48 -67q27 -36 42 -50q42 -39 81 -47l13 -2h-287q24 0 31 17t-8 42l-24 37q-44 72 -62 90q-3 4 -7 10t-5.5 7.5t-3.5 1.5zM334 -83q31 -16 37 -73q7 -57 -18 -123q-25 -67 -76 -101q34 29 52 86q19 55 9 103q-14 -11 -33 -12q-27 -3 -47.5 14t-23.5 44q-3 28 14 48.5
t43 22.5q23 3 43 -9z" />
    <glyph glyph-name="Lacute" unicode="&#x139;" horiz-adv-x="711" 
d="M326 920q8 -7 11 -17.5t-5.5 -26.5t-31.5 -31l-132 -84l83 131q20 30 42 37t33 -9zM363 9h9q79 0 179 85q102 87 130 155l-50 -249h-629q19 0 43 9q68 25 68 121v450q0 83 -48 105q-31 15 -54 15h363q-18 0 -41 -9q-26 -9 -44 -36t-18 -75v-453q0 -118 92 -118z" />
    <glyph glyph-name="lacute" unicode="&#x13a;" horiz-adv-x="305" 
d="M239 903q7 -7 10 -17t-5.5 -26t-31.5 -31l-131 -84l83 131q18 30 41 37t34 -10zM212 722v-625q0 -32 13.5 -54.5t35.5 -31.5q35 -11 53 -11h-332q18 0 38 6q62 21 62 91v456q0 28 -6 44.5t-17.5 19.5t-17 3t-14.5 -2z" />
    <glyph glyph-name="Lcommaaccent" unicode="&#x13b;" horiz-adv-x="711" 
d="M363 9h9q79 0 179 85q102 87 130 155l-50 -249h-629q19 0 43 9q68 25 68 121v450q0 83 -48 105q-31 15 -54 15h363q-18 0 -41 -9q-26 -9 -44 -36t-18 -75v-453q0 -118 92 -118zM410 -84q30 -16 36 -74q7 -57 -19 -123q-26 -65 -76 -99q33 29 53 86q19 55 9 103
q-13 -11 -33 -12q-27 -3 -47.5 14t-23.5 44q-3 28 13.5 48.5t43.5 22.5q24 3 44 -10z" />
    <glyph glyph-name="lcommaaccent" unicode="&#x13c;" horiz-adv-x="305" 
d="M212 722v-625q0 -32 13.5 -54.5t35.5 -31.5q35 -11 53 -11h-332q18 0 38 6q62 21 62 91v456q0 28 -6 44.5t-17.5 19.5t-17 3t-14.5 -2zM210 -83q30 -16 38 -73q7 -55 -19 -123q-25 -67 -76 -101q34 29 52 86q19 55 9 103q-14 -11 -33 -12q-27 -3 -47.5 14t-22.5 44
q-3 28 13.5 48.5t43.5 22.5q22 3 42 -9z" />
    <glyph glyph-name="Lcaron" unicode="&#x13d;" horiz-adv-x="711" 
d="M462 646q-27 -3 -47.5 14t-23.5 44q-3 28 14 48.5t43 22.5q25 3 45 -10l12 -11q8 -10 13 -22q11 -37 9 -84t-27.5 -99.5t-66.5 -79.5q35 31 53 85q20 56 9 104q-13 -10 -33 -12zM363 9h9q79 0 179 85q102 87 130 155l-50 -249h-629q19 0 43 9q68 25 68 121v450
q0 83 -48 105q-31 15 -54 15h363q-18 0 -41 -9q-26 -9 -44 -36t-18 -75v-453q0 -118 92 -118z" />
    <glyph glyph-name="lcaron" unicode="&#x13e;" horiz-adv-x="305" 
d="M406 732q11 -37 9 -84t-27.5 -99.5t-66.5 -79.5q35 31 53 85q20 56 9 104q-13 -10 -33 -12q-27 -3 -47.5 14t-23.5 44q-3 28 14 48.5t43 22.5q25 3 45 -10l12 -11q8 -10 13 -22zM212 722v-625q0 -32 13.5 -54.5t35.5 -31.5q35 -11 53 -11h-332q18 0 38 6q62 21 62 91v456
q0 28 -6 44.5t-17.5 19.5t-17 3t-14.5 -2z" />
    <glyph glyph-name="Ldot" unicode="&#x13f;" horiz-adv-x="711" 
d="M363 9h9q79 0 179 85q102 87 130 155l-50 -249h-629q19 0 43 9q68 25 68 121v450q0 83 -48 105q-31 15 -54 15h363q-18 0 -41 -9q-26 -9 -44 -36t-18 -75v-453q0 -118 92 -118zM494 345q-16 -16 -39 -16t-39 16q-15 16 -15 39t15 39q16 16 39 16t39 -16q17 -16 17 -39
t-17 -39z" />
    <glyph glyph-name="ldot" unicode="&#x140;" horiz-adv-x="459" 
d="M241 722v-625q0 -51 33 -76q38 -25 69 -21h-332q18 0 38 6q62 21 62 91v456q0 28 -6 44.5t-17.5 19.5t-17 3t-14.5 -2zM305 423q16 16 39 16t39 -16q17 -16 17 -39t-17 -39q-16 -16 -39 -16t-39 16q-15 16 -15 39t15 39z" />
    <glyph glyph-name="Lslash" unicode="&#x141;" horiz-adv-x="730" 
d="M377 9h9q79 0 179 85q102 86 131 155l-51 -249h-629q21 0 59 16q53 26 53 114v268l-67 -26l-16 4l83 32v172q0 83 -48 105q-31 15 -54 15h363q-18 0 -41 -9q-26 -9 -44 -36t-18 -75v-112l88 34l-5 -12l-83 -32v-331q0 -118 91 -118z" />
    <glyph glyph-name="lslash" unicode="&#x142;" horiz-adv-x="363" 
d="M227 443v-346q0 -52 32 -76q13 -9 30 -15q21 -6 39 -6h-332q18 0 38 6q63 20 63 91v296l-55 -21l-16 4l71 27v150q0 28 -6 44.5t-17.5 19.5t-17 3t-14.5 -2l185 104v-269l96 37l-5 -12z" />
    <glyph glyph-name="Nacute" unicode="&#x143;" horiz-adv-x="797" 
d="M574 920q8 -7 11 -17.5t-5.5 -26.5t-31.5 -31l-131 -84l83 131q18 30 40.5 37.5t33.5 -9.5zM640 303v244q0 79 -43 115q-16 14 -40 24q-27 12 -56 14h293q-27 -2 -57 -13q-84 -34 -84 -140v-575l-457 541q-20 21 -30.5 14t-10.5 -39v-323q0 -43 14 -75.5t36.5 -50
t40.5 -25.5t36 -12l15 -2h-298q15 0 49 14q39 14 65.5 51t28.5 100v332q0 57 -14.5 99t-36.5 62.5t-37 29t-28 11.5l-4 1h235l348 -416q17 -20 25 -18q10 1 10 37zM653 -28v-1h-1z" />
    <glyph glyph-name="nacute" unicode="&#x144;" horiz-adv-x="633" 
d="M435 673q8 -7 10.5 -17.5t-6 -26.5t-31.5 -31l-131 -84l83 131q18 30 41 37t34 -9zM236 476v-379q0 -52 26 -76q26 -21 57 -21h-294q16 0 32 6q50 21 50 91v231q0 27 -13 38.5t-22.5 10.5t-17.5 -4zM537 266v-169q0 -52 26 -76q26 -21 57 -21h-294q16 0 31 6q50 21 50 91
v97v29q0 82 -4 110q-3 31 -20 48q-23 23 -66 15q-43 -7 -74 -41q30 44 85 82q53 37 118 31q59 -6 74 -50q12 -27 15 -64q2 -30 2 -35v-39v-14z" />
    <glyph glyph-name="Ncommaaccent" unicode="&#x145;" horiz-adv-x="797" 
d="M640 303v244q0 79 -43 115q-16 14 -40 24q-27 12 -56 14h293q-27 -2 -57 -13q-84 -34 -84 -140v-575l-457 541q-20 21 -30.5 14t-10.5 -39v-323q0 -43 14 -75.5t36.5 -50t40.5 -25.5t36 -12l15 -2h-298q15 0 49 14q39 14 65.5 51t28.5 100v332q0 57 -14.5 99t-36.5 62.5
t-37 29t-28 11.5l-4 1h235l348 -416q17 -20 25 -18q10 1 10 37zM653 -28v-1h-1zM435 -83q30 -16 38 -73q7 -55 -19 -123q-25 -67 -76 -101q34 29 52 86q19 55 9 103q-13 -11 -33 -12q-27 -3 -47 14t-23 44q-3 28 13.5 48.5t43.5 22.5q23 3 42 -9z" />
    <glyph glyph-name="ncommaaccent" unicode="&#x146;" horiz-adv-x="633" 
d="M319 0h-294q16 0 32 6q50 21 50 91v231q0 27 -13 38.5t-22.5 10.5t-17.5 -4l182 103v-379q0 -52 26 -76q26 -21 57 -21zM537 266v-169q0 -52 26 -76q26 -21 57 -21h-294q16 0 31 6q50 21 50 91v97v29q0 82 -4 110q-3 31 -20 48q-23 23 -66 15q-43 -7 -74 -41q30 44 85 82
q53 37 118 31q59 -6 74 -50q12 -27 15 -64q2 -30 2 -35v-39v-14zM367 -84l12 -11q8 -10 13 -22q11 -37 9 -84t-27.5 -99.5t-66.5 -79.5q35 30 53 86q19 55 9 103q-13 -11 -33 -12q-27 -3 -47.5 14t-23.5 44q-3 28 14 48.5t43 22.5q25 3 45 -10z" />
    <glyph glyph-name="Ncaron" unicode="&#x147;" horiz-adv-x="797" 
d="M523 892l-69 -138h-68l-83 138l117 -91zM640 303v244q0 79 -43 115q-16 14 -40 24q-27 12 -56 14h293q-27 -2 -57 -13q-84 -34 -84 -140v-575l-457 541q-20 21 -30.5 14t-10.5 -39v-323q0 -43 14 -75.5t36.5 -50t40.5 -25.5t36 -12l15 -2h-298q15 0 49 14q39 14 65.5 51
t28.5 100v332q0 57 -14.5 99t-36.5 62.5t-37 29t-28 11.5l-4 1h235l348 -416q17 -20 25 -18q10 1 10 37zM653 -28v-1h-1z" />
    <glyph glyph-name="ncaron" unicode="&#x148;" horiz-adv-x="633" 
d="M421 652l-68 -138h-68l-83 138l116 -92zM236 476v-379q0 -52 26 -76q26 -21 57 -21h-294q16 0 32 6q50 21 50 91v231q0 27 -13 38.5t-22.5 10.5t-17.5 -4zM537 266v-169q0 -52 26 -76q26 -21 57 -21h-294q16 0 31 6q50 21 50 91v97v29q0 82 -4 110q-3 31 -20 48
q-23 23 -66 15q-43 -7 -74 -41q30 44 85 82q53 37 118 31q59 -6 74 -50q12 -27 15 -64q2 -30 2 -35v-39v-14z" />
    <glyph glyph-name="Eng" unicode="&#x14a;" horiz-adv-x="836" 
d="M655 303v244q0 79 -43 115q-16 14 -40 24q-27 12 -56 14h293q-27 -2 -57 -13q-84 -34 -84 -140v-597q0 -95 -61 -130q-49 -28 -114 -28q-75 0 -127 32q-51 32 -51 90q0 24 18.5 43.5t41.5 19.5q34 0 52.5 -31.5t12.5 -72.5q-3 -46 20 -63q24 -18 46 -9q22 8 26 32
q6 24 6 103v101q0 87 -94 199l-6 6h1l-229 271q-20 21 -30.5 14t-10.5 -39v-323q0 -43 14 -75.5t36.5 -50t40.5 -25.5t36 -12l15 -2h-298q15 0 49 14q39 14 65.5 51t28.5 100v332q0 57 -14 99t-36.5 62.5t-37 29t-27.5 11.5l-4 1h235l347 -416q18 -20 26 -18q10 1 10 37z
" />
    <glyph glyph-name="eng" unicode="&#x14b;" horiz-adv-x="622" 
d="M323 0h-293q16 0 31 6q50 21 50 91v231q0 41 -24 46q-17 3 -28 -1l182 103v-379q0 -52 26 -76q24 -21 56 -21zM451 468q59 -6 74 -50q12 -27 15 -64q2 -30 2 -35v-39v-14v-352q0 -47 -13.5 -83t-34 -57t-48 -35t-53 -18.5t-51.5 -4.5q-58 0 -123 28q-37 16 -60.5 52
t-24.5 85q-1 33 20 59t55 26q46 0 64.5 -33.5t5.5 -80.5q-16 -57 3.5 -91t66.5 -34q21 -4 35 23.5t20 67.5q3 15 5 58q2 50 2 56q1 12 1 55v207q0 129 -7 156q-6 20 -17 31q-22 23 -66 15q-43 -7 -74 -41q30 44 85 82q53 37 118 31z" />
    <glyph glyph-name="Omacron" unicode="&#x14c;" horiz-adv-x="837" 
d="M322 777v10l197 1v-11h-197zM434 709q84 0 151 -30.5t106 -83.5q78 -103 76 -246q-1 -70 -24.5 -133.5t-67 -114.5t-114.5 -81t-158 -29q-84 1 -153 34.5t-110 89.5q-83 112 -78 242q1 157 106 255q106 98 266 97zM580 373q-18 137 -80 236q-61 97 -145 83
q-66 -10 -98 -103q-30 -92 -11 -232q19 -137 79 -240q60 -101 139 -107q80 -8 109 91q30 98 7 272z" />
    <glyph glyph-name="omacron" unicode="&#x14d;" horiz-adv-x="568" 
d="M200 540v10l197 1v-11h-197zM303 -11q-68 -5 -141 29q-39 18 -69 59.5t-42 97.5q-21 103 28 185t148 108q116 27 202 -29q85 -55 97 -181q10 -112 -55 -188q-65 -74 -168 -81zM380 285q-18 92 -60 146q-41 56 -91 25q-36 -22 -43 -106q-8 -86 12 -168q20 -97 61 -144
t80 -35q31 10 44 59q25 85 -3 223z" />
    <glyph glyph-name="Ohungarumlaut" unicode="&#x150;" horiz-adv-x="837" 
d="M287 757l83 132q20 30 42 37t33 -10q8 -7 11 -17.5t-5.5 -26.5t-31.5 -31zM429 757l83 132q18 30 40.5 37t33.5 -10q8 -7 11 -17.5t-5.5 -26.5t-31.5 -31zM434 709q-160 1 -266 -97q-105 -98 -106 -255q-5 -130 78 -242q41 -56 110 -89.5t153 -34.5q87 -1 158 29
t114.5 81t67 114.5t24.5 133.5q2 143 -76 246q-39 53 -106 83.5t-151 30.5zM580 373q23 -174 -7 -272q-29 -99 -109 -91q-79 6 -139 107q-60 103 -79 240q-19 140 11 232q32 93 98 103q84 14 145 -83q62 -99 80 -236z" />
    <glyph glyph-name="ohungarumlaut" unicode="&#x151;" horiz-adv-x="568" 
d="M203 514l83 131q18 30 41 37t34 -9q8 -7 10.5 -17.5t-6 -26.5t-31.5 -31zM324 514l83 131q20 30 42 37t33 -9q8 -7 11 -17.5t-5.5 -26.5t-31.5 -31zM303 -11q103 7 168 81q65 76 55 188q-12 126 -97 181q-86 56 -202 29q-99 -26 -148 -108t-28 -185q12 -56 42 -97.5
t69 -59.5q73 -34 141 -29zM380 285q28 -138 3 -223q-13 -49 -44 -59q-39 -12 -80 35t-61 144q-20 82 -12 168q7 84 43 106q50 31 91 -25q42 -54 60 -146z" />
    <glyph glyph-name="OE" unicode="&#x152;" horiz-adv-x="1141" 
d="M962 82q44 34 79.5 70t48.5 56l11 18l-45 -226h-467q-40 0 -91 -4q-62 -5 -78 -5q-86 1 -154.5 35.5t-108 88.5t-59.5 117t-18 125q1 157 106 255t265 97q13 0 76 -5q52 -4 73 -4h427l35 -213q-32 59 -145 141q-50 35 -96.5 48t-113.5 13h-21v-320h17q39 1 70.5 14.5
t51 35t30 39t16.5 34.5l4 14v-296q-2 15 -20 50q-13 24 -31 44q-19 21 -52 36t-69 15h-17v-237q0 -109 91 -109h12q36 0 84 21t89 52zM261 374q9 -85 37 -165q28 -83 72 -141q43 -58 90 -56q67 3 67 102v454q0 106 -84 121q-95 15 -144 -68t-38 -247z" />
    <glyph glyph-name="oe" unicode="&#x153;" horiz-adv-x="887" 
d="M691 70q57 -3 98.5 20.5t57.5 66.5q-50 -170 -202 -168q-120 1 -188 78q-65 -72 -165 -78q-68 -5 -141 29q-39 18 -69 59.5t-42 97.5q-21 103 28 185t148 108q74 18 138.5 0.5t106.5 -67.5q20 21 53 43q31 19 79 27q47 8 82 3q77 -12 124 -68t45 -143h-317q0 -49 13 -85
q37 -103 151 -108zM328 3q31 10 44 59q25 85 -3 223q-18 92 -60 146q-41 56 -91 25q-36 -22 -43 -106q-7 -86 12 -168q20 -97 61 -144t80 -35zM595 447q-39 -27 -54 -80q-14 -54 -14 -97q71 0 107 4q57 5 85 36q15 16 21 45.5t-2.5 58.5t-31.5 42q-52 30 -111 -9z" />
    <glyph glyph-name="Racute" unicode="&#x154;" horiz-adv-x="690" 
d="M443 920q8 -7 11 -17.5t-5.5 -26.5t-31.5 -31l-132 -84l83 131q20 30 42 37t33 -9zM551 228l54 -101q30 -56 64.5 -85.5t60.5 -38.5l8 -3h-226q-36 52 -69 113l-77 144q-40 79 -94 79h-8l-2 -274q0 -26 17 -43q23 -19 57 -19h-335q22 0 54 13q48 19 48 88v498
q0 55 -36 78q-13 9 -29.5 15t-25.5 7.5t-11 0.5q51 0 146 4q107 4 162 3q104 -2 160.5 -15.5t88.5 -47.5q45 -45 43 -125q0 -81 -55 -130q-12 -10 -25 -19t-23.5 -14.5t-19 -9t-13 -5t-4.5 -0.5q3 0 11 -5q11 -7 34 -36.5t45 -71.5zM348 361q104 36 104 165q0 95 -47 136
t-143 35l2 -349q48 0 84 13z" />
    <glyph glyph-name="racute" unicode="&#x155;" horiz-adv-x="463" 
d="M361 673q8 -7 10.5 -17.5t-6 -26.5t-31.5 -31l-131 -84l83 131q18 30 41 37t34 -9zM390 473q36 -1 54 -23t18 -51q0 -27 -15 -46.5t-43 -20.5q-20 -2 -35.5 8t-28.5 26.5t-17 19.5q-47 35 -90 -28v-270q0 -61 44 -77q31 -11 48 -11h-312q16 0 47 11q44 15 44 77v13v227
q0 59 -50 48l179 100v-66v-23v-13q24 44 68.5 72t88.5 27zM218 333v-1v1z" />
    <glyph glyph-name="Rcommaaccent" unicode="&#x156;" horiz-adv-x="690" 
d="M551 228l54 -101q30 -56 64.5 -85.5t60.5 -38.5l8 -3h-226q-36 52 -69 113l-77 144q-40 79 -94 79h-8l-2 -274q0 -26 17 -43q23 -19 57 -19h-335q22 0 54 13q48 19 48 88v498q0 55 -36 78q-13 9 -29.5 15t-25.5 7.5t-11 0.5q51 0 146 4q107 4 162 3q104 -2 160.5 -15.5
t88.5 -47.5q45 -45 43 -125q0 -81 -55 -130q-12 -10 -25 -19t-23.5 -14.5t-19 -9t-13 -5t-4.5 -0.5q3 0 11 -5q11 -7 34 -36.5t45 -71.5zM348 361q104 36 104 165q0 95 -47 136t-143 35l2 -349q48 0 84 13zM423 -83q30 -16 38 -73q7 -55 -19 -123q-25 -67 -76 -101
q34 29 52 86q19 55 9 103q-13 -11 -33 -12q-27 -3 -47.5 14t-23.5 44q-2 28 14.5 48.5t42.5 22.5q23 3 43 -9z" />
    <glyph glyph-name="rcommaaccent" unicode="&#x157;" horiz-adv-x="463" 
d="M390 473q36 -1 54 -23t18 -51q0 -27 -15 -46.5t-43 -20.5q-20 -2 -35.5 8t-28.5 26.5t-17 19.5q-47 35 -90 -28v-270q0 -61 44 -77q31 -11 48 -11h-312q16 0 47 11q44 15 44 77v13v227q0 59 -50 48l179 100v-66v-23v-13q24 44 68.5 72t88.5 27zM218 333v-1v1zM213 -84
l12 -11q8 -10 13 -22q11 -37 9 -84t-27.5 -99.5t-66.5 -79.5q35 30 53 86q19 55 9 103q-13 -11 -33 -12q-27 -3 -47.5 14t-23.5 44q-3 28 14 48.5t43 22.5q25 3 45 -10z" />
    <glyph glyph-name="Rcaron" unicode="&#x158;" horiz-adv-x="690" 
d="M443 892l-68 -138h-68l-83 138l116 -91zM551 228l54 -101q30 -56 64.5 -85.5t60.5 -38.5l8 -3h-226q-36 52 -69 113l-77 144q-40 79 -94 79h-8l-2 -274q0 -26 17 -43q23 -19 57 -19h-335q22 0 54 13q48 19 48 88v498q0 55 -36 78q-13 9 -29.5 15t-25.5 7.5t-11 0.5
q51 0 146 4q107 4 162 3q104 -2 160.5 -15.5t88.5 -47.5q45 -45 43 -125q0 -81 -55 -130q-12 -10 -25 -19t-23.5 -14.5t-19 -9t-13 -5t-4.5 -0.5q3 0 11 -5q11 -7 34 -36.5t45 -71.5zM348 361q104 36 104 165q0 95 -47 136t-143 35l2 -349q48 0 84 13z" />
    <glyph glyph-name="rcaron" unicode="&#x159;" horiz-adv-x="463" 
d="M365 652l-68 -138h-68l-83 138l117 -92zM390 473q36 -1 54 -23t18 -51q0 -27 -15 -46.5t-43 -20.5q-20 -2 -35.5 8t-28.5 26.5t-17 19.5q-47 35 -90 -28v-270q0 -61 44 -77q31 -11 48 -11h-312q16 0 47 11q44 15 44 77v13v227q0 59 -50 48l179 100v-66v-23v-13
q24 44 68.5 72t88.5 27zM218 333v-1v1z" />
    <glyph glyph-name="Sacute" unicode="&#x15a;" horiz-adv-x="665" 
d="M277 761l83 131q18 30 40.5 37.5t33.5 -9.5q8 -7 11 -17.5t-5.5 -26.5t-31.5 -31zM556 479l-1 189l-24 11q-28 12 -77 22q-53 11 -110 12q-114 1 -190 -45t-85 -140q-9 -99 44 -161t185 -97q138 -38 186 -84q49 -46 42 -104q-5 -39 -37 -57t-73.5 -16.5t-88.5 15.5
q-83 25 -160 103q-75 78 -115 163v-236q109 -70 286 -73q63 -1 115.5 13.5t95 55t54.5 104.5q22 118 -39 187.5t-222 107.5q-78 18 -118 45.5t-52 72.5q-20 79 39 114q65 29 129 2q58 -23 116 -75q75 -69 100 -129z" />
    <glyph glyph-name="sacute" unicode="&#x15b;" horiz-adv-x="468" 
d="M183 514l83 131q20 30 42 37t33 -9q8 -7 11 -17.5t-5.5 -26.5t-31.5 -31zM401 295v137l-17 10q-18 11 -55 21t-74 10q-86 0 -136 -40.5t-52 -101.5q-5 -104 158 -167q82 -32 116.5 -68t19.5 -69q-12 -27 -65 -18q-55 9 -109 49q-79 57 -126 144l3 -163q100 -52 204 -52
q92 0 131 45q39 47 38 109q-1 47 -38 82.5t-127 71.5q-121 46 -124 111q0 23 16.5 37t44.5 12q54 -5 106 -51q55 -48 86 -109z" />
    <glyph glyph-name="Scedilla" unicode="&#x15e;" horiz-adv-x="665" 
d="M342 449q161 -38 222 -107.5t39 -187.5q-17 -90 -86 -131t-165 -42l-17 -24q44 -3 65 -26.5t15 -55.5q-6 -40 -39 -57.5t-69.5 -11.5t-57.5 27q29 -16 71 -5t46 46q5 51 -66 57l35 50q-174 3 -283 73v236q40 -85 115 -163q77 -78 160 -103q47 -14 88.5 -15.5t73.5 16.5
t37 57q7 58 -42 104q-48 46 -186 84q-132 35 -185 97t-44 161q9 94 85 140t190 45q57 -1 110 -12q49 -10 77 -22l24 -11l1 -189q-25 60 -100 129q-58 52 -116 75q-64 27 -129 -2q-59 -35 -39 -114q12 -45 52 -72.5t118 -45.5z" />
    <glyph glyph-name="scedilla" unicode="&#x15f;" horiz-adv-x="468" 
d="M268 -13h-16l-22 -30q44 -3 65 -26.5t15 -55.5q-6 -40 -39 -57.5t-69.5 -11.5t-57.5 27q29 -16 71 -5q42 10 46 46q3 27 -15.5 40.5t-49.5 16.5l40 57q-86 6 -172 51l-3 163q47 -87 126 -144q54 -40 109 -49q53 -9 65 18q15 33 -19.5 69t-116.5 68q-163 63 -158 167
q2 61 52 101.5t136 40.5q37 0 74 -10t55 -21l17 -10v-137q-31 61 -86 109q-52 46 -106 51q-28 2 -44.5 -12t-16.5 -37q3 -65 124 -111q90 -36 127 -71.5t38 -82.5q1 -62 -38 -109q-39 -45 -131 -45z" />
    <glyph glyph-name="Scaron" unicode="&#x160;" horiz-adv-x="665" 
d="M214 892l117 -91l102 91l-68 -138h-68zM556 479l-1 189l-24 11q-28 12 -77 22q-53 11 -110 12q-114 1 -190 -45t-85 -140q-9 -99 44 -161t185 -97q138 -38 186 -84q49 -46 42 -104q-5 -39 -37 -57t-73.5 -16.5t-88.5 15.5q-83 25 -160 103q-75 78 -115 163v-236
q109 -70 286 -73q63 -1 115.5 13.5t95 55t54.5 104.5q22 118 -39 187.5t-222 107.5q-78 18 -118 45.5t-52 72.5q-20 79 39 114q65 29 129 2q58 -23 116 -75q75 -69 100 -129z" />
    <glyph glyph-name="scaron" unicode="&#x161;" horiz-adv-x="468" 
d="M126 652l116 -92l103 92l-68 -138h-68zM401 295v137l-17 10q-18 11 -55 21t-74 10q-86 0 -136 -40.5t-52 -101.5q-5 -104 158 -167q82 -32 116.5 -68t19.5 -69q-12 -27 -65 -18q-55 9 -109 49q-79 57 -126 144l3 -163q100 -52 204 -52q92 0 131 45q39 47 38 109
q-1 47 -38 82.5t-127 71.5q-121 46 -124 111q0 23 16.5 37t44.5 12q54 -5 106 -51q55 -48 86 -109z" />
    <glyph glyph-name="uni0162" unicode="&#x162;" horiz-adv-x="732" 
d="M56 700h608l32 -200q-52 80 -96 117q-82 69 -151 69h-6v-556q0 -69 39 -102q13 -11 35 -19q28 -9 48 -9h-403q20 0 47 9q74 25 74 121v556h-9q-62 0 -153 -74q-21 -17 -48 -47q-24 -26 -41 -49l-15 -20zM327 -69l46 65l19 4l-31 -43q44 -3 65 -26.5t15 -55.5
q-6 -40 -38.5 -57.5t-69 -11.5t-57.5 27q29 -16 71 -5q41 11 45 46q3 27 -15.5 40.5t-49.5 16.5z" />
    <glyph glyph-name="uni0163" unicode="&#x163;" horiz-adv-x="382" 
d="M229 -12h-7l-22 -31q44 -3 65 -26.5t15 -55.5q-6 -40 -39 -57.5t-69.5 -11.5t-57.5 27q29 -16 71 -5t46 46q5 51 -66 57l41 58q-75 7 -110 57.5t-35 147.5v247h-38l-12 9h50v123l132 74q0 -128 -1 -197h109l-9 -9h-100v-251q1 -72 20 -104.5t66 -34.5q35 -1 61.5 22.5
t38.5 63.5q-9 -63 -45 -106t-104 -43z" />
    <glyph glyph-name="Tcaron" unicode="&#x164;" horiz-adv-x="732" 
d="M483 892l-68 -138h-68l-83 138l116 -91zM56 700h608l32 -200q-52 80 -96 117q-82 69 -151 69h-6v-556q0 -69 39 -102q13 -11 35 -19q28 -9 48 -9h-403q20 0 47 9q74 25 74 121v556h-9q-62 0 -153 -74q-21 -17 -48 -47q-24 -26 -41 -49l-15 -20z" />
    <glyph glyph-name="tcaron" unicode="&#x165;" horiz-adv-x="382" 
d="M342 646q-27 -3 -47 14t-23 44q-3 28 13.5 48.5t43.5 22.5q23 3 42 -9q30 -16 38 -73q7 -55 -19 -124q-25 -66 -76 -100q34 30 52 85q20 56 9 104q-13 -10 -33 -12zM278 51q35 -1 61.5 22.5t38.5 63.5q-9 -63 -45 -106t-104 -43q-88 0 -128 51t-40 155v247h-38l-12 9h50
v123l132 74q0 -128 -1 -197h109l-9 -9h-100v-251q1 -72 20 -104.5t66 -34.5z" />
    <glyph glyph-name="Tbar" unicode="&#x166;" horiz-adv-x="732" 
d="M281 788l197 1v-11h-197v10zM56 700h608l32 -200q-52 80 -96 117q-82 69 -151 69h-6v-556q0 -69 39 -102q13 -11 35 -19q28 -9 48 -9h-403q20 0 47 9q74 25 74 121v556h-9q-62 0 -153 -74q-21 -17 -48 -47q-24 -26 -41 -49l-15 -20z" />
    <glyph glyph-name="tbar" unicode="&#x167;" horiz-adv-x="382" 
d="M59 689l197 1v-11h-197v10zM278 51q35 -1 61.5 22.5t38.5 63.5q-9 -63 -45 -106t-104 -43q-88 0 -128 51t-40 155v247h-38l-12 9h50v123l132 74q0 -128 -1 -197h109l-9 -9h-100v-251q1 -72 20 -104.5t66 -34.5z" />
    <glyph glyph-name="Umacron" unicode="&#x16a;" horiz-adv-x="753" 
d="M333 799l197 1v-11h-197v10zM618 322v223q0 47 -14.5 81t-38.5 49q-35 23 -64 25h239q-9 -1 -17 -3t-27 -12.5t-31.5 -26.5t-23 -48.5t-10.5 -74.5v-226q0 -38 -1 -51q0 -15 -5 -57q-5 -40 -13 -63q-25 -75 -67 -107q-59 -46 -149 -46q-162 0 -226 82t-64 251v252
q0 69 -34 101q-36 33 -73 29h385q-22 0 -47 -9q-64 -26 -64 -121v-290q0 -132 48 -195.5t140 -57.5q83 6 120 76t37 219z" />
    <glyph glyph-name="umacron" unicode="&#x16b;" horiz-adv-x="582" 
d="M198 550l197 1v-11h-197v10zM234 78q22 -22 70 -15q49 8 78 41q-34 -47 -89 -82q-56 -37 -122 -31q-56 6 -75 49q-11 31 -14 64q-2 21 -2 75v14v159q0 52 -26 76q-24 21 -56 21h212v-97v-87q0 -130 7 -157q6 -19 17 -30zM386 50v311q0 62 -39 77q-28 11 -43 11h212v-333
q0 -8 1.5 -14.5t4 -10t6.5 -6.5t7.5 -4.5t8 -2t7 -0.5h6.5h4l-175 -98v70z" />
    <glyph glyph-name="Uring" unicode="&#x16e;" horiz-adv-x="753" 
d="M452 752q-25 0 -42 18t-17 43t17 43t42 18q27 0 44 -17t16 -44q-1 -25 -18.5 -43t-41.5 -18zM409 814q0 -19 13 -32.5t31 -13.5q19 0 31.5 13.5t12.5 32.5q0 18 -13 31.5t-31 13.5t-31 -13.5t-13 -31.5zM618 322v223q0 47 -14.5 81t-38.5 49q-35 23 -64 25h239
q-9 -1 -17 -3t-27 -12.5t-31.5 -26.5t-23 -48.5t-10.5 -74.5v-226q0 -38 -1 -51q0 -15 -5 -57q-5 -40 -13 -63q-25 -75 -67 -107q-59 -46 -149 -46q-162 0 -226 82t-64 251v252q0 69 -34 101q-36 33 -73 29h385q-22 0 -47 -9q-64 -26 -64 -121v-290q0 -132 48 -195.5
t140 -57.5q83 6 120 76t37 219z" />
    <glyph glyph-name="uring" unicode="&#x16f;" horiz-adv-x="582" 
d="M244 572q0 25 17 43t42 18q27 0 44 -17t16 -44q-1 -24 -18.5 -42t-41.5 -18t-41.5 18t-17.5 42zM259 573q0 -18 13.5 -31.5t31.5 -13.5t31 13.5t13 31.5t-13 31.5t-31 13.5t-31.5 -14t-13.5 -31zM234 78q22 -22 70 -15q49 8 78 41q-34 -47 -89 -82q-56 -37 -122 -31
q-56 6 -75 49q-11 31 -14 64q-2 21 -2 75v14v159q0 52 -26 76q-24 21 -56 21h212v-97v-87q0 -130 7 -157q6 -19 17 -30zM386 50v311q0 62 -39 77q-28 11 -43 11h212v-333q0 -8 1.5 -14.5t4 -10t6.5 -6.5t7.5 -4.5t8 -2t7 -0.5h6.5h4l-175 -98v70z" />
    <glyph glyph-name="Uhungarumlaut" unicode="&#x170;" horiz-adv-x="753" 
d="M463 916q8 -7 11 -17.5t-5.5 -26.5t-31.5 -31l-132 -84l83 132q20 30 42 37t33 -10zM578 841l-132 -84l84 132q18 30 40.5 37t33.5 -10q8 -7 11 -17.5t-5.5 -26.5t-31.5 -31zM618 322v223q0 47 -14.5 81t-38.5 49q-35 23 -64 25h239q-9 -1 -17 -3t-27 -12.5t-31.5 -26.5
t-23 -48.5t-10.5 -74.5v-226q0 -38 -1 -51q0 -15 -5 -57q-5 -40 -13 -63q-25 -75 -67 -107q-59 -46 -149 -46q-162 0 -226 82t-64 251v252q0 69 -34 101q-36 33 -73 29h385q-22 0 -47 -9q-64 -26 -64 -121v-290q0 -132 48 -195.5t140 -57.5q83 6 120 76t37 219z" />
    <glyph glyph-name="uhungarumlaut" unicode="&#x171;" horiz-adv-x="582" 
d="M355 673q8 -7 11 -17.5t-5.5 -26.5t-31.5 -31l-132 -84l83 131q20 30 42 37t33 -9zM450 598l-131 -84l83 131q18 30 41 37t34 -9q7 -7 10 -17.5t-5.5 -26.5t-31.5 -31zM234 78q22 -22 70 -15q49 8 78 41q-34 -47 -89 -82q-56 -37 -122 -31q-56 6 -75 49q-11 31 -14 64
q-2 21 -2 75v14v159q0 52 -26 76q-24 21 -56 21h212v-97v-87q0 -130 7 -157q6 -19 17 -30zM386 50v311q0 62 -39 77q-28 11 -43 11h212v-333q0 -8 1.5 -14.5t4 -10t6.5 -6.5t7.5 -4.5t8 -2t7 -0.5h6.5h4l-175 -98v70z" />
    <glyph glyph-name="Uogonek" unicode="&#x172;" horiz-adv-x="753" 
d="M618 322v223q0 47 -14.5 81t-38.5 49q-35 23 -64 25h239q-9 -1 -17 -3t-27 -12.5t-31.5 -26.5t-23 -48.5t-10.5 -74.5v-226q0 -36 -1 -48q0 -22 -4 -54q-5 -41 -11 -59q-16 -65 -56 -105q-46 -46 -126 -56q-45 -41 -32 -93q10 -40 46 -53q37 -14 62 2
q-21 -23 -61.5 -28.5t-79 14t-47.5 60.5q-14 57 24 98q-129 12 -184 92.5t-55 238.5v252q0 69 -34 101q-36 33 -73 29h385q-22 0 -47 -9q-64 -26 -64 -121v-290q0 -132 48 -195.5t140 -57.5q83 6 120 76t37 219z" />
    <glyph glyph-name="uogonek" unicode="&#x173;" horiz-adv-x="582" 
d="M234 78q22 -22 70 -15q49 8 78 41q-47 -67 -121 -98q-60 -48 -44 -112q10 -40 46 -53q37 -14 62 2q-21 -23 -62 -28.5t-79 14t-46 60.5q-15 60 28 103q-44 5 -68 43q-9 18 -13 44q-2 12 -5 46v54v14v159q0 52 -26 76q-24 21 -56 21h212v-97v-87q0 -130 7 -157
q6 -19 17 -30zM386 50v311q0 62 -39 77q-28 11 -43 11h212v-333q0 -8 1.5 -14.5t4 -10t6.5 -6.5t7.5 -4.5t8 -2t7 -0.5h6.5h4l-175 -98v70z" />
    <glyph glyph-name="Wcircumflex" unicode="&#x174;" horiz-adv-x="1109" 
d="M615 882l68 -138l-102 92l-117 -92l83 138h68zM904 700h262q-47 -16 -74 -34q-38 -27 -64 -95l-234 -620l-233 491l-184 -491q-308 647 -312 659q-40 90 -142 90h418h20h418q-3 0 -7.5 -1l-18 -4t-23.5 -8t-24 -14t-19 -20.5t-8 -29t8 -38.5q41 -98 121 -266
q35 -74 56 -74q14 0 23 11t25 47l97 252q23 61 -7 102.5t-98 42.5zM494 303l60 155l-35 74q-10 22 -19.5 41.5t-13.5 27.5t-4 9q-37 84 -125 89q-8 -1 -17 -3t-24 -7.5t-25.5 -13.5t-20.5 -20.5t-9 -29.5t8 -40q43 -101 121 -266q35 -74 56 -74q15 0 24 10.5t24 47.5z" />
    <glyph glyph-name="wcircumflex" unicode="&#x175;" horiz-adv-x="719" 
d="M442 630l68 -138l-103 92l-116 -92l83 138h68zM575 450h202q-54 -11 -87 -47q-20 -19 -33 -51l-149 -384l-152 327l-110 -327l-198 402q-16 32 -40.5 53t-43.5 23l-17 3h271h-3.5t-9 -1.5t-12 -4t-11 -7.5t-8.5 -12t-2.5 -18t5.5 -24l86 -192q13 -31 26 -31q15 0 30 45
l34 99l-32 68q-16 32 -36.5 52.5t-33.5 22.5l-12 3h266q-3 0 -8.5 -1t-18 -5t-19 -12.5t-11 -24t6.5 -38.5l85 -189q10 -22 22 -22t26 33l61 156l4 11q13 39 -13 65q-27 27 -65 28z" />
    <glyph glyph-name="Ycircumflex" unicode="&#x176;" horiz-adv-x="637" 
d="M288 744l83 138h68l68 -138l-102 92zM478 700q57 -7 73 -42t-12 -85l-97 -174q-36 -67 -70 -6l-114 195q-23 43 -5 76.5t61 34.5l-356 1q27 0 66.5 -29t72.5 -82l139 -228q29 -47 29 -121l-1 -133q0 -67 -44 -90q-31 -17 -54 -17h357q-22 1 -56 18q-19 10 -31.5 35
t-12.5 58v157q0 72 20 110l109 198q61 105 148 124h-222z" />
    <glyph glyph-name="ycircumflex" unicode="&#x177;" horiz-adv-x="461" 
d="M321 630l68 -138l-103 92l-116 -92l82 138h69zM321 450h201q-52 -10 -86 -46q-20 -21 -34 -53l-160 -386l-39 -95q-21 -52 -45.5 -68.5t-62.5 -10.5q-24 4 -36.5 25t-6.5 46q11 39 54 38q15 -2 28 -18q15 -16 20 -18q33 -13 54 40l27 68l-182 399q-15 33 -38.5 53.5
t-43.5 23.5l-17 2h291q-9 0 -29 -7q-14 -5 -20 -14q-21 -29 -3 -62l86 -188q9 -20 22 -20q9 0 12.5 4t10.5 19l69 163l4 11q12 38 -11.5 65t-64.5 29z" />
    <glyph glyph-name="Ydieresis" unicode="&#x178;" horiz-adv-x="637" 
d="M279 792q-26 0 -44.5 19t-18.5 46q0 24 18.5 41.5t44.5 17.5q27 0 45.5 -17.5t18.5 -41.5q0 -28 -18.5 -46.5t-45.5 -18.5zM507 792q-25 0 -44 19t-19 46q0 24 19 41.5t44 17.5q27 0 45.5 -17.5t18.5 -41.5q0 -28 -18 -46.5t-46 -18.5zM478 700h222q-87 -19 -148 -124
l-109 -198q-20 -38 -20 -110v-157q0 -33 12.5 -58t31.5 -35q34 -17 56 -18h-357q23 0 54 17q44 23 44 90l1 133q0 74 -29 121l-139 228q-33 53 -72.5 82t-66.5 29l356 -1q-43 -1 -61 -34.5t5 -76.5l114 -195q34 -61 70 6l97 174q28 50 12 85t-73 42z" />
    <glyph glyph-name="Zacute" unicode="&#x179;" horiz-adv-x="688" 
d="M309 761l83 131q20 30 42 37t33 -9q8 -7 10.5 -17.5t-6 -26.5t-31.5 -31zM265 10q-39 0 -46 26.5t20 63.5l389 600l-550 1l-62 -224l16 21q45 58 122 113q110 77 216 77h15q20 0 27 -7t1.5 -25t-26.5 -51l-396 -605l593 -1l53 248l-11 -17q-11 -19 -46 -54.5t-78 -67.5
q-72 -51 -122 -74t-106 -24h-9z" />
    <glyph glyph-name="zacute" unicode="&#x17a;" horiz-adv-x="534" 
d="M243 514l83 131q18 30 41 37t34 -9q8 -7 10.5 -17.5t-6 -26.5t-31.5 -31zM243 0l-13 1q-23 0 -27.5 15t12.5 39l288 404l-419 1l-40 -156l14 14q33 37 86 73q90 62 150 61h6q51 0 15 -53l-288 -405l442 -2l44 208l-15 -24q-15 -26 -45 -60q-30 -35 -59 -56
q-83 -59 -151 -60z" />
    <glyph glyph-name="Zdotaccent" unicode="&#x17b;" horiz-adv-x="688" 
d="M396 814q-17 -18 -42 -18t-43 18q-18 19 -18 44t18 42q18 18 43 18t42 -18q18 -17 18 -42t-18 -44zM265 10h9q56 1 106 24t122 74q43 32 78 67.5t46 54.5l11 17l-53 -248l-593 1l396 605q21 33 26.5 51t-1.5 25t-27 7h-15q-106 0 -216 -77q-77 -55 -122 -113l-16 -21
l62 224l550 -1l-389 -600q-27 -37 -20 -63.5t46 -26.5z" />
    <glyph glyph-name="zdotaccent" unicode="&#x17c;" horiz-adv-x="534" 
d="M304 534q-27 0 -46.5 19.5t-19.5 45.5t19.5 45.5t46.5 19.5q26 0 45 -19.5t19 -45.5t-19 -45.5t-45 -19.5zM230 1l13 -1q68 1 151 60q29 21 59 56q30 34 45 60l15 24l-44 -208l-442 2l288 405q36 53 -15 53h-6q-60 1 -150 -61q-53 -36 -86 -73l-14 -14l40 156l419 -1
l-288 -404q-17 -24 -12.5 -39t27.5 -15z" />
    <glyph glyph-name="Zcaron" unicode="&#x17d;" horiz-adv-x="688" 
d="M225 892l116 -91l103 91l-68 -138h-68zM265 10q-39 0 -46 26.5t20 63.5l389 600l-550 1l-62 -224l16 21q45 58 122 113q110 77 216 77h15q20 0 27 -7t1.5 -25t-26.5 -51l-396 -605l593 -1l53 248l-11 -17q-11 -19 -46 -54.5t-78 -67.5q-72 -51 -122 -74t-106 -24h-9z" />
    <glyph glyph-name="zcaron" unicode="&#x17e;" horiz-adv-x="534" 
d="M197 652l117 -92l102 92l-68 -138h-68zM243 0l-13 1q-23 0 -27.5 15t12.5 39l288 404l-419 1l-40 -156l14 14q33 37 86 73q90 62 150 61h6q51 0 15 -53l-288 -405l442 -2l44 208l-15 -24q-15 -26 -45 -60q-30 -35 -59 -56q-83 -59 -151 -60z" />
    <glyph glyph-name="Scommaaccent" unicode="&#x218;" horiz-adv-x="665" 
d="M342 449q161 -38 222 -107.5t39 -187.5q-12 -64 -54.5 -104.5t-95 -55t-115.5 -13.5q-177 3 -286 73v236q40 -85 115 -163q77 -78 160 -103q47 -14 88.5 -15.5t73.5 16.5t37 57q7 58 -42 104q-48 46 -186 84q-132 35 -185 97t-44 161q9 94 85 140t190 45q57 -1 110 -12
q49 -10 77 -22l24 -11l1 -189q-25 60 -100 129q-58 52 -116 75q-64 27 -129 -2q-59 -35 -39 -114q12 -45 52 -72.5t118 -45.5zM375 -83q31 -16 37 -73q8 -57 -18 -123q-25 -67 -76 -101q34 29 52 86q19 55 9 103q-13 -11 -33 -12q-27 -3 -47.5 14t-23.5 44q-3 28 14 48.5
t43 22.5q23 3 43 -9z" />
    <glyph glyph-name="scommaaccent" unicode="&#x219;" horiz-adv-x="468" 
d="M437 141q1 -62 -38 -109q-39 -45 -131 -45q-104 0 -204 52l-3 163q47 -87 126 -144q54 -40 109 -49q53 -9 65 18q15 33 -19.5 69t-116.5 68q-163 63 -158 167q2 61 52 101.5t136 40.5q37 0 74 -10t55 -21l17 -10v-137q-31 61 -86 109q-52 46 -106 51q-28 2 -44.5 -12
t-16.5 -37q3 -65 124 -111q90 -36 127 -71.5t38 -82.5zM267 -84q30 -16 36 -74q7 -57 -19 -123q-26 -65 -76 -99q33 29 53 86q19 55 9 103q-14 -11 -33 -12q-27 -3 -47.5 14t-23.5 44q-3 28 13.5 48.5t43.5 22.5q24 3 44 -10z" />
    <glyph glyph-name="uni021A" unicode="&#x21a;" horiz-adv-x="732" 
d="M56 700h608l32 -200q-52 80 -96 117q-82 69 -151 69h-6v-556q0 -69 39 -102q13 -11 35 -19q28 -9 48 -9h-403q20 0 47 9q74 25 74 121v556h-9q-62 0 -153 -74q-21 -17 -48 -47q-24 -26 -41 -49l-15 -20zM405 -83q30 -16 38 -73q7 -55 -19 -123q-25 -67 -76 -101
q34 29 52 86q19 55 9 103q-13 -11 -33 -12q-27 -3 -47 14t-23 44q-3 28 13.5 48.5t43.5 22.5q23 3 42 -9z" />
    <glyph glyph-name="uni021B" unicode="&#x21b;" horiz-adv-x="382" 
d="M278 51q35 -1 61.5 22.5t38.5 63.5q-9 -63 -45 -106t-104 -43q-88 0 -128 51t-40 155v247h-38l-12 9h50v123l132 74q0 -128 -1 -197h109l-9 -9h-100v-251q1 -72 20 -104.5t66 -34.5zM235 -83q30 -16 38 -73q7 -55 -19 -123q-25 -67 -76 -101q34 29 52 86q19 55 9 103
q-13 -11 -33 -12q-27 -3 -47.5 14t-23.5 44q-2 28 14.5 48.5t42.5 22.5q23 3 43 -9z" />
    <glyph glyph-name="circumflex" unicode="&#x2c6;" horiz-adv-x="337" 
d="M59 494l83 138h69l68 -138l-103 92z" />
    <glyph glyph-name="caron" unicode="&#x2c7;" horiz-adv-x="337" 
d="M59 654l117 -92l103 92l-68 -138h-69z" />
    <glyph glyph-name="breve" unicode="&#x2d8;" horiz-adv-x="316" 
d="M159 576q85 0 98 61q-1 -44 -27.5 -76.5t-68.5 -32.5q-46 0 -73.5 31.5t-28.5 78.5q7 -30 34.5 -46t65.5 -16z" />
    <glyph glyph-name="dotaccent" unicode="&#x2d9;" horiz-adv-x="246" 
d="M65 582q0 24 18 42t43 18t42.5 -18t17.5 -42q0 -26 -17.5 -44t-42.5 -18t-43 18t-18 44z" />
    <glyph glyph-name="ring" unicode="&#x2da;" horiz-adv-x="600" 
d="M174 572q0 25 17 43t42 18q27 0 44 -17t16 -44q-1 -24 -18.5 -42t-41.5 -18t-41.5 18t-17.5 42zM189 573q0 -18 13.5 -31.5t31.5 -13.5t31 13.5t13 31.5t-13 31.5t-31 13.5t-31.5 -14t-13.5 -31z" />
    <glyph glyph-name="ogonek" unicode="&#x2db;" horiz-adv-x="286" 
d="M79 0h90q-63 -43 -48 -106q9 -39 45 -53q38 -14 63 2q-21 -23 -61.5 -28.5t-79 14t-47.5 60.5q-16 69 38 111z" />
    <glyph glyph-name="tilde" unicode="&#x2dc;" horiz-adv-x="374" 
d="M39 513q1 59 29 91.5t73 28.5q28 -3 62 -33q36 -28 60 -30q26 -2 48 17t27 52q1 -42 -23 -79q-24 -36 -64 -39q-27 -2 -53 14.5t-48 34.5t-38 18q-58 0 -73 -75z" />
    <glyph glyph-name="hungarumlaut" unicode="&#x2dd;" horiz-adv-x="406" 
d="M158 495l83 131q18 30 41 37t34 -10q7 -7 10 -17t-5.5 -26t-31.5 -31zM279 495l83 131q18 30 41 37t34 -10q8 -7 10.5 -17.5t-6 -26t-31.5 -30.5z" />
    <glyph glyph-name="Wgrave" unicode="&#x1e80;" horiz-adv-x="1109" 
d="M611 767l-131 84q-23 15 -31.5 31t-5.5 26.5t11 17.5q11 17 33.5 10t40.5 -37zM904 700h262q-47 -16 -74 -34q-38 -27 -64 -95l-234 -620l-233 491l-184 -491q-308 647 -312 659q-40 90 -142 90h418h20h418q-3 0 -7.5 -1l-18 -4t-23.5 -8t-24 -14t-19 -20.5t-8 -29
t8 -38.5q41 -98 121 -266q35 -74 56 -74q14 0 23 11t25 47l97 252q23 61 -7 102.5t-98 42.5zM494 303l60 155l-35 74q-10 22 -19.5 41.5t-13.5 27.5t-4 9q-37 84 -125 89q-8 -1 -17 -3t-24 -7.5t-25.5 -13.5t-20.5 -20.5t-9 -29.5t8 -40q43 -101 121 -266q35 -74 56 -74
q15 0 24 10.5t24 47.5z" />
    <glyph glyph-name="wgrave" unicode="&#x1e81;" horiz-adv-x="719" 
d="M458 513l-131 84q-23 15 -31.5 31t-5.5 26.5t10 17.5q11 16 34 9t41 -37zM575 450h202q-54 -11 -87 -47q-20 -19 -33 -51l-149 -384l-152 327l-110 -327l-198 402q-16 32 -40.5 53t-43.5 23l-17 3h271h-3.5t-9 -1.5t-12 -4t-11 -7.5t-8.5 -12t-2.5 -18t5.5 -24l86 -192
q13 -31 26 -31q15 0 30 45l34 99l-32 68q-16 32 -36.5 52.5t-33.5 22.5l-12 3h266q-3 0 -8.5 -1t-18 -5t-19 -12.5t-11 -24t6.5 -38.5l85 -189q10 -22 22 -22t26 33l61 156l4 11q13 39 -13 65q-27 27 -65 28z" />
    <glyph glyph-name="Wacute" unicode="&#x1e82;" horiz-adv-x="1109" 
d="M681 920q7 -7 10 -17.5t-5.5 -26.5t-31.5 -31l-131 -84l83 131q18 30 41 37t34 -9zM904 700h262q-47 -16 -74 -34q-38 -27 -64 -95l-234 -620l-233 491l-184 -491q-308 647 -312 659q-40 90 -142 90h418h20h418q-3 0 -7.5 -1l-18 -4t-23.5 -8t-24 -14t-19 -20.5t-8 -29
t8 -38.5q41 -98 121 -266q35 -74 56 -74q14 0 23 11t25 47l97 252q23 61 -7 102.5t-98 42.5zM494 303l60 155l-35 74q-10 22 -19.5 41.5t-13.5 27.5t-4 9q-37 84 -125 89q-8 -1 -17 -3t-24 -7.5t-25.5 -13.5t-20.5 -20.5t-9 -29.5t8 -40q43 -101 121 -266q35 -74 56 -74
q15 0 24 10.5t24 47.5z" />
    <glyph glyph-name="wacute" unicode="&#x1e83;" horiz-adv-x="719" 
d="M519 673q8 -7 11 -17.5t-5.5 -26.5t-31.5 -31l-132 -84l83 131q20 30 42 37t33 -9zM575 450h202q-54 -11 -87 -47q-20 -19 -33 -51l-149 -384l-152 327l-110 -327l-198 402q-16 32 -40.5 53t-43.5 23l-17 3h271h-3.5t-9 -1.5t-12 -4t-11 -7.5t-8.5 -12t-2.5 -18t5.5 -24
l86 -192q13 -31 26 -31q15 0 30 45l34 99l-32 68q-16 32 -36.5 52.5t-33.5 22.5l-12 3h266q-3 0 -8.5 -1t-18 -5t-19 -12.5t-11 -24t6.5 -38.5l85 -189q10 -22 22 -22t26 33l61 156l4 11q13 39 -13 65q-27 27 -65 28z" />
    <glyph glyph-name="Wdieresis" unicode="&#x1e84;" horiz-adv-x="1109" 
d="M447 792q-25 0 -44 18.5t-19 45.5q0 24 19 41.5t44 17.5q27 0 45.5 -17t18.5 -42q0 -27 -18.5 -45.5t-45.5 -18.5zM676 792q-26 0 -44.5 18.5t-18.5 45.5q0 25 18.5 42t44.5 17q27 0 45 -17t18 -42q0 -27 -18 -45.5t-45 -18.5zM904 700h262q-47 -16 -74 -34
q-38 -27 -64 -95l-234 -620l-233 491l-184 -491q-308 647 -312 659q-40 90 -142 90h418h20h418q-3 0 -7.5 -1l-18 -4t-23.5 -8t-24 -14t-19 -20.5t-8 -29t8 -38.5q41 -98 121 -266q35 -74 56 -74q14 0 23 11t25 47l97 252q23 61 -7 102.5t-98 42.5zM494 303l60 155l-35 74
q-10 22 -19.5 41.5t-13.5 27.5t-4 9q-37 84 -125 89q-8 -1 -17 -3t-24 -7.5t-25.5 -13.5t-20.5 -20.5t-9 -29.5t8 -40q43 -101 121 -266q35 -74 56 -74q15 0 24 10.5t24 47.5z" />
    <glyph glyph-name="wdieresis" unicode="&#x1e85;" horiz-adv-x="719" 
d="M285 542q-25 0 -44 19t-19 46q0 24 19 41.5t44 17.5q27 0 45.5 -17.5t18.5 -41.5q0 -28 -18 -46.5t-46 -18.5zM514 542q-26 0 -44.5 19t-18.5 46q0 24 18.5 41.5t44.5 17.5q27 0 45.5 -17.5t18.5 -41.5q0 -28 -18.5 -46.5t-45.5 -18.5zM575 450h202q-54 -11 -87 -47
q-20 -19 -33 -51l-149 -384l-152 327l-110 -327l-198 402q-16 32 -40.5 53t-43.5 23l-17 3h271h-3.5t-9 -1.5t-12 -4t-11 -7.5t-8.5 -12t-2.5 -18t5.5 -24l86 -192q13 -31 26 -31q15 0 30 45l34 99l-32 68q-16 32 -36.5 52.5t-33.5 22.5l-12 3h266q-3 0 -8.5 -1t-18 -5
t-19 -12.5t-11 -24t6.5 -38.5l85 -189q10 -22 22 -22t26 33l61 156l4 11q13 39 -13 65q-27 27 -65 28z" />
    <glyph glyph-name="uni1EA0" unicode="&#x1ea0;" horiz-adv-x="658" 
d="M319 748l287 -660q16 -36 45 -59q41 -29 81 -29h-393h3q4 1 10.5 3t14 5t16 7.5t15.5 10.5t13 15t8.5 19.5t1 24.5t-7.5 30l-61 155l-225 1l-58 -142q-21 -49 0.5 -87t75.5 -42h-232q37 2 74 34t58 84l271 639zM245 517q-17 0 -58 -101l-54 -132h213l-59 155l-9 23
q-24 52 -33 55zM736 0h-4h4zM251 -88q20 19 47 19t45 -19q19 -19 19 -46t-19 -46q-18 -19 -45 -19t-47 20q-19 19 -19 45t19 46z" />
    <glyph glyph-name="uni1EA1" unicode="&#x1ea1;" 
d="M335 66v201q-87 -27 -123 -54q-35 -27 -37 -75q-1 -28 12.5 -50.5t37.5 -30.5q56 -15 105 31q-8 -11 -29 -35q-5 -6 -32 -31q-40 -37 -100 -37q-64 0 -92 37t-27 82q1 53 49 88q20 15 55 29q37 16 65 23l78 22q5 1 17.5 4t20.5 6v56q0 74 -23.5 107.5t-72.5 24.5
q-30 -5 -44.5 -22t-17.5 -64q0 -10 8.5 -35t8.5 -33q1 -35 -31 -52t-64 -1.5t-30 59.5q1 63 58 104q57 40 117 51q32 9 72 4.5t74.5 -16.5t56.5 -45t20 -80v-227q0 -34 11 -48t31 -11q12 1 23.5 12.5t15.5 23.5l4 12q-7 -33 -27 -69q-25 -43 -89 -43q-45 0 -73 22t-28 60z
M297 -199q-27 0 -46.5 19.5t-19.5 45.5t19.5 45.5t46.5 19.5q26 0 45 -19.5t19 -45.5t-19 -45.5t-45 -19.5z" />
    <glyph glyph-name="uni1EB8" unicode="&#x1eb8;" horiz-adv-x="734" 
d="M555 82q44 34 79.5 70t48.5 56l11 18l-45 -226h-640q21 0 59 17q23 10 37.5 35.5t14.5 60.5v481q0 35 -14 59.5t-38 32.5q-36 14 -59 14h612l34 -213q-35 63 -144 141q-50 35 -96.5 48t-113.5 13h-22v-320h18q39 1 70.5 14.5t51 35t30 39t16.5 34.5l4 14v-296
q-2 15 -20 50q-13 24 -31 44q-19 21 -52 36t-69 15h-18v-237q0 -109 91 -109h12q37 0 84.5 21t88.5 52zM353 -69q26 0 44.5 -19.5t18.5 -45.5t-18.5 -45.5t-44.5 -19.5q-27 0 -46.5 19.5t-19.5 45.5t19.5 45.5t46.5 19.5z" />
    <glyph glyph-name="uni1EB9" unicode="&#x1eb9;" horiz-adv-x="539" 
d="M339 72q118 0 155 91q-9 -77 -67 -129q-58 -51 -148 -48q-108 5 -170 71q-63 69 -64 170q-2 145 110 213q36 21 82 30t82 4q78 -12 125 -68t45 -143h-324q0 -86 47.5 -138t126.5 -53zM237 445q-40 -27 -56 -81q-16 -51 -16 -94q83 0 118 5q51 8 80 38q27 25 25 75
q-1 50 -36 70q-20 13 -53 10t-62 -23zM293 -199q-27 0 -46.5 19.5t-19.5 45.5t19.5 45.5t46.5 19.5q26 0 45 -19.5t19 -45.5t-19 -45.5t-45 -19.5z" />
    <glyph glyph-name="uni1ECA" unicode="&#x1eca;" horiz-adv-x="434" 
d="M288 580v-460q0 -63 36 -93q35 -27 77 -27h-381q7 0 16.5 1t27.5 8t31.5 18.5t24.5 35.5t11 57v460q0 65 -36 93q-14 12 -32 18q-24 9 -43 9h381q-24 0 -60 -15q-53 -22 -53 -105zM217 -69q26 0 45 -19.5t19 -45.5t-19 -45.5t-45 -19.5q-27 0 -46.5 19.5t-19.5 45.5
t19.5 45.5t46.5 19.5z" />
    <glyph glyph-name="uni1ECB" unicode="&#x1ecb;" horiz-adv-x="366" 
d="M235 527q-21 -22 -52 -22t-53 22q-22 23 -22 54t22 52q22 22 53 22t52 -22q22 -21 22 -52t-22 -54zM253 475v-378q0 -27 8 -47t18 -29t23.5 -14.5t20 -6t12.5 -0.5h-303q18 0 35 6q56 21 56 91v231q0 34 -22 43q-21 11 -35 0zM150 -88q19 19 46 19t45 -19q19 -19 19 -46
t-19 -46q-18 -19 -45 -19t-46 20q-19 19 -19 45t19 46z" />
    <glyph glyph-name="Ygrave" unicode="&#x1ef2;" horiz-adv-x="637" 
d="M356 899l83 -132l-131 84q-23 15 -31.5 31t-6 26.5t10.5 17.5q11 17 34 10t41 -37zM478 700h222q-87 -19 -148 -124l-109 -198q-20 -38 -20 -110v-157q0 -33 12.5 -58t31.5 -35q34 -17 56 -18h-357q23 0 54 17q44 23 44 90l1 133q0 74 -29 121l-139 228q-33 53 -72.5 82
t-66.5 29l356 -1q-43 -1 -61 -34.5t5 -76.5l114 -195q34 -61 70 6l97 174q28 50 12 85t-73 42z" />
    <glyph glyph-name="ygrave" unicode="&#x1ef3;" horiz-adv-x="461" 
d="M338 513l-131 84q-23 15 -31.5 31t-5.5 26.5t10 17.5q11 16 34 9t41 -37zM321 450h201q-52 -10 -86 -46q-20 -21 -34 -53l-160 -386l-39 -95q-21 -52 -45.5 -68.5t-62.5 -10.5q-24 4 -36.5 25t-6.5 46q11 39 54 38q15 -2 28 -18q15 -16 20 -18q33 -13 54 40l27 68
l-182 399q-15 33 -38.5 53.5t-43.5 23.5l-17 2h291q-9 0 -29 -7q-14 -5 -20 -14q-21 -29 -3 -62l86 -188q9 -20 22 -20q9 0 12.5 4t10.5 19l69 163l4 11q12 38 -11.5 65t-64.5 29z" />
    <glyph glyph-name="uni1EF4" unicode="&#x1ef4;" horiz-adv-x="637" 
d="M478 700h222q-87 -19 -148 -124l-109 -198q-20 -38 -20 -110v-157q0 -33 12.5 -58t31.5 -35q34 -17 56 -18h-357q23 0 54 17q44 23 44 90l1 133q0 74 -29 121l-139 228q-33 53 -72.5 82t-66.5 29l356 -1q-43 -1 -61 -34.5t5 -76.5l114 -195q34 -61 70 6l97 174
q28 50 12 85t-73 42zM337 -199q-27 0 -46.5 19.5t-19.5 45.5t19.5 45.5t46.5 19.5q26 0 45 -19.5t19 -45.5t-19 -45.5t-45 -19.5z" />
    <glyph glyph-name="uni1EF5" unicode="&#x1ef5;" horiz-adv-x="461" 
d="M321 450h201q-52 -10 -86 -46q-20 -21 -34 -53l-160 -386l-39 -95q-21 -52 -45.5 -68.5t-62.5 -10.5q-24 4 -36.5 25t-6.5 46q11 39 54 38q15 -2 28 -18q15 -16 20 -18q33 -13 54 40l27 68l-182 399q-15 33 -38.5 53.5t-43.5 23.5l-17 2h291q-9 0 -29 -7q-14 -5 -20 -14
q-21 -29 -3 -62l86 -188q9 -20 22 -20q9 0 12.5 4t10.5 19l69 163l4 11q12 38 -11.5 65t-64.5 29zM312 -305q0 -27 -18.5 -46t-45.5 -19t-46 19.5t-19 45.5q0 27 19 46t46 19t45.5 -19t18.5 -46z" />
    <glyph glyph-name="uni1EF9" unicode="&#x1ef9;" horiz-adv-x="461" 
d="M218 588q-58 0 -73 -75q1 59 29 91.5t73 28.5q28 -3 62 -33q36 -28 60 -30q26 -2 48 17t28 52q0 -43 -24 -79t-64 -39q-27 -2 -53 14.5t-48 34.5t-38 18zM321 450h201q-52 -10 -86 -46q-20 -21 -34 -53l-160 -386l-39 -95q-21 -52 -45.5 -68.5t-62.5 -10.5
q-24 4 -36.5 25t-6.5 46q11 39 54 38q15 -2 28 -18q15 -16 20 -18q33 -13 54 40l27 68l-182 399q-15 33 -38.5 53.5t-43.5 23.5l-17 2h291q-9 0 -29 -7q-14 -5 -20 -14q-21 -29 -3 -62l86 -188q9 -20 22 -20q9 0 12.5 4t10.5 19l69 163l4 11q12 38 -11.5 65t-64.5 29z" />
    <glyph glyph-name="endash" unicode="&#x2013;" horiz-adv-x="597" 
d="M60 270v13h477v-13h-477z" />
    <glyph glyph-name="emdash" unicode="&#x2014;" horiz-adv-x="725" 
d="M60 270v13h605v-13h-605z" />
    <glyph glyph-name="quoteleft" unicode="&#x2018;" horiz-adv-x="257" 
d="M197 651q3 -27 -14 -47.5t-43 -22.5q-24 -3 -43.5 9.5t-26.5 34.5q-11 41 -10 85q2 47 27 98q25 50 68 79q-33 -29 -53 -86q-20 -56 -9 -104q13 11 33 12q27 3 47.5 -13.5t23.5 -44.5z" />
    <glyph glyph-name="quoteright" unicode="&#x2019;" horiz-adv-x="257" 
d="M160 766q31 -16 37 -73q7 -57 -18 -124q-25 -66 -76 -100q34 30 52 85q20 56 9 104q-14 -10 -33 -12q-27 -3 -47.5 14t-23.5 44q-3 28 14 48.5t43 22.5q23 3 43 -9z" />
    <glyph glyph-name="quotesinglbase" unicode="&#x201a;" horiz-adv-x="257" 
d="M160 119q31 -16 37 -74q7 -57 -18 -123q-26 -67 -76 -101q34 29 52 86q20 56 9 104q-14 -11 -33 -12q-27 -3 -47.5 14t-23.5 44t14 48t43 23q23 3 43 -9z" />
    <glyph glyph-name="quotedblleft" unicode="&#x201c;" horiz-adv-x="428" 
d="M126 614q27 3 47.5 -14t23.5 -44t-14 -48t-43 -23q-26 -3 -46 11l-6 6q-12 10 -19 28q-21 55 2 138q22 82 84 124q-33 -29 -53 -86q-20 -56 -9 -104q13 10 33 12zM311 485q-26 -3 -46 11l-6 6q-12 10 -19 28q-21 55 2 138q22 82 84 124q-33 -29 -53 -86q-20 -56 -9 -104
q14 10 33 12q27 3 47.5 -14t23.5 -44t-14 -48t-43 -23z" />
    <glyph glyph-name="quotedblright" unicode="&#x201d;" horiz-adv-x="415" 
d="M165 765l12 -11q8 -10 13 -22q11 -37 9 -84t-27.5 -99.5t-66.5 -79.5q33 29 53 85t9 104q-13 -10 -33 -12q-27 -3 -47.5 14t-23.5 44q-3 28 13.5 48.5t43.5 22.5q25 3 45 -10zM348 732q11 -37 9 -84t-27.5 -99.5t-66.5 -79.5q35 31 53 85q20 56 9 104q-13 -10 -33 -12
q-27 -3 -47.5 14t-23.5 44q-3 28 14 48.5t43 22.5q25 3 45 -10l12 -11q8 -10 13 -22z" />
    <glyph glyph-name="quotedblbase" unicode="&#x201e;" horiz-adv-x="417" 
d="M348 83q21 -55 -2 -138q-22 -82 -84 -124q33 29 53 86q20 56 9 104q-14 -11 -33 -12q-27 -3 -47.5 14t-23.5 44t14 48t43 23q26 3 46 -11l6 -6q12 -10 19 -28zM160 119q31 -16 37 -74q7 -57 -18 -123q-26 -67 -76 -101q34 29 52 86q20 56 9 104q-14 -11 -33 -12
q-27 -3 -47.5 14t-23.5 44t14 48t43 23q23 3 43 -9z" />
    <glyph glyph-name="dagger" unicode="&#x2020;" horiz-adv-x="462" 
d="M242 579h160v-13h-160v-622h-14v622h-168v13h168v228h14v-228z" />
    <glyph glyph-name="daggerdbl" unicode="&#x2021;" horiz-adv-x="462" 
d="M402 579v-13h-168v-357h168v-13h-168v-252h-14v252h-160v13h160v357h-160v13h160v228h14v-228h168z" />
    <glyph glyph-name="bullet" unicode="&#x2022;" horiz-adv-x="276" 
d="M193 250q-23 -22 -55 -22t-55 22q-23 23 -23 55t23 55t55 23t55 -23t23 -55t-23 -55z" />
    <glyph glyph-name="ellipsis" unicode="&#x2026;" horiz-adv-x="586" 
d="M142 15q-18 -19 -45 -19t-47 19q-19 20 -19 46t19 45q20 20 47 20t45 -19q19 -19 19 -46t-19 -46zM298 -4q-28 0 -47 19t-19 46t19 46t47 19q26 0 45 -19.5t19 -45.5t-19 -45.5t-45 -19.5zM545 15q-18 -19 -45 -19t-46 19q-19 20 -19 46t19 45q19 20 46 20t45 -19
q19 -19 19 -46t-19 -46z" />
    <glyph glyph-name="perthousand" unicode="&#x2030;" horiz-adv-x="1002" 
d="M208 425q-28 -1 -54 5t-54.5 32.5t-37.5 72.5q-12 60 17 107.5t87 62.5q70 16 118 -16t55 -105q7 -66 -30.5 -110.5t-100.5 -48.5zM269 596q-13 60 -40.5 88.5t-60.5 12.5q-30 -17 -37.5 -67.5t5.5 -86.5q11 -62 37 -89.5t56 -18.5q34 7 45 56q10 48 -5 105zM115 0h-19
l459 701h17zM490 0q-28 -1 -54 5t-54.5 32.5t-37.5 72.5q-12 60 17 107.5t87 62.5q70 16 118 -16t55 -105q7 -66 -30.5 -110.5t-100.5 -48.5zM810 0q-28 -1 -54 5t-54.5 32.5t-37.5 72.5q-12 60 17 107.5t87 62.5q70 16 118 -16t55 -105q7 -66 -30.5 -110.5t-100.5 -48.5z
M551 171q-13 60 -40.5 88.5t-60.5 12.5q-30 -16 -37 -68q-7 -49 4 -86q12 -62 38 -89.5t56 -18.5q34 7 45 56q10 47 -5 105zM871 171q-13 60 -40.5 88.5t-60.5 12.5q-30 -16 -37 -68q-7 -49 4 -86q12 -62 38 -89.5t56 -18.5q34 7 45 56q10 47 -5 105z" />
    <glyph glyph-name="guilsinglleft" unicode="&#x2039;" horiz-adv-x="285" 
d="M58 275l167 142l-94 -143l84 -150z" />
    <glyph glyph-name="guilsinglright" unicode="&#x203a;" horiz-adv-x="285" 
d="M59 417l167 -142l-157 -151l84 150z" />
    <glyph glyph-name="Euro" unicode="&#x20ac;" horiz-adv-x="663" 
d="M461 373h-439l-11 9h64q4 95 47.5 172t123.5 122q46 26 109 30.5t118 -11.5q58 -16 96 -61.5t38 -107.5q0 -32 -19 -50.5t-46 -17.5q-32 1 -48 30t-7 65q14 63 0 96.5t-44.5 42.5t-64 2t-59.5 -26q-53 -38 -71.5 -107t-18.5 -179h241zM540 229q29 1 48 -18.5t19 -55.5
q0 -68 -58 -114q-56 -45 -108 -53q-26 -7 -97 -2q-66 4 -106 23q-69 32 -112.5 107.5t-49.5 188.5h-54l-11 9h459l-9 -9h-232q0 -95 39 -196q19 -49 54.5 -80.5t78.5 -33.5q61 -2 85 32.5t7 99.5q-9 42 3 71.5t44 30.5z" />
    <glyph glyph-name="trademark" unicode="&#x2122;" horiz-adv-x="1047" 
d="M48 699h355l36 -134q-37 57 -63 82q-14 13 -24 21q-25 23 -80 23h-3v-329q0 -52 33 -68q22 -9 38 -9h-226q16 0 39 9q34 15 34 68v329h-6q-54 0 -100 -40q-27 -25 -58 -73l-11 -17zM1034 699h1h-1zM965 628v-271q0 -50 31 -63q21 -9 35 -9h-213q14 0 35 9q31 13 31 63
v229q0 45 -6 45q-12 0 -22 -27l-141 -347l-188 358q-11 13 -16 -15q-1 -4 -1 -13v-220q0 -23 9 -40t20 -24.5t26 -12t21 -5t10 -0.5h-174q4 0 10 0.5t20 5t25 12.5t19.5 24.5t8.5 39.5v247q0 33 -16.5 53.5t-31.5 25.5t-27 5l-5 1h151l141 -260q20 -35 30 -43q8 -5 14 2
t15 27l110 274h148q-16 0 -37 -9q-32 -13 -32 -62z" />
    <glyph glyph-name="partialdiff" unicode="&#x2202;" horiz-adv-x="570" 
d="M308 -12q-63 -5 -136 31q-38 19 -66.5 60t-40.5 97q-23 110 24 189q49 81 143 103q36 9 69.5 7.5t50 -4.5t20.5 -5q-4 69 -52 138q-46 68 -127 111q135 -33 232 -158t105 -276q7 -121 -58 -205q-64 -82 -164 -88zM388 285q-23 98 -61 147q-38 50 -86 24q-29 -15 -41 -67
q-19 -87 5 -197q21 -98 59.5 -148.5t82.5 -40.5q45 11 53 103q9 92 -12 179z" />
    <glyph glyph-name="emptyset" unicode="&#x2205;" horiz-adv-x="606" 
d="M541 258q10 -112 -55 -188q-64 -74 -168 -81q-104 -6 -174 51l-35 -39h-20l44 48q-50 49 -67 126q-21 103 28 185t148 108q140 33 227 -49l27 30h21l-37 -41q52 -56 61 -150zM213 182q0 -1 3 -15.5t5 -19.5l165 180q-23 77 -60 116q-38 39 -82 13q-36 -22 -43 -106
q-7 -86 12 -168zM354 3q31 10 44 59q25 89 -2 223l-6 25l-164 -180q23 -71 59 -104t69 -23z" />
    <glyph glyph-name="product" unicode="&#x220f;" horiz-adv-x="647" 
d="M62 -216v965h522v-963h-14v950h-494v-951z" />
    <glyph glyph-name="summation" unicode="&#x2211;" horiz-adv-x="592" 
d="M513 -85h-453v16l290 440l-289 395v17h471v-16h-451l292 -394l-293 -443h433v-15z" />
    <glyph glyph-name="minus" unicode="&#x2212;" horiz-adv-x="465" 
d="M60 337v13h345v-13h-345z" />
    <glyph glyph-name="radical" unicode="&#x221a;" horiz-adv-x="554" 
d="M495 699l-228 -903l-147 340h-60v14h73l131 -307l214 857z" />
    <glyph glyph-name="infinity" unicode="&#x221e;" horiz-adv-x="701" 
d="M334 377l32 48q54 83 156 75q73 -4 102 -65q30 -60 11 -124q-13 -45 -48 -71t-87 -25q-83 2 -125 89q-17 -32 -67 -66q-50 -33 -113 -32q-70 1 -106 52q-35 52 -29 114q4 57 42.5 90t93.5 31q61 -1 97 -47q26 -32 41 -69zM404 354l-24 -41q16 -37 126 -33q86 5 115 50
q7 16 9 31q7 37 -20 60q-29 21 -64 20.5t-70 -17.5q-25 -14 -44 -36q-23 -24 -28 -34zM182 289q51 4 89.5 25t56.5 53q-13 23 -40 37q-36 18 -90 19q-56 2 -92.5 -17t-36.5 -57q0 -31 28 -47.5t85 -12.5z" />
    <glyph glyph-name="integral" unicode="&#x222b;" horiz-adv-x="406" 
d="M320 801q70 -1 106.5 -37t36.5 -96q0 -30 -17 -48.5t-43 -18.5q-36 0 -54 29q-17 30 3 65q23 38 13.5 68t-44.5 31q-45 1 -65 -32.5t-20 -107.5v-718q0 -82 -78 -130q-77 -48 -172 -19q-46 15 -73.5 47.5t-27.5 66.5q0 32 18 51.5t45 19.5q38 0 53 -26.5t3 -64.5
q-12 -42 2 -69t52 -27q32 0 45 35t13 112v689q0 52 18 89.5t49 56.5t64.5 27t72.5 7z" />
    <glyph glyph-name="approxequal" unicode="&#x2248;" horiz-adv-x="423" 
d="M64 324q1 44 27 68.5t62 21.5q26 -1 71 -28q44 -25 67 -25q61 0 72 47q4 -37 -16.5 -61t-55.5 -24q-36 0 -79 27q-43 28 -78 28q-53 0 -70 -54zM60 239q1 43 26.5 67.5t62.5 22.5q29 -3 71 -28q44 -25 67 -25q61 0 73 46q3 -36 -18 -60t-55 -24q-36 0 -79 27
q-43 28 -77 28q-55 0 -71 -54z" />
    <glyph glyph-name="notequal" unicode="&#x2260;" horiz-adv-x="595" 
d="M534 421v-14h-201l-84 -137h285v-14h-294l-69 -112h-15l69 112h-165v14h174l85 137h-259v14h268l64 104h14l-64 -104h192z" />
    <glyph glyph-name="lessequal" unicode="&#x2264;" horiz-adv-x="490" 
d="M59 297l347 142v-14l-315 -129l315 -136v-14zM85 96v13h345v-13h-345z" />
    <glyph glyph-name="greaterequal" unicode="&#x2265;" horiz-adv-x="491" 
d="M74 439l347 -142l-347 -151v14l315 136l-315 129v14zM396 109v-13h-345v13h345z" />
    <glyph glyph-name="NULL" horiz-adv-x="0" 
 />
    <glyph glyph-name="CR" horiz-adv-x="333" 
 />
    <glyph glyph-name="zero.osf" horiz-adv-x="601" 
d="M318 -10q-71 -5 -142 28q-39 18 -69 59.5t-42 97.5q-20 105 29 186q49 82 148 108q117 25 201 -30q85 -55 97 -181q11 -113 -54 -187q-64 -73 -168 -81zM395 284q-16 91 -59 147q-42 55 -92 25q-36 -20 -43 -105t12 -168q19 -103 62 -147q42 -44 78 -33q30 10 44 60
q26 88 -2 221z" />
    <glyph glyph-name="one.osf" horiz-adv-x="441" 
d="M280 282v-194q0 -29 13.5 -50t35.5 -28q36 -10 53 -10h-323q16 0 47 11q44 15 44 77v145q-1 13 0 70q1 55 -19.5 75t-57.5 5l208 116q0 -41 -0.5 -94.5t-0.5 -66.5v-56z" />
    <glyph glyph-name="two.osf" horiz-adv-x="484" 
d="M271 79h153l-101 -188q31 62 15 85.5t-91 23.5h-187q84 42 169 127t73 188q-5 44 -36.5 68.5t-74.5 19.5q-26 -3 -54.5 -19t-45.5 -33l-15 -15q7 17 25 44q51 82 131 94q74 9 116 -35q42 -43 42 -96q0 -48 -28 -85q-13 -19 -28 -36l-45 -48l-51 -52q-9 -9 -14.5 -16.5
t-8.5 -12t-1 -7.5t3.5 -4.5t9 -2t12 -0.5h15.5h17z" />
    <glyph glyph-name="three.osf" horiz-adv-x="590" 
d="M402 162q145 -45 140 -203q-3 -78 -50 -134q-88 -105 -258 -70q-59 15 -102 64t-62 118q25 -49 71 -83t109 -39q64 -4 107 33t48 101q4 66 -40 117q-44 50 -110 46l-40 -8q141 70 153 184q5 43 -16 75t-64 41q-45 11 -89.5 -5.5t-79.5 -51.5q73 105 184 109q80 4 129 -41
q48 -43 48 -101q0 -101 -78 -152z" />
    <glyph glyph-name="four.osf" horiz-adv-x="624" 
d="M663 104l-104 -103h-95v-101l-119 -139v240h-294l413 558v-455h199zM173 103h171v198q0 33 -13 37t-34 -23l-133 -182q-18 -27 9 -30z" />
    <glyph glyph-name="five.osf" horiz-adv-x="551" 
d="M132 283l-15 -68q-3 -17 0 -20q0 -1 3.5 -0.5t6.5 2.5q41 29 76.5 39.5t86.5 11.5q90 2 150 -53q62 -56 62 -151q0 -84 -84 -168q-46 -46 -134 -87q-90 -42 -150 -59l-64 -17q126 42 208 127q84 87 85 173q1 100 -80 128q-37 9 -65 8.5t-56.5 -13t-44.5 -23.5t-29 -23
l-10 -11l79 382h336l-85 -111h-218q-33 0 -44 -20q-8 -17 -14 -47z" />
    <glyph glyph-name="six.osf" horiz-adv-x="593" 
d="M206 598q116 123 266 123q-105 -11 -174 -123q-46 -73 -60 -158l8 2q7 3 8 3q72 15 132 2q63 -13 106 -65t51 -131q10 -108 -54 -184q-65 -76 -162 -77q-69 0 -138 31q-39 18 -67.5 58t-40.5 95q-15 71 -3 177q18 128 128 247zM358 4q46 14 56 98q10 85 -9 173
q-19 93 -63 138q-43 45 -83 17q-28 -18 -38 -67q-20 -86 3 -193q11 -53 29 -90.5t36 -53t37 -23t32 0.5z" />
    <glyph glyph-name="seven.osf" horiz-adv-x="541" 
d="M124 458h446q-88 -112 -162 -267q-54 -117 -59 -195q-2 -25 -4 -161q-3 -64 -49 -77q-37 -12 -65 15q-21 22 -18 56q4 54 32 114q29 57 84 147q60 96 90 155q9 17 15.5 31t9 24.5t4 19t-2.5 14.5t-6 10t-11.5 7t-14.5 4.5t-19 2t-21.5 0.5h-24.5h-23h-39q-92 0 -142 -21
t-74 -77z" />
    <glyph glyph-name="eight.osf" horiz-adv-x="584" 
d="M360 408l57 -30q54 -29 90 -85q37 -56 25 -135q-12 -85 -98 -130t-187 -31q-89 10 -135.5 58.5t-39.5 127.5q5 60 40.5 97t109.5 70q-25 12 -53 37q-26 24 -49 74q-21 49 -13 102q10 76 76 117q66 42 144 36q77 -4 122 -48.5t45 -114.5q0 -104 -134 -145zM213 572
q7 -50 39.5 -87.5t101.5 -72.5q44 67 47 142q3 54 -23 102t-79 51q-30 1 -50 -14t-26.5 -37t-10 -45.5t0.5 -38.5zM230 346q-45 -62 -41 -164q2 -42 13 -78q14 -39 45.5 -66.5t73.5 -29.5q43 -2 68.5 18.5t29.5 54.5q8 68 -13 125q-10 28 -34 54t-44 37q-18 11 -56 29
q-12 6 -21.5 10.5t-14.5 7.5z" />
    <glyph glyph-name="nine.osf" horiz-adv-x="591" 
d="M408 -155q-115 -124 -266 -124q104 12 174 124q44 73 59 159q-6 -6 -15 -6q-72 -15 -133 -2q-62 13 -105 65t-51 131q-11 108 54 183q65 77 162 78q70 0 138 -32q39 -18 67.5 -57.5t40.5 -94.5q48 -239 -125 -424zM256 439q-46 -14 -56 -99q-10 -84 9 -172
q20 -93 62 -138q43 -46 84 -17q28 18 38 67q19 84 -4 193q-11 53 -28.5 90.5t-35.5 53t-37 23t-32 -0.5z" />
    <glyph glyph-name="ampersand.001" horiz-adv-x="914" 
d="M789 485q26 0 42 -11t16 -31q0 -13 -8 -22t-20 -9q-19 0 -35 18t-41 18q-29 0 -64 -20q-17 -11 -56 -55q-9 -11 -27 -38l-25 -40l-28 -45l-27 -46q48 -67 70 -119q36 -82 36 -158q0 -120 -75 -211q-42 -51 -89.5 -74.5t-114.5 -23.5q-23 0 -43 2q-55 5 -91 41.5t-47 68.5
l-5 11q11 -18 23 -31q55 -59 140 -59q120 0 193 94q74 95 74 220q0 102 -79 226q-78 -128 -105 -161q-73 -92 -168 -96h-12q-71 0 -124 44q-52 43 -52 124q0 35 13 67q26 60 83 112q38 33 58 48l66 48q43 30 63 45q-74 92 -74 166q0 64 39 107t97 43q49 0 78.5 -28.5
t30.5 -79.5q1 -45 -25.5 -85t-79.5 -87q-4 -3 -10.5 -8.5t-19 -15t-23.5 -17.5l139 -168q3 -4 29 -38l30 49l33 53l27 44q40 60 72 85q50 43 116 43zM271 588q0 -41 13.5 -77t50.5 -85l35 28q54 45 76.5 85t21.5 88q-1 34 -23 57t-55 25q-45 3 -82 -34q-37 -36 -37 -87z
M244 -29q79 0 145 72q34 35 58 70q32 46 56 86q-11 18 -24 36q-29 42 -65 85q-16 21 -36 43l-41 50q-73 -52 -92 -68q-77 -60 -113.5 -113t-36.5 -116t40 -104t109 -41z" />
    </font>
</defs>
</svg>
